%TF.GenerationSoftware,KiCad,Pcbnew,10.0.1*%
%TF.CreationDate,2026-04-27T12:30:42-05:00*%
%TF.ProjectId,The Dichotomy Split,54686520-4469-4636-986f-746f6d792053,rev?*%
%TF.SameCoordinates,Original*%
%TF.FileFunction,Soldermask,Top*%
%TF.FilePolarity,Negative*%
%FSLAX46Y46*%
G04 Gerber Fmt 4.6, Leading zero omitted, Abs format (unit mm)*
G04 Created by KiCad (PCBNEW 10.0.1) date 2026-04-27 12:30:42*
%MOMM*%
%LPD*%
G01*
G04 APERTURE LIST*
G04 Aperture macros list*
%AMRoundRect*
0 Rectangle with rounded corners*
0 $1 Rounding radius*
0 $2 $3 $4 $5 $6 $7 $8 $9 X,Y pos of 4 corners*
0 Add a 4 corners polygon primitive as box body*
4,1,4,$2,$3,$4,$5,$6,$7,$8,$9,$2,$3,0*
0 Add four circle primitives for the rounded corners*
1,1,$1+$1,$2,$3*
1,1,$1+$1,$4,$5*
1,1,$1+$1,$6,$7*
1,1,$1+$1,$8,$9*
0 Add four rect primitives between the rounded corners*
20,1,$1+$1,$2,$3,$4,$5,0*
20,1,$1+$1,$4,$5,$6,$7,0*
20,1,$1+$1,$6,$7,$8,$9,0*
20,1,$1+$1,$8,$9,$2,$3,0*%
G04 Aperture macros list end*
%ADD10C,0.100000*%
%ADD11C,1.750000*%
%ADD12C,3.987800*%
%ADD13C,0.500000*%
%ADD14C,5.600000*%
%ADD15RoundRect,0.450000X-1.300000X-0.450000X1.300000X-0.450000X1.300000X0.450000X-1.300000X0.450000X0*%
%ADD16C,1.800000*%
%ADD17RoundRect,0.450000X1.300000X0.450000X-1.300000X0.450000X-1.300000X-0.450000X1.300000X-0.450000X0*%
%ADD18RoundRect,0.450000X0.450000X0.450000X-0.450000X0.450000X-0.450000X-0.450000X0.450000X-0.450000X0*%
%ADD19RoundRect,0.337500X-0.562500X-0.337500X0.562500X-0.337500X0.562500X0.337500X-0.562500X0.337500X0*%
%ADD20RoundRect,0.337500X-0.912500X-0.337500X0.912500X-0.337500X0.912500X0.337500X-0.912500X0.337500X0*%
%ADD21RoundRect,0.337500X0.337500X-0.562500X0.337500X0.562500X-0.337500X0.562500X-0.337500X-0.562500X0*%
%ADD22RoundRect,0.337500X0.337500X-0.912500X0.337500X0.912500X-0.337500X0.912500X-0.337500X-0.912500X0*%
G04 APERTURE END LIST*
D10*
X147518750Y-102631250D02*
G75*
G02*
X152518750Y-102631250I2500000J0D01*
G01*
D11*
%TO.C,SW3*%
X44926250Y-52387500D03*
D12*
X50006250Y-52387500D03*
D11*
X55086250Y-52387500D03*
%TD*%
%TO.C,SW9*%
X63976250Y-88106250D03*
D12*
X69056250Y-88106250D03*
D11*
X74136250Y-88106250D03*
%TD*%
%TO.C,SW36*%
X206520000Y-28600000D03*
D12*
X211600000Y-28600000D03*
D11*
X216680000Y-28600000D03*
%TD*%
D13*
%TO.C,H12*%
X147518750Y-72187500D03*
X152518750Y-72187500D03*
X147518750Y-71437500D03*
X147518750Y-71437500D03*
X152518750Y-71437500D03*
X152518750Y-71437500D03*
X147518750Y-70687500D03*
X152518750Y-70687500D03*
X147518750Y-69937500D03*
X152518750Y-69937500D03*
X147518750Y-69187500D03*
X152518750Y-69187500D03*
X147518750Y-68437500D03*
X152518750Y-68437500D03*
X147518750Y-67687500D03*
X152518750Y-67687500D03*
X147518750Y-66937500D03*
X152518750Y-66937500D03*
X147518750Y-66187500D03*
X152518750Y-66187500D03*
X147518750Y-65437500D03*
X152518750Y-65437500D03*
X147518750Y-64687500D03*
X152518750Y-64687500D03*
%TD*%
D11*
%TO.C,SW10*%
X225570000Y-88131250D03*
D12*
X230650000Y-88131250D03*
D11*
X235730000Y-88131250D03*
%TD*%
%TO.C,SW2*%
X244620000Y-33325000D03*
D12*
X249700000Y-33325000D03*
D11*
X254780000Y-33325000D03*
%TD*%
%TO.C,SW32*%
X168420000Y-57175000D03*
D12*
X173500000Y-57175000D03*
D11*
X178580000Y-57175000D03*
%TD*%
%TO.C,SW18*%
X225570000Y-69081250D03*
D12*
X230650000Y-69081250D03*
D11*
X235730000Y-69081250D03*
%TD*%
%TO.C,SW17*%
X63976250Y-69056250D03*
D12*
X69056250Y-69056250D03*
D11*
X74136250Y-69056250D03*
%TD*%
D14*
%TO.C,H3*%
X193100000Y-104800000D03*
%TD*%
D11*
%TO.C,SW15*%
X121126250Y-95250000D03*
D12*
X126206250Y-95250000D03*
D11*
X131286250Y-95250000D03*
%TD*%
%TO.C,SW28*%
X206520000Y-47650000D03*
D12*
X211600000Y-47650000D03*
D11*
X216680000Y-47650000D03*
%TD*%
%TO.C,SW8*%
X244620000Y-90512500D03*
D12*
X249700000Y-90512500D03*
D11*
X254780000Y-90512500D03*
%TD*%
%TO.C,SW6*%
X244620000Y-71462500D03*
D12*
X249700000Y-71462500D03*
D11*
X254780000Y-71462500D03*
%TD*%
%TO.C,SW25*%
X63976250Y-50006250D03*
D12*
X69056250Y-50006250D03*
D11*
X74136250Y-50006250D03*
%TD*%
D14*
%TO.C,H4*%
X158443750Y-47625000D03*
%TD*%
D11*
%TO.C,SW5*%
X44926250Y-71437500D03*
D12*
X50006250Y-71437500D03*
D11*
X55086250Y-71437500D03*
%TD*%
D14*
%TO.C,H5*%
X140493750Y-66675000D03*
%TD*%
%TO.C,H7*%
X140493750Y-47625000D03*
%TD*%
D11*
%TO.C,SW13*%
X102076250Y-90487500D03*
D12*
X107156250Y-90487500D03*
D11*
X112236250Y-90487500D03*
%TD*%
%TO.C,SW11*%
X83026250Y-85725000D03*
D12*
X88106250Y-85725000D03*
D11*
X93186250Y-85725000D03*
%TD*%
%TO.C,SW29*%
X102076250Y-52387500D03*
D12*
X107156250Y-52387500D03*
D11*
X112236250Y-52387500D03*
%TD*%
D15*
%TO.C,U3*%
X19655000Y-71278750D03*
D16*
X20955000Y-71278750D03*
D15*
X19655000Y-73818750D03*
D16*
X20955000Y-73818750D03*
D15*
X19655000Y-76358750D03*
D16*
X20955000Y-76358750D03*
D15*
X19655000Y-78898750D03*
D16*
X20955000Y-78898750D03*
D15*
X19655000Y-81438750D03*
D16*
X20955000Y-81438750D03*
D15*
X19655000Y-83978750D03*
D16*
X20955000Y-83978750D03*
D15*
X19655000Y-86518750D03*
D16*
X20955000Y-86518750D03*
X36195000Y-71278750D03*
D17*
X37495000Y-71278750D03*
D18*
X36195000Y-73818750D03*
D17*
X37495000Y-73818750D03*
D16*
X36195000Y-76358750D03*
D17*
X37495000Y-76358751D03*
D16*
X36195000Y-78898750D03*
D17*
X37495000Y-78898750D03*
D16*
X36195000Y-81438750D03*
D17*
X37495000Y-81438750D03*
D16*
X36195000Y-83978750D03*
D15*
X37495000Y-83978750D03*
D16*
X36195000Y-86518750D03*
D15*
X37495000Y-86518750D03*
D19*
X24129999Y-76676250D03*
D20*
X24129999Y-76676250D03*
D19*
X24129998Y-78581250D03*
D20*
X24129998Y-78581250D03*
D21*
X32385000Y-88106250D03*
D22*
X32385000Y-88106250D03*
D21*
X34290000Y-88106250D03*
D22*
X34290000Y-88106250D03*
D16*
X27305000Y-70326250D03*
X29845000Y-70326250D03*
X27305000Y-72866250D03*
D18*
X29845000Y-72866250D03*
%TD*%
D11*
%TO.C,SW37*%
X102076250Y-33337500D03*
D12*
X107156250Y-33337500D03*
D11*
X112236250Y-33337500D03*
%TD*%
%TO.C,SW12*%
X206520000Y-85750000D03*
D12*
X211600000Y-85750000D03*
D11*
X216680000Y-85750000D03*
%TD*%
%TO.C,SW41*%
X26182611Y-106512462D03*
D12*
X30956250Y-104775000D03*
D11*
X35729889Y-103037538D03*
%TD*%
%TO.C,SW16*%
X168420000Y-95275000D03*
D12*
X173500000Y-95275000D03*
D11*
X178580000Y-95275000D03*
%TD*%
%TO.C,SW33*%
X63976250Y-30956250D03*
D12*
X69056250Y-30956250D03*
D11*
X74136250Y-30956250D03*
%TD*%
D13*
%TO.C,H13*%
X147518750Y-39468750D03*
X152518750Y-39468750D03*
X147518750Y-38718750D03*
X147518750Y-38718750D03*
X152518750Y-38718750D03*
X152518750Y-38718750D03*
X147518750Y-37968750D03*
X152518750Y-37968750D03*
X147518750Y-37218750D03*
X152518750Y-37218750D03*
X147518750Y-36468750D03*
X152518750Y-36468750D03*
X147518750Y-35718750D03*
X152518750Y-35718750D03*
X147518750Y-34968750D03*
X152518750Y-34968750D03*
X147518750Y-34218750D03*
X152518750Y-34218750D03*
X147518750Y-33468750D03*
X152518750Y-33468750D03*
X147518750Y-32718750D03*
X152518750Y-32718750D03*
X147518750Y-31968750D03*
X152518750Y-31968750D03*
%TD*%
D11*
%TO.C,SW40*%
X168420000Y-38125000D03*
D12*
X173500000Y-38125000D03*
D11*
X178580000Y-38125000D03*
%TD*%
D15*
%TO.C,U4*%
X262211250Y-70986250D03*
D16*
X263511250Y-70986250D03*
D15*
X262211250Y-73526250D03*
D16*
X263511250Y-73526250D03*
D15*
X262211250Y-76066250D03*
D16*
X263511250Y-76066250D03*
D15*
X262211250Y-78606250D03*
D16*
X263511250Y-78606250D03*
D15*
X262211250Y-81146250D03*
D16*
X263511250Y-81146250D03*
D15*
X262211250Y-83686250D03*
D16*
X263511250Y-83686250D03*
D15*
X262211250Y-86226250D03*
D16*
X263511250Y-86226250D03*
X278751250Y-70986250D03*
D17*
X280051250Y-70986250D03*
D18*
X278751250Y-73526250D03*
D17*
X280051250Y-73526250D03*
D16*
X278751250Y-76066250D03*
D17*
X280051250Y-76066251D03*
D16*
X278751250Y-78606250D03*
D17*
X280051250Y-78606250D03*
D16*
X278751250Y-81146250D03*
D17*
X280051250Y-81146250D03*
D16*
X278751250Y-83686250D03*
D15*
X280051250Y-83686250D03*
D16*
X278751250Y-86226250D03*
D15*
X280051250Y-86226250D03*
D19*
X266686249Y-76383750D03*
D20*
X266686249Y-76383750D03*
D19*
X266686248Y-78288750D03*
D20*
X266686248Y-78288750D03*
D21*
X274941250Y-87813750D03*
D22*
X274941250Y-87813750D03*
D21*
X276846250Y-87813750D03*
D22*
X276846250Y-87813750D03*
D16*
X269861250Y-70033750D03*
X272401250Y-70033750D03*
X269861250Y-72573750D03*
D18*
X272401250Y-72573750D03*
%TD*%
D11*
%TO.C,SW20*%
X206520000Y-66700000D03*
D12*
X211600000Y-66700000D03*
D11*
X216680000Y-66700000D03*
%TD*%
%TO.C,SW39*%
X121126250Y-38100000D03*
D12*
X126206250Y-38100000D03*
D11*
X131286250Y-38100000D03*
%TD*%
D13*
%TO.C,H11*%
X147518750Y-101381250D03*
X152518750Y-101381250D03*
X147518750Y-100631250D03*
X147518750Y-100631250D03*
X152518750Y-100631250D03*
X152518750Y-100631250D03*
X147518750Y-99881250D03*
X152518750Y-99881250D03*
X147518750Y-99131250D03*
X152518750Y-99131250D03*
X147518750Y-98381250D03*
X152518750Y-98381250D03*
X147518750Y-97631250D03*
X152518750Y-97631250D03*
X147518750Y-96881250D03*
X152518750Y-96881250D03*
X147518750Y-96131250D03*
X152518750Y-96131250D03*
X147518750Y-95381250D03*
X152518750Y-95381250D03*
X147518750Y-94631250D03*
X152518750Y-94631250D03*
X147518750Y-93881250D03*
X152518750Y-93881250D03*
%TD*%
D14*
%TO.C,H1*%
X231200000Y-104800000D03*
%TD*%
D11*
%TO.C,SW4*%
X244620000Y-52412500D03*
D12*
X249700000Y-52412500D03*
D11*
X254780000Y-52412500D03*
%TD*%
D14*
%TO.C,H2*%
X158443750Y-85725000D03*
%TD*%
D11*
%TO.C,SW30*%
X187470000Y-52412500D03*
D12*
X192550000Y-52412500D03*
D11*
X197630000Y-52412500D03*
%TD*%
%TO.C,SW38*%
X187470000Y-33362500D03*
D12*
X192550000Y-33362500D03*
D11*
X197630000Y-33362500D03*
%TD*%
%TO.C,SW7*%
X44926250Y-90487500D03*
D12*
X50006250Y-90487500D03*
D11*
X55086250Y-90487500D03*
%TD*%
%TO.C,SW1*%
X44926250Y-33337500D03*
D12*
X50006250Y-33337500D03*
D11*
X55086250Y-33337500D03*
%TD*%
%TO.C,SW23*%
X121126250Y-76200000D03*
D12*
X126206250Y-76200000D03*
D11*
X131286250Y-76200000D03*
%TD*%
D14*
%TO.C,H1*%
X107156250Y-104775000D03*
%TD*%
D11*
%TO.C,SW21*%
X102076250Y-71437500D03*
D12*
X107156250Y-71437500D03*
D11*
X112236250Y-71437500D03*
%TD*%
%TO.C,SW19*%
X83026250Y-66675000D03*
D12*
X88106250Y-66675000D03*
D11*
X93186250Y-66675000D03*
%TD*%
%TO.C,SW34*%
X225570000Y-30981250D03*
D12*
X230650000Y-30981250D03*
D11*
X235730000Y-30981250D03*
%TD*%
%TO.C,SW27*%
X83026250Y-47625000D03*
D12*
X88106250Y-47625000D03*
D11*
X93186250Y-47625000D03*
%TD*%
%TO.C,SW22*%
X187470000Y-71462500D03*
D12*
X192550000Y-71462500D03*
D11*
X197630000Y-71462500D03*
%TD*%
%TO.C,SW24*%
X168420000Y-76225000D03*
D12*
X173500000Y-76225000D03*
D11*
X178580000Y-76225000D03*
%TD*%
D14*
%TO.C,H9*%
X140493750Y-85725000D03*
%TD*%
%TO.C,H3*%
X69056250Y-104775000D03*
%TD*%
D11*
%TO.C,SW14*%
X187470000Y-90512500D03*
D12*
X192550000Y-90512500D03*
D11*
X197630000Y-90512500D03*
%TD*%
%TO.C,SW31*%
X121126250Y-57150000D03*
D12*
X126206250Y-57150000D03*
D11*
X131286250Y-57150000D03*
%TD*%
%TO.C,SW42*%
X263976361Y-103062538D03*
D12*
X268750000Y-104800000D03*
D11*
X273523639Y-106537462D03*
%TD*%
D14*
%TO.C,H6*%
X158443750Y-66675000D03*
%TD*%
D11*
%TO.C,SW26*%
X225570000Y-50031250D03*
D12*
X230650000Y-50031250D03*
D11*
X235730000Y-50031250D03*
%TD*%
%TO.C,SW35*%
X83026250Y-28575000D03*
D12*
X88106250Y-28575000D03*
D11*
X93186250Y-28575000D03*
%TD*%
M02*
