%TF.GenerationSoftware,KiCad,Pcbnew,10.0.1*%
%TF.CreationDate,2026-04-27T12:30:42-05:00*%
%TF.ProjectId,The Dichotomy Split,54686520-4469-4636-986f-746f6d792053,rev?*%
%TF.SameCoordinates,Original*%
%TF.FileFunction,Legend,Bot*%
%TF.FilePolarity,Positive*%
%FSLAX46Y46*%
G04 Gerber Fmt 4.6, Leading zero omitted, Abs format (unit mm)*
G04 Created by KiCad (PCBNEW 10.0.1) date 2026-04-27 12:30:42*
%MOMM*%
%LPD*%
G01*
G04 APERTURE LIST*
%ADD10C,0.150000*%
%ADD11C,0.120000*%
G04 APERTURE END LIST*
D10*
X28659886Y-76622259D02*
X28517029Y-76669878D01*
X28517029Y-76669878D02*
X28469410Y-76717497D01*
X28469410Y-76717497D02*
X28421791Y-76812735D01*
X28421791Y-76812735D02*
X28421791Y-76955592D01*
X28421791Y-76955592D02*
X28469410Y-77050830D01*
X28469410Y-77050830D02*
X28517029Y-77098450D01*
X28517029Y-77098450D02*
X28612267Y-77146069D01*
X28612267Y-77146069D02*
X28993219Y-77146069D01*
X28993219Y-77146069D02*
X28993219Y-76146069D01*
X28993219Y-76146069D02*
X28659886Y-76146069D01*
X28659886Y-76146069D02*
X28564648Y-76193688D01*
X28564648Y-76193688D02*
X28517029Y-76241307D01*
X28517029Y-76241307D02*
X28469410Y-76336545D01*
X28469410Y-76336545D02*
X28469410Y-76431783D01*
X28469410Y-76431783D02*
X28517029Y-76527021D01*
X28517029Y-76527021D02*
X28564648Y-76574640D01*
X28564648Y-76574640D02*
X28659886Y-76622259D01*
X28659886Y-76622259D02*
X28993219Y-76622259D01*
X28040838Y-76860354D02*
X27564648Y-76860354D01*
X28136076Y-77146069D02*
X27802743Y-76146069D01*
X27802743Y-76146069D02*
X27469410Y-77146069D01*
X27278933Y-76146069D02*
X26707505Y-76146069D01*
X26993219Y-77146069D02*
X26993219Y-76146069D01*
X26374171Y-76765116D02*
X25612267Y-76765116D01*
X28659886Y-78527259D02*
X28517029Y-78574878D01*
X28517029Y-78574878D02*
X28469410Y-78622497D01*
X28469410Y-78622497D02*
X28421791Y-78717735D01*
X28421791Y-78717735D02*
X28421791Y-78860592D01*
X28421791Y-78860592D02*
X28469410Y-78955830D01*
X28469410Y-78955830D02*
X28517029Y-79003450D01*
X28517029Y-79003450D02*
X28612267Y-79051069D01*
X28612267Y-79051069D02*
X28993219Y-79051069D01*
X28993219Y-79051069D02*
X28993219Y-78051069D01*
X28993219Y-78051069D02*
X28659886Y-78051069D01*
X28659886Y-78051069D02*
X28564648Y-78098688D01*
X28564648Y-78098688D02*
X28517029Y-78146307D01*
X28517029Y-78146307D02*
X28469410Y-78241545D01*
X28469410Y-78241545D02*
X28469410Y-78336783D01*
X28469410Y-78336783D02*
X28517029Y-78432021D01*
X28517029Y-78432021D02*
X28564648Y-78479640D01*
X28564648Y-78479640D02*
X28659886Y-78527259D01*
X28659886Y-78527259D02*
X28993219Y-78527259D01*
X28040838Y-78765354D02*
X27564648Y-78765354D01*
X28136076Y-79051069D02*
X27802743Y-78051069D01*
X27802743Y-78051069D02*
X27469410Y-79051069D01*
X27278933Y-78051069D02*
X26707505Y-78051069D01*
X26993219Y-79051069D02*
X26993219Y-78051069D01*
X26374171Y-78670116D02*
X25612267Y-78670116D01*
X25993219Y-79051069D02*
X25993219Y-78289164D01*
X271216136Y-76329759D02*
X271073279Y-76377378D01*
X271073279Y-76377378D02*
X271025660Y-76424997D01*
X271025660Y-76424997D02*
X270978041Y-76520235D01*
X270978041Y-76520235D02*
X270978041Y-76663092D01*
X270978041Y-76663092D02*
X271025660Y-76758330D01*
X271025660Y-76758330D02*
X271073279Y-76805950D01*
X271073279Y-76805950D02*
X271168517Y-76853569D01*
X271168517Y-76853569D02*
X271549469Y-76853569D01*
X271549469Y-76853569D02*
X271549469Y-75853569D01*
X271549469Y-75853569D02*
X271216136Y-75853569D01*
X271216136Y-75853569D02*
X271120898Y-75901188D01*
X271120898Y-75901188D02*
X271073279Y-75948807D01*
X271073279Y-75948807D02*
X271025660Y-76044045D01*
X271025660Y-76044045D02*
X271025660Y-76139283D01*
X271025660Y-76139283D02*
X271073279Y-76234521D01*
X271073279Y-76234521D02*
X271120898Y-76282140D01*
X271120898Y-76282140D02*
X271216136Y-76329759D01*
X271216136Y-76329759D02*
X271549469Y-76329759D01*
X270597088Y-76567854D02*
X270120898Y-76567854D01*
X270692326Y-76853569D02*
X270358993Y-75853569D01*
X270358993Y-75853569D02*
X270025660Y-76853569D01*
X269835183Y-75853569D02*
X269263755Y-75853569D01*
X269549469Y-76853569D02*
X269549469Y-75853569D01*
X268930421Y-76472616D02*
X268168517Y-76472616D01*
X271216136Y-78234759D02*
X271073279Y-78282378D01*
X271073279Y-78282378D02*
X271025660Y-78329997D01*
X271025660Y-78329997D02*
X270978041Y-78425235D01*
X270978041Y-78425235D02*
X270978041Y-78568092D01*
X270978041Y-78568092D02*
X271025660Y-78663330D01*
X271025660Y-78663330D02*
X271073279Y-78710950D01*
X271073279Y-78710950D02*
X271168517Y-78758569D01*
X271168517Y-78758569D02*
X271549469Y-78758569D01*
X271549469Y-78758569D02*
X271549469Y-77758569D01*
X271549469Y-77758569D02*
X271216136Y-77758569D01*
X271216136Y-77758569D02*
X271120898Y-77806188D01*
X271120898Y-77806188D02*
X271073279Y-77853807D01*
X271073279Y-77853807D02*
X271025660Y-77949045D01*
X271025660Y-77949045D02*
X271025660Y-78044283D01*
X271025660Y-78044283D02*
X271073279Y-78139521D01*
X271073279Y-78139521D02*
X271120898Y-78187140D01*
X271120898Y-78187140D02*
X271216136Y-78234759D01*
X271216136Y-78234759D02*
X271549469Y-78234759D01*
X270597088Y-78472854D02*
X270120898Y-78472854D01*
X270692326Y-78758569D02*
X270358993Y-77758569D01*
X270358993Y-77758569D02*
X270025660Y-78758569D01*
X269835183Y-77758569D02*
X269263755Y-77758569D01*
X269549469Y-78758569D02*
X269549469Y-77758569D01*
X268930421Y-78377616D02*
X268168517Y-78377616D01*
X268549469Y-78758569D02*
X268549469Y-77996664D01*
X202148569Y-94060714D02*
X201148569Y-94060714D01*
X201148569Y-94060714D02*
X201148569Y-94298809D01*
X201148569Y-94298809D02*
X201196188Y-94441666D01*
X201196188Y-94441666D02*
X201291426Y-94536904D01*
X201291426Y-94536904D02*
X201386664Y-94584523D01*
X201386664Y-94584523D02*
X201577140Y-94632142D01*
X201577140Y-94632142D02*
X201719997Y-94632142D01*
X201719997Y-94632142D02*
X201910473Y-94584523D01*
X201910473Y-94584523D02*
X202005711Y-94536904D01*
X202005711Y-94536904D02*
X202100950Y-94441666D01*
X202100950Y-94441666D02*
X202148569Y-94298809D01*
X202148569Y-94298809D02*
X202148569Y-94060714D01*
X202148569Y-95584523D02*
X202148569Y-95013095D01*
X202148569Y-95298809D02*
X201148569Y-95298809D01*
X201148569Y-95298809D02*
X201291426Y-95203571D01*
X201291426Y-95203571D02*
X201386664Y-95108333D01*
X201386664Y-95108333D02*
X201434283Y-95013095D01*
X201481902Y-96441666D02*
X202148569Y-96441666D01*
X201100950Y-96203571D02*
X201815235Y-95965476D01*
X201815235Y-95965476D02*
X201815235Y-96584523D01*
X97704819Y-32123214D02*
X96704819Y-32123214D01*
X96704819Y-32123214D02*
X96704819Y-32361309D01*
X96704819Y-32361309D02*
X96752438Y-32504166D01*
X96752438Y-32504166D02*
X96847676Y-32599404D01*
X96847676Y-32599404D02*
X96942914Y-32647023D01*
X96942914Y-32647023D02*
X97133390Y-32694642D01*
X97133390Y-32694642D02*
X97276247Y-32694642D01*
X97276247Y-32694642D02*
X97466723Y-32647023D01*
X97466723Y-32647023D02*
X97561961Y-32599404D01*
X97561961Y-32599404D02*
X97657200Y-32504166D01*
X97657200Y-32504166D02*
X97704819Y-32361309D01*
X97704819Y-32361309D02*
X97704819Y-32123214D01*
X96704819Y-33027976D02*
X96704819Y-33647023D01*
X96704819Y-33647023D02*
X97085771Y-33313690D01*
X97085771Y-33313690D02*
X97085771Y-33456547D01*
X97085771Y-33456547D02*
X97133390Y-33551785D01*
X97133390Y-33551785D02*
X97181009Y-33599404D01*
X97181009Y-33599404D02*
X97276247Y-33647023D01*
X97276247Y-33647023D02*
X97514342Y-33647023D01*
X97514342Y-33647023D02*
X97609580Y-33599404D01*
X97609580Y-33599404D02*
X97657200Y-33551785D01*
X97657200Y-33551785D02*
X97704819Y-33456547D01*
X97704819Y-33456547D02*
X97704819Y-33170833D01*
X97704819Y-33170833D02*
X97657200Y-33075595D01*
X97657200Y-33075595D02*
X97609580Y-33027976D01*
X96704819Y-34551785D02*
X96704819Y-34075595D01*
X96704819Y-34075595D02*
X97181009Y-34027976D01*
X97181009Y-34027976D02*
X97133390Y-34075595D01*
X97133390Y-34075595D02*
X97085771Y-34170833D01*
X97085771Y-34170833D02*
X97085771Y-34408928D01*
X97085771Y-34408928D02*
X97133390Y-34504166D01*
X97133390Y-34504166D02*
X97181009Y-34551785D01*
X97181009Y-34551785D02*
X97276247Y-34599404D01*
X97276247Y-34599404D02*
X97514342Y-34599404D01*
X97514342Y-34599404D02*
X97609580Y-34551785D01*
X97609580Y-34551785D02*
X97657200Y-34504166D01*
X97657200Y-34504166D02*
X97704819Y-34408928D01*
X97704819Y-34408928D02*
X97704819Y-34170833D01*
X97704819Y-34170833D02*
X97657200Y-34075595D01*
X97657200Y-34075595D02*
X97609580Y-34027976D01*
X202148569Y-75010714D02*
X201148569Y-75010714D01*
X201148569Y-75010714D02*
X201148569Y-75248809D01*
X201148569Y-75248809D02*
X201196188Y-75391666D01*
X201196188Y-75391666D02*
X201291426Y-75486904D01*
X201291426Y-75486904D02*
X201386664Y-75534523D01*
X201386664Y-75534523D02*
X201577140Y-75582142D01*
X201577140Y-75582142D02*
X201719997Y-75582142D01*
X201719997Y-75582142D02*
X201910473Y-75534523D01*
X201910473Y-75534523D02*
X202005711Y-75486904D01*
X202005711Y-75486904D02*
X202100950Y-75391666D01*
X202100950Y-75391666D02*
X202148569Y-75248809D01*
X202148569Y-75248809D02*
X202148569Y-75010714D01*
X201243807Y-75963095D02*
X201196188Y-76010714D01*
X201196188Y-76010714D02*
X201148569Y-76105952D01*
X201148569Y-76105952D02*
X201148569Y-76344047D01*
X201148569Y-76344047D02*
X201196188Y-76439285D01*
X201196188Y-76439285D02*
X201243807Y-76486904D01*
X201243807Y-76486904D02*
X201339045Y-76534523D01*
X201339045Y-76534523D02*
X201434283Y-76534523D01*
X201434283Y-76534523D02*
X201577140Y-76486904D01*
X201577140Y-76486904D02*
X202148569Y-75915476D01*
X202148569Y-75915476D02*
X202148569Y-76534523D01*
X201243807Y-76915476D02*
X201196188Y-76963095D01*
X201196188Y-76963095D02*
X201148569Y-77058333D01*
X201148569Y-77058333D02*
X201148569Y-77296428D01*
X201148569Y-77296428D02*
X201196188Y-77391666D01*
X201196188Y-77391666D02*
X201243807Y-77439285D01*
X201243807Y-77439285D02*
X201339045Y-77486904D01*
X201339045Y-77486904D02*
X201434283Y-77486904D01*
X201434283Y-77486904D02*
X201577140Y-77439285D01*
X201577140Y-77439285D02*
X202148569Y-76867857D01*
X202148569Y-76867857D02*
X202148569Y-77486904D01*
X174669174Y-105854819D02*
X174669174Y-104854819D01*
X174669174Y-104854819D02*
X174431079Y-104854819D01*
X174431079Y-104854819D02*
X174288222Y-104902438D01*
X174288222Y-104902438D02*
X174192984Y-104997676D01*
X174192984Y-104997676D02*
X174145365Y-105092914D01*
X174145365Y-105092914D02*
X174097746Y-105283390D01*
X174097746Y-105283390D02*
X174097746Y-105426247D01*
X174097746Y-105426247D02*
X174145365Y-105616723D01*
X174145365Y-105616723D02*
X174192984Y-105711961D01*
X174192984Y-105711961D02*
X174288222Y-105807200D01*
X174288222Y-105807200D02*
X174431079Y-105854819D01*
X174431079Y-105854819D02*
X174669174Y-105854819D01*
X173240603Y-105188152D02*
X173240603Y-105854819D01*
X173478698Y-104807200D02*
X173716793Y-105521485D01*
X173716793Y-105521485D02*
X173097746Y-105521485D01*
X172288222Y-104854819D02*
X172478698Y-104854819D01*
X172478698Y-104854819D02*
X172573936Y-104902438D01*
X172573936Y-104902438D02*
X172621555Y-104950057D01*
X172621555Y-104950057D02*
X172716793Y-105092914D01*
X172716793Y-105092914D02*
X172764412Y-105283390D01*
X172764412Y-105283390D02*
X172764412Y-105664342D01*
X172764412Y-105664342D02*
X172716793Y-105759580D01*
X172716793Y-105759580D02*
X172669174Y-105807200D01*
X172669174Y-105807200D02*
X172573936Y-105854819D01*
X172573936Y-105854819D02*
X172383460Y-105854819D01*
X172383460Y-105854819D02*
X172288222Y-105807200D01*
X172288222Y-105807200D02*
X172240603Y-105759580D01*
X172240603Y-105759580D02*
X172192984Y-105664342D01*
X172192984Y-105664342D02*
X172192984Y-105426247D01*
X172192984Y-105426247D02*
X172240603Y-105331009D01*
X172240603Y-105331009D02*
X172288222Y-105283390D01*
X172288222Y-105283390D02*
X172383460Y-105235771D01*
X172383460Y-105235771D02*
X172573936Y-105235771D01*
X172573936Y-105235771D02*
X172669174Y-105283390D01*
X172669174Y-105283390D02*
X172716793Y-105331009D01*
X172716793Y-105331009D02*
X172764412Y-105426247D01*
X70270535Y-79454819D02*
X70270535Y-78454819D01*
X70270535Y-78454819D02*
X70032440Y-78454819D01*
X70032440Y-78454819D02*
X69889583Y-78502438D01*
X69889583Y-78502438D02*
X69794345Y-78597676D01*
X69794345Y-78597676D02*
X69746726Y-78692914D01*
X69746726Y-78692914D02*
X69699107Y-78883390D01*
X69699107Y-78883390D02*
X69699107Y-79026247D01*
X69699107Y-79026247D02*
X69746726Y-79216723D01*
X69746726Y-79216723D02*
X69794345Y-79311961D01*
X69794345Y-79311961D02*
X69889583Y-79407200D01*
X69889583Y-79407200D02*
X70032440Y-79454819D01*
X70032440Y-79454819D02*
X70270535Y-79454819D01*
X68841964Y-78454819D02*
X69032440Y-78454819D01*
X69032440Y-78454819D02*
X69127678Y-78502438D01*
X69127678Y-78502438D02*
X69175297Y-78550057D01*
X69175297Y-78550057D02*
X69270535Y-78692914D01*
X69270535Y-78692914D02*
X69318154Y-78883390D01*
X69318154Y-78883390D02*
X69318154Y-79264342D01*
X69318154Y-79264342D02*
X69270535Y-79359580D01*
X69270535Y-79359580D02*
X69222916Y-79407200D01*
X69222916Y-79407200D02*
X69127678Y-79454819D01*
X69127678Y-79454819D02*
X68937202Y-79454819D01*
X68937202Y-79454819D02*
X68841964Y-79407200D01*
X68841964Y-79407200D02*
X68794345Y-79359580D01*
X68794345Y-79359580D02*
X68746726Y-79264342D01*
X68746726Y-79264342D02*
X68746726Y-79026247D01*
X68746726Y-79026247D02*
X68794345Y-78931009D01*
X68794345Y-78931009D02*
X68841964Y-78883390D01*
X68841964Y-78883390D02*
X68937202Y-78835771D01*
X68937202Y-78835771D02*
X69127678Y-78835771D01*
X69127678Y-78835771D02*
X69222916Y-78883390D01*
X69222916Y-78883390D02*
X69270535Y-78931009D01*
X69270535Y-78931009D02*
X69318154Y-79026247D01*
X67794345Y-79454819D02*
X68365773Y-79454819D01*
X68080059Y-79454819D02*
X68080059Y-78454819D01*
X68080059Y-78454819D02*
X68175297Y-78597676D01*
X68175297Y-78597676D02*
X68270535Y-78692914D01*
X68270535Y-78692914D02*
X68365773Y-78740533D01*
X259298569Y-56436905D02*
X258298569Y-56436905D01*
X258298569Y-56436905D02*
X258298569Y-56675000D01*
X258298569Y-56675000D02*
X258346188Y-56817857D01*
X258346188Y-56817857D02*
X258441426Y-56913095D01*
X258441426Y-56913095D02*
X258536664Y-56960714D01*
X258536664Y-56960714D02*
X258727140Y-57008333D01*
X258727140Y-57008333D02*
X258869997Y-57008333D01*
X258869997Y-57008333D02*
X259060473Y-56960714D01*
X259060473Y-56960714D02*
X259155711Y-56913095D01*
X259155711Y-56913095D02*
X259250950Y-56817857D01*
X259250950Y-56817857D02*
X259298569Y-56675000D01*
X259298569Y-56675000D02*
X259298569Y-56436905D01*
X258631902Y-57865476D02*
X259298569Y-57865476D01*
X258250950Y-57627381D02*
X258965235Y-57389286D01*
X258965235Y-57389286D02*
X258965235Y-58008333D01*
X51214285Y-43854819D02*
X51214285Y-42854819D01*
X51214285Y-42854819D02*
X50976190Y-42854819D01*
X50976190Y-42854819D02*
X50833333Y-42902438D01*
X50833333Y-42902438D02*
X50738095Y-42997676D01*
X50738095Y-42997676D02*
X50690476Y-43092914D01*
X50690476Y-43092914D02*
X50642857Y-43283390D01*
X50642857Y-43283390D02*
X50642857Y-43426247D01*
X50642857Y-43426247D02*
X50690476Y-43616723D01*
X50690476Y-43616723D02*
X50738095Y-43711961D01*
X50738095Y-43711961D02*
X50833333Y-43807200D01*
X50833333Y-43807200D02*
X50976190Y-43854819D01*
X50976190Y-43854819D02*
X51214285Y-43854819D01*
X50309523Y-42854819D02*
X49642857Y-42854819D01*
X49642857Y-42854819D02*
X50071428Y-43854819D01*
X49214285Y-43854819D02*
X49023809Y-43854819D01*
X49023809Y-43854819D02*
X48928571Y-43807200D01*
X48928571Y-43807200D02*
X48880952Y-43759580D01*
X48880952Y-43759580D02*
X48785714Y-43616723D01*
X48785714Y-43616723D02*
X48738095Y-43426247D01*
X48738095Y-43426247D02*
X48738095Y-43045295D01*
X48738095Y-43045295D02*
X48785714Y-42950057D01*
X48785714Y-42950057D02*
X48833333Y-42902438D01*
X48833333Y-42902438D02*
X48928571Y-42854819D01*
X48928571Y-42854819D02*
X49119047Y-42854819D01*
X49119047Y-42854819D02*
X49214285Y-42902438D01*
X49214285Y-42902438D02*
X49261904Y-42950057D01*
X49261904Y-42950057D02*
X49309523Y-43045295D01*
X49309523Y-43045295D02*
X49309523Y-43283390D01*
X49309523Y-43283390D02*
X49261904Y-43378628D01*
X49261904Y-43378628D02*
X49214285Y-43426247D01*
X49214285Y-43426247D02*
X49119047Y-43473866D01*
X49119047Y-43473866D02*
X48928571Y-43473866D01*
X48928571Y-43473866D02*
X48833333Y-43426247D01*
X48833333Y-43426247D02*
X48785714Y-43378628D01*
X48785714Y-43378628D02*
X48738095Y-43283390D01*
X105941964Y-61532680D02*
X105941964Y-62532680D01*
X105941964Y-62532680D02*
X106180059Y-62532680D01*
X106180059Y-62532680D02*
X106322916Y-62485061D01*
X106322916Y-62485061D02*
X106418154Y-62389823D01*
X106418154Y-62389823D02*
X106465773Y-62294585D01*
X106465773Y-62294585D02*
X106513392Y-62104109D01*
X106513392Y-62104109D02*
X106513392Y-61961252D01*
X106513392Y-61961252D02*
X106465773Y-61770776D01*
X106465773Y-61770776D02*
X106418154Y-61675538D01*
X106418154Y-61675538D02*
X106322916Y-61580300D01*
X106322916Y-61580300D02*
X106180059Y-61532680D01*
X106180059Y-61532680D02*
X105941964Y-61532680D01*
X107370535Y-62532680D02*
X107180059Y-62532680D01*
X107180059Y-62532680D02*
X107084821Y-62485061D01*
X107084821Y-62485061D02*
X107037202Y-62437442D01*
X107037202Y-62437442D02*
X106941964Y-62294585D01*
X106941964Y-62294585D02*
X106894345Y-62104109D01*
X106894345Y-62104109D02*
X106894345Y-61723157D01*
X106894345Y-61723157D02*
X106941964Y-61627919D01*
X106941964Y-61627919D02*
X106989583Y-61580300D01*
X106989583Y-61580300D02*
X107084821Y-61532680D01*
X107084821Y-61532680D02*
X107275297Y-61532680D01*
X107275297Y-61532680D02*
X107370535Y-61580300D01*
X107370535Y-61580300D02*
X107418154Y-61627919D01*
X107418154Y-61627919D02*
X107465773Y-61723157D01*
X107465773Y-61723157D02*
X107465773Y-61961252D01*
X107465773Y-61961252D02*
X107418154Y-62056490D01*
X107418154Y-62056490D02*
X107370535Y-62104109D01*
X107370535Y-62104109D02*
X107275297Y-62151728D01*
X107275297Y-62151728D02*
X107084821Y-62151728D01*
X107084821Y-62151728D02*
X106989583Y-62104109D01*
X106989583Y-62104109D02*
X106941964Y-62056490D01*
X106941964Y-62056490D02*
X106894345Y-61961252D01*
X108322916Y-62532680D02*
X108132440Y-62532680D01*
X108132440Y-62532680D02*
X108037202Y-62485061D01*
X108037202Y-62485061D02*
X107989583Y-62437442D01*
X107989583Y-62437442D02*
X107894345Y-62294585D01*
X107894345Y-62294585D02*
X107846726Y-62104109D01*
X107846726Y-62104109D02*
X107846726Y-61723157D01*
X107846726Y-61723157D02*
X107894345Y-61627919D01*
X107894345Y-61627919D02*
X107941964Y-61580300D01*
X107941964Y-61580300D02*
X108037202Y-61532680D01*
X108037202Y-61532680D02*
X108227678Y-61532680D01*
X108227678Y-61532680D02*
X108322916Y-61580300D01*
X108322916Y-61580300D02*
X108370535Y-61627919D01*
X108370535Y-61627919D02*
X108418154Y-61723157D01*
X108418154Y-61723157D02*
X108418154Y-61961252D01*
X108418154Y-61961252D02*
X108370535Y-62056490D01*
X108370535Y-62056490D02*
X108322916Y-62104109D01*
X108322916Y-62104109D02*
X108227678Y-62151728D01*
X108227678Y-62151728D02*
X108037202Y-62151728D01*
X108037202Y-62151728D02*
X107941964Y-62104109D01*
X107941964Y-62104109D02*
X107894345Y-62056490D01*
X107894345Y-62056490D02*
X107846726Y-61961252D01*
X51214285Y-81854819D02*
X51214285Y-80854819D01*
X51214285Y-80854819D02*
X50976190Y-80854819D01*
X50976190Y-80854819D02*
X50833333Y-80902438D01*
X50833333Y-80902438D02*
X50738095Y-80997676D01*
X50738095Y-80997676D02*
X50690476Y-81092914D01*
X50690476Y-81092914D02*
X50642857Y-81283390D01*
X50642857Y-81283390D02*
X50642857Y-81426247D01*
X50642857Y-81426247D02*
X50690476Y-81616723D01*
X50690476Y-81616723D02*
X50738095Y-81711961D01*
X50738095Y-81711961D02*
X50833333Y-81807200D01*
X50833333Y-81807200D02*
X50976190Y-81854819D01*
X50976190Y-81854819D02*
X51214285Y-81854819D01*
X49785714Y-80854819D02*
X49976190Y-80854819D01*
X49976190Y-80854819D02*
X50071428Y-80902438D01*
X50071428Y-80902438D02*
X50119047Y-80950057D01*
X50119047Y-80950057D02*
X50214285Y-81092914D01*
X50214285Y-81092914D02*
X50261904Y-81283390D01*
X50261904Y-81283390D02*
X50261904Y-81664342D01*
X50261904Y-81664342D02*
X50214285Y-81759580D01*
X50214285Y-81759580D02*
X50166666Y-81807200D01*
X50166666Y-81807200D02*
X50071428Y-81854819D01*
X50071428Y-81854819D02*
X49880952Y-81854819D01*
X49880952Y-81854819D02*
X49785714Y-81807200D01*
X49785714Y-81807200D02*
X49738095Y-81759580D01*
X49738095Y-81759580D02*
X49690476Y-81664342D01*
X49690476Y-81664342D02*
X49690476Y-81426247D01*
X49690476Y-81426247D02*
X49738095Y-81331009D01*
X49738095Y-81331009D02*
X49785714Y-81283390D01*
X49785714Y-81283390D02*
X49880952Y-81235771D01*
X49880952Y-81235771D02*
X50071428Y-81235771D01*
X50071428Y-81235771D02*
X50166666Y-81283390D01*
X50166666Y-81283390D02*
X50214285Y-81331009D01*
X50214285Y-81331009D02*
X50261904Y-81426247D01*
X49357142Y-80854819D02*
X48738095Y-80854819D01*
X48738095Y-80854819D02*
X49071428Y-81235771D01*
X49071428Y-81235771D02*
X48928571Y-81235771D01*
X48928571Y-81235771D02*
X48833333Y-81283390D01*
X48833333Y-81283390D02*
X48785714Y-81331009D01*
X48785714Y-81331009D02*
X48738095Y-81426247D01*
X48738095Y-81426247D02*
X48738095Y-81664342D01*
X48738095Y-81664342D02*
X48785714Y-81759580D01*
X48785714Y-81759580D02*
X48833333Y-81807200D01*
X48833333Y-81807200D02*
X48928571Y-81854819D01*
X48928571Y-81854819D02*
X49214285Y-81854819D01*
X49214285Y-81854819D02*
X49309523Y-81807200D01*
X49309523Y-81807200D02*
X49357142Y-81759580D01*
X248485714Y-80607680D02*
X248485714Y-81607680D01*
X248485714Y-81607680D02*
X248723809Y-81607680D01*
X248723809Y-81607680D02*
X248866666Y-81560061D01*
X248866666Y-81560061D02*
X248961904Y-81464823D01*
X248961904Y-81464823D02*
X249009523Y-81369585D01*
X249009523Y-81369585D02*
X249057142Y-81179109D01*
X249057142Y-81179109D02*
X249057142Y-81036252D01*
X249057142Y-81036252D02*
X249009523Y-80845776D01*
X249009523Y-80845776D02*
X248961904Y-80750538D01*
X248961904Y-80750538D02*
X248866666Y-80655300D01*
X248866666Y-80655300D02*
X248723809Y-80607680D01*
X248723809Y-80607680D02*
X248485714Y-80607680D01*
X249914285Y-81607680D02*
X249723809Y-81607680D01*
X249723809Y-81607680D02*
X249628571Y-81560061D01*
X249628571Y-81560061D02*
X249580952Y-81512442D01*
X249580952Y-81512442D02*
X249485714Y-81369585D01*
X249485714Y-81369585D02*
X249438095Y-81179109D01*
X249438095Y-81179109D02*
X249438095Y-80798157D01*
X249438095Y-80798157D02*
X249485714Y-80702919D01*
X249485714Y-80702919D02*
X249533333Y-80655300D01*
X249533333Y-80655300D02*
X249628571Y-80607680D01*
X249628571Y-80607680D02*
X249819047Y-80607680D01*
X249819047Y-80607680D02*
X249914285Y-80655300D01*
X249914285Y-80655300D02*
X249961904Y-80702919D01*
X249961904Y-80702919D02*
X250009523Y-80798157D01*
X250009523Y-80798157D02*
X250009523Y-81036252D01*
X250009523Y-81036252D02*
X249961904Y-81131490D01*
X249961904Y-81131490D02*
X249914285Y-81179109D01*
X249914285Y-81179109D02*
X249819047Y-81226728D01*
X249819047Y-81226728D02*
X249628571Y-81226728D01*
X249628571Y-81226728D02*
X249533333Y-81179109D01*
X249533333Y-81179109D02*
X249485714Y-81131490D01*
X249485714Y-81131490D02*
X249438095Y-81036252D01*
X250866666Y-81274347D02*
X250866666Y-80607680D01*
X250628571Y-81655300D02*
X250390476Y-80941014D01*
X250390476Y-80941014D02*
X251009523Y-80941014D01*
X89320535Y-76954819D02*
X89320535Y-75954819D01*
X89320535Y-75954819D02*
X89082440Y-75954819D01*
X89082440Y-75954819D02*
X88939583Y-76002438D01*
X88939583Y-76002438D02*
X88844345Y-76097676D01*
X88844345Y-76097676D02*
X88796726Y-76192914D01*
X88796726Y-76192914D02*
X88749107Y-76383390D01*
X88749107Y-76383390D02*
X88749107Y-76526247D01*
X88749107Y-76526247D02*
X88796726Y-76716723D01*
X88796726Y-76716723D02*
X88844345Y-76811961D01*
X88844345Y-76811961D02*
X88939583Y-76907200D01*
X88939583Y-76907200D02*
X89082440Y-76954819D01*
X89082440Y-76954819D02*
X89320535Y-76954819D01*
X87844345Y-75954819D02*
X88320535Y-75954819D01*
X88320535Y-75954819D02*
X88368154Y-76431009D01*
X88368154Y-76431009D02*
X88320535Y-76383390D01*
X88320535Y-76383390D02*
X88225297Y-76335771D01*
X88225297Y-76335771D02*
X87987202Y-76335771D01*
X87987202Y-76335771D02*
X87891964Y-76383390D01*
X87891964Y-76383390D02*
X87844345Y-76431009D01*
X87844345Y-76431009D02*
X87796726Y-76526247D01*
X87796726Y-76526247D02*
X87796726Y-76764342D01*
X87796726Y-76764342D02*
X87844345Y-76859580D01*
X87844345Y-76859580D02*
X87891964Y-76907200D01*
X87891964Y-76907200D02*
X87987202Y-76954819D01*
X87987202Y-76954819D02*
X88225297Y-76954819D01*
X88225297Y-76954819D02*
X88320535Y-76907200D01*
X88320535Y-76907200D02*
X88368154Y-76859580D01*
X87320535Y-76954819D02*
X87130059Y-76954819D01*
X87130059Y-76954819D02*
X87034821Y-76907200D01*
X87034821Y-76907200D02*
X86987202Y-76859580D01*
X86987202Y-76859580D02*
X86891964Y-76716723D01*
X86891964Y-76716723D02*
X86844345Y-76526247D01*
X86844345Y-76526247D02*
X86844345Y-76145295D01*
X86844345Y-76145295D02*
X86891964Y-76050057D01*
X86891964Y-76050057D02*
X86939583Y-76002438D01*
X86939583Y-76002438D02*
X87034821Y-75954819D01*
X87034821Y-75954819D02*
X87225297Y-75954819D01*
X87225297Y-75954819D02*
X87320535Y-76002438D01*
X87320535Y-76002438D02*
X87368154Y-76050057D01*
X87368154Y-76050057D02*
X87415773Y-76145295D01*
X87415773Y-76145295D02*
X87415773Y-76383390D01*
X87415773Y-76383390D02*
X87368154Y-76478628D01*
X87368154Y-76478628D02*
X87320535Y-76526247D01*
X87320535Y-76526247D02*
X87225297Y-76573866D01*
X87225297Y-76573866D02*
X87034821Y-76573866D01*
X87034821Y-76573866D02*
X86939583Y-76526247D01*
X86939583Y-76526247D02*
X86891964Y-76478628D01*
X86891964Y-76478628D02*
X86844345Y-76383390D01*
X248485714Y-42470180D02*
X248485714Y-43470180D01*
X248485714Y-43470180D02*
X248723809Y-43470180D01*
X248723809Y-43470180D02*
X248866666Y-43422561D01*
X248866666Y-43422561D02*
X248961904Y-43327323D01*
X248961904Y-43327323D02*
X249009523Y-43232085D01*
X249009523Y-43232085D02*
X249057142Y-43041609D01*
X249057142Y-43041609D02*
X249057142Y-42898752D01*
X249057142Y-42898752D02*
X249009523Y-42708276D01*
X249009523Y-42708276D02*
X248961904Y-42613038D01*
X248961904Y-42613038D02*
X248866666Y-42517800D01*
X248866666Y-42517800D02*
X248723809Y-42470180D01*
X248723809Y-42470180D02*
X248485714Y-42470180D01*
X249628571Y-43041609D02*
X249533333Y-43089228D01*
X249533333Y-43089228D02*
X249485714Y-43136847D01*
X249485714Y-43136847D02*
X249438095Y-43232085D01*
X249438095Y-43232085D02*
X249438095Y-43279704D01*
X249438095Y-43279704D02*
X249485714Y-43374942D01*
X249485714Y-43374942D02*
X249533333Y-43422561D01*
X249533333Y-43422561D02*
X249628571Y-43470180D01*
X249628571Y-43470180D02*
X249819047Y-43470180D01*
X249819047Y-43470180D02*
X249914285Y-43422561D01*
X249914285Y-43422561D02*
X249961904Y-43374942D01*
X249961904Y-43374942D02*
X250009523Y-43279704D01*
X250009523Y-43279704D02*
X250009523Y-43232085D01*
X250009523Y-43232085D02*
X249961904Y-43136847D01*
X249961904Y-43136847D02*
X249914285Y-43089228D01*
X249914285Y-43089228D02*
X249819047Y-43041609D01*
X249819047Y-43041609D02*
X249628571Y-43041609D01*
X249628571Y-43041609D02*
X249533333Y-42993990D01*
X249533333Y-42993990D02*
X249485714Y-42946371D01*
X249485714Y-42946371D02*
X249438095Y-42851133D01*
X249438095Y-42851133D02*
X249438095Y-42660657D01*
X249438095Y-42660657D02*
X249485714Y-42565419D01*
X249485714Y-42565419D02*
X249533333Y-42517800D01*
X249533333Y-42517800D02*
X249628571Y-42470180D01*
X249628571Y-42470180D02*
X249819047Y-42470180D01*
X249819047Y-42470180D02*
X249914285Y-42517800D01*
X249914285Y-42517800D02*
X249961904Y-42565419D01*
X249961904Y-42565419D02*
X250009523Y-42660657D01*
X250009523Y-42660657D02*
X250009523Y-42851133D01*
X250009523Y-42851133D02*
X249961904Y-42946371D01*
X249961904Y-42946371D02*
X249914285Y-42993990D01*
X249914285Y-42993990D02*
X249819047Y-43041609D01*
X250866666Y-43136847D02*
X250866666Y-42470180D01*
X250628571Y-43517800D02*
X250390476Y-42803514D01*
X250390476Y-42803514D02*
X251009523Y-42803514D01*
X127414285Y-86754819D02*
X127414285Y-85754819D01*
X127414285Y-85754819D02*
X127176190Y-85754819D01*
X127176190Y-85754819D02*
X127033333Y-85802438D01*
X127033333Y-85802438D02*
X126938095Y-85897676D01*
X126938095Y-85897676D02*
X126890476Y-85992914D01*
X126890476Y-85992914D02*
X126842857Y-86183390D01*
X126842857Y-86183390D02*
X126842857Y-86326247D01*
X126842857Y-86326247D02*
X126890476Y-86516723D01*
X126890476Y-86516723D02*
X126938095Y-86611961D01*
X126938095Y-86611961D02*
X127033333Y-86707200D01*
X127033333Y-86707200D02*
X127176190Y-86754819D01*
X127176190Y-86754819D02*
X127414285Y-86754819D01*
X125938095Y-85754819D02*
X126414285Y-85754819D01*
X126414285Y-85754819D02*
X126461904Y-86231009D01*
X126461904Y-86231009D02*
X126414285Y-86183390D01*
X126414285Y-86183390D02*
X126319047Y-86135771D01*
X126319047Y-86135771D02*
X126080952Y-86135771D01*
X126080952Y-86135771D02*
X125985714Y-86183390D01*
X125985714Y-86183390D02*
X125938095Y-86231009D01*
X125938095Y-86231009D02*
X125890476Y-86326247D01*
X125890476Y-86326247D02*
X125890476Y-86564342D01*
X125890476Y-86564342D02*
X125938095Y-86659580D01*
X125938095Y-86659580D02*
X125985714Y-86707200D01*
X125985714Y-86707200D02*
X126080952Y-86754819D01*
X126080952Y-86754819D02*
X126319047Y-86754819D01*
X126319047Y-86754819D02*
X126414285Y-86707200D01*
X126414285Y-86707200D02*
X126461904Y-86659580D01*
X124985714Y-85754819D02*
X125461904Y-85754819D01*
X125461904Y-85754819D02*
X125509523Y-86231009D01*
X125509523Y-86231009D02*
X125461904Y-86183390D01*
X125461904Y-86183390D02*
X125366666Y-86135771D01*
X125366666Y-86135771D02*
X125128571Y-86135771D01*
X125128571Y-86135771D02*
X125033333Y-86183390D01*
X125033333Y-86183390D02*
X124985714Y-86231009D01*
X124985714Y-86231009D02*
X124938095Y-86326247D01*
X124938095Y-86326247D02*
X124938095Y-86564342D01*
X124938095Y-86564342D02*
X124985714Y-86659580D01*
X124985714Y-86659580D02*
X125033333Y-86707200D01*
X125033333Y-86707200D02*
X125128571Y-86754819D01*
X125128571Y-86754819D02*
X125366666Y-86754819D01*
X125366666Y-86754819D02*
X125461904Y-86707200D01*
X125461904Y-86707200D02*
X125509523Y-86659580D01*
X48791964Y-61532680D02*
X48791964Y-62532680D01*
X48791964Y-62532680D02*
X49030059Y-62532680D01*
X49030059Y-62532680D02*
X49172916Y-62485061D01*
X49172916Y-62485061D02*
X49268154Y-62389823D01*
X49268154Y-62389823D02*
X49315773Y-62294585D01*
X49315773Y-62294585D02*
X49363392Y-62104109D01*
X49363392Y-62104109D02*
X49363392Y-61961252D01*
X49363392Y-61961252D02*
X49315773Y-61770776D01*
X49315773Y-61770776D02*
X49268154Y-61675538D01*
X49268154Y-61675538D02*
X49172916Y-61580300D01*
X49172916Y-61580300D02*
X49030059Y-61532680D01*
X49030059Y-61532680D02*
X48791964Y-61532680D01*
X50220535Y-62532680D02*
X50030059Y-62532680D01*
X50030059Y-62532680D02*
X49934821Y-62485061D01*
X49934821Y-62485061D02*
X49887202Y-62437442D01*
X49887202Y-62437442D02*
X49791964Y-62294585D01*
X49791964Y-62294585D02*
X49744345Y-62104109D01*
X49744345Y-62104109D02*
X49744345Y-61723157D01*
X49744345Y-61723157D02*
X49791964Y-61627919D01*
X49791964Y-61627919D02*
X49839583Y-61580300D01*
X49839583Y-61580300D02*
X49934821Y-61532680D01*
X49934821Y-61532680D02*
X50125297Y-61532680D01*
X50125297Y-61532680D02*
X50220535Y-61580300D01*
X50220535Y-61580300D02*
X50268154Y-61627919D01*
X50268154Y-61627919D02*
X50315773Y-61723157D01*
X50315773Y-61723157D02*
X50315773Y-61961252D01*
X50315773Y-61961252D02*
X50268154Y-62056490D01*
X50268154Y-62056490D02*
X50220535Y-62104109D01*
X50220535Y-62104109D02*
X50125297Y-62151728D01*
X50125297Y-62151728D02*
X49934821Y-62151728D01*
X49934821Y-62151728D02*
X49839583Y-62104109D01*
X49839583Y-62104109D02*
X49791964Y-62056490D01*
X49791964Y-62056490D02*
X49744345Y-61961252D01*
X50791964Y-61532680D02*
X50982440Y-61532680D01*
X50982440Y-61532680D02*
X51077678Y-61580300D01*
X51077678Y-61580300D02*
X51125297Y-61627919D01*
X51125297Y-61627919D02*
X51220535Y-61770776D01*
X51220535Y-61770776D02*
X51268154Y-61961252D01*
X51268154Y-61961252D02*
X51268154Y-62342204D01*
X51268154Y-62342204D02*
X51220535Y-62437442D01*
X51220535Y-62437442D02*
X51172916Y-62485061D01*
X51172916Y-62485061D02*
X51077678Y-62532680D01*
X51077678Y-62532680D02*
X50887202Y-62532680D01*
X50887202Y-62532680D02*
X50791964Y-62485061D01*
X50791964Y-62485061D02*
X50744345Y-62437442D01*
X50744345Y-62437442D02*
X50696726Y-62342204D01*
X50696726Y-62342204D02*
X50696726Y-62104109D01*
X50696726Y-62104109D02*
X50744345Y-62008871D01*
X50744345Y-62008871D02*
X50791964Y-61961252D01*
X50791964Y-61961252D02*
X50887202Y-61913633D01*
X50887202Y-61913633D02*
X51077678Y-61913633D01*
X51077678Y-61913633D02*
X51172916Y-61961252D01*
X51172916Y-61961252D02*
X51220535Y-62008871D01*
X51220535Y-62008871D02*
X51268154Y-62104109D01*
X259298569Y-37386905D02*
X258298569Y-37386905D01*
X258298569Y-37386905D02*
X258298569Y-37625000D01*
X258298569Y-37625000D02*
X258346188Y-37767857D01*
X258346188Y-37767857D02*
X258441426Y-37863095D01*
X258441426Y-37863095D02*
X258536664Y-37910714D01*
X258536664Y-37910714D02*
X258727140Y-37958333D01*
X258727140Y-37958333D02*
X258869997Y-37958333D01*
X258869997Y-37958333D02*
X259060473Y-37910714D01*
X259060473Y-37910714D02*
X259155711Y-37863095D01*
X259155711Y-37863095D02*
X259250950Y-37767857D01*
X259250950Y-37767857D02*
X259298569Y-37625000D01*
X259298569Y-37625000D02*
X259298569Y-37386905D01*
X258393807Y-38339286D02*
X258346188Y-38386905D01*
X258346188Y-38386905D02*
X258298569Y-38482143D01*
X258298569Y-38482143D02*
X258298569Y-38720238D01*
X258298569Y-38720238D02*
X258346188Y-38815476D01*
X258346188Y-38815476D02*
X258393807Y-38863095D01*
X258393807Y-38863095D02*
X258489045Y-38910714D01*
X258489045Y-38910714D02*
X258584283Y-38910714D01*
X258584283Y-38910714D02*
X258727140Y-38863095D01*
X258727140Y-38863095D02*
X259298569Y-38291667D01*
X259298569Y-38291667D02*
X259298569Y-38910714D01*
X240104819Y-53666964D02*
X239104819Y-53666964D01*
X239104819Y-53666964D02*
X239104819Y-53905059D01*
X239104819Y-53905059D02*
X239152438Y-54047916D01*
X239152438Y-54047916D02*
X239247676Y-54143154D01*
X239247676Y-54143154D02*
X239342914Y-54190773D01*
X239342914Y-54190773D02*
X239533390Y-54238392D01*
X239533390Y-54238392D02*
X239676247Y-54238392D01*
X239676247Y-54238392D02*
X239866723Y-54190773D01*
X239866723Y-54190773D02*
X239961961Y-54143154D01*
X239961961Y-54143154D02*
X240057200Y-54047916D01*
X240057200Y-54047916D02*
X240104819Y-53905059D01*
X240104819Y-53905059D02*
X240104819Y-53666964D01*
X239200057Y-54619345D02*
X239152438Y-54666964D01*
X239152438Y-54666964D02*
X239104819Y-54762202D01*
X239104819Y-54762202D02*
X239104819Y-55000297D01*
X239104819Y-55000297D02*
X239152438Y-55095535D01*
X239152438Y-55095535D02*
X239200057Y-55143154D01*
X239200057Y-55143154D02*
X239295295Y-55190773D01*
X239295295Y-55190773D02*
X239390533Y-55190773D01*
X239390533Y-55190773D02*
X239533390Y-55143154D01*
X239533390Y-55143154D02*
X240104819Y-54571726D01*
X240104819Y-54571726D02*
X240104819Y-55190773D01*
X239104819Y-56047916D02*
X239104819Y-55857440D01*
X239104819Y-55857440D02*
X239152438Y-55762202D01*
X239152438Y-55762202D02*
X239200057Y-55714583D01*
X239200057Y-55714583D02*
X239342914Y-55619345D01*
X239342914Y-55619345D02*
X239533390Y-55571726D01*
X239533390Y-55571726D02*
X239914342Y-55571726D01*
X239914342Y-55571726D02*
X240009580Y-55619345D01*
X240009580Y-55619345D02*
X240057200Y-55666964D01*
X240057200Y-55666964D02*
X240104819Y-55762202D01*
X240104819Y-55762202D02*
X240104819Y-55952678D01*
X240104819Y-55952678D02*
X240057200Y-56047916D01*
X240057200Y-56047916D02*
X240009580Y-56095535D01*
X240009580Y-56095535D02*
X239914342Y-56143154D01*
X239914342Y-56143154D02*
X239676247Y-56143154D01*
X239676247Y-56143154D02*
X239581009Y-56095535D01*
X239581009Y-56095535D02*
X239533390Y-56047916D01*
X239533390Y-56047916D02*
X239485771Y-55952678D01*
X239485771Y-55952678D02*
X239485771Y-55762202D01*
X239485771Y-55762202D02*
X239533390Y-55666964D01*
X239533390Y-55666964D02*
X239581009Y-55619345D01*
X239581009Y-55619345D02*
X239676247Y-55571726D01*
X191335714Y-42507680D02*
X191335714Y-43507680D01*
X191335714Y-43507680D02*
X191573809Y-43507680D01*
X191573809Y-43507680D02*
X191716666Y-43460061D01*
X191716666Y-43460061D02*
X191811904Y-43364823D01*
X191811904Y-43364823D02*
X191859523Y-43269585D01*
X191859523Y-43269585D02*
X191907142Y-43079109D01*
X191907142Y-43079109D02*
X191907142Y-42936252D01*
X191907142Y-42936252D02*
X191859523Y-42745776D01*
X191859523Y-42745776D02*
X191811904Y-42650538D01*
X191811904Y-42650538D02*
X191716666Y-42555300D01*
X191716666Y-42555300D02*
X191573809Y-42507680D01*
X191573809Y-42507680D02*
X191335714Y-42507680D01*
X192478571Y-43079109D02*
X192383333Y-43126728D01*
X192383333Y-43126728D02*
X192335714Y-43174347D01*
X192335714Y-43174347D02*
X192288095Y-43269585D01*
X192288095Y-43269585D02*
X192288095Y-43317204D01*
X192288095Y-43317204D02*
X192335714Y-43412442D01*
X192335714Y-43412442D02*
X192383333Y-43460061D01*
X192383333Y-43460061D02*
X192478571Y-43507680D01*
X192478571Y-43507680D02*
X192669047Y-43507680D01*
X192669047Y-43507680D02*
X192764285Y-43460061D01*
X192764285Y-43460061D02*
X192811904Y-43412442D01*
X192811904Y-43412442D02*
X192859523Y-43317204D01*
X192859523Y-43317204D02*
X192859523Y-43269585D01*
X192859523Y-43269585D02*
X192811904Y-43174347D01*
X192811904Y-43174347D02*
X192764285Y-43126728D01*
X192764285Y-43126728D02*
X192669047Y-43079109D01*
X192669047Y-43079109D02*
X192478571Y-43079109D01*
X192478571Y-43079109D02*
X192383333Y-43031490D01*
X192383333Y-43031490D02*
X192335714Y-42983871D01*
X192335714Y-42983871D02*
X192288095Y-42888633D01*
X192288095Y-42888633D02*
X192288095Y-42698157D01*
X192288095Y-42698157D02*
X192335714Y-42602919D01*
X192335714Y-42602919D02*
X192383333Y-42555300D01*
X192383333Y-42555300D02*
X192478571Y-42507680D01*
X192478571Y-42507680D02*
X192669047Y-42507680D01*
X192669047Y-42507680D02*
X192764285Y-42555300D01*
X192764285Y-42555300D02*
X192811904Y-42602919D01*
X192811904Y-42602919D02*
X192859523Y-42698157D01*
X192859523Y-42698157D02*
X192859523Y-42888633D01*
X192859523Y-42888633D02*
X192811904Y-42983871D01*
X192811904Y-42983871D02*
X192764285Y-43031490D01*
X192764285Y-43031490D02*
X192669047Y-43079109D01*
X193811904Y-42507680D02*
X193240476Y-42507680D01*
X193526190Y-42507680D02*
X193526190Y-43507680D01*
X193526190Y-43507680D02*
X193430952Y-43364823D01*
X193430952Y-43364823D02*
X193335714Y-43269585D01*
X193335714Y-43269585D02*
X193240476Y-43221966D01*
X59604819Y-75461905D02*
X58604819Y-75461905D01*
X58604819Y-75461905D02*
X58604819Y-75700000D01*
X58604819Y-75700000D02*
X58652438Y-75842857D01*
X58652438Y-75842857D02*
X58747676Y-75938095D01*
X58747676Y-75938095D02*
X58842914Y-75985714D01*
X58842914Y-75985714D02*
X59033390Y-76033333D01*
X59033390Y-76033333D02*
X59176247Y-76033333D01*
X59176247Y-76033333D02*
X59366723Y-75985714D01*
X59366723Y-75985714D02*
X59461961Y-75938095D01*
X59461961Y-75938095D02*
X59557200Y-75842857D01*
X59557200Y-75842857D02*
X59604819Y-75700000D01*
X59604819Y-75700000D02*
X59604819Y-75461905D01*
X58604819Y-76938095D02*
X58604819Y-76461905D01*
X58604819Y-76461905D02*
X59081009Y-76414286D01*
X59081009Y-76414286D02*
X59033390Y-76461905D01*
X59033390Y-76461905D02*
X58985771Y-76557143D01*
X58985771Y-76557143D02*
X58985771Y-76795238D01*
X58985771Y-76795238D02*
X59033390Y-76890476D01*
X59033390Y-76890476D02*
X59081009Y-76938095D01*
X59081009Y-76938095D02*
X59176247Y-76985714D01*
X59176247Y-76985714D02*
X59414342Y-76985714D01*
X59414342Y-76985714D02*
X59509580Y-76938095D01*
X59509580Y-76938095D02*
X59557200Y-76890476D01*
X59557200Y-76890476D02*
X59604819Y-76795238D01*
X59604819Y-76795238D02*
X59604819Y-76557143D01*
X59604819Y-76557143D02*
X59557200Y-76461905D01*
X59557200Y-76461905D02*
X59509580Y-76414286D01*
X59048569Y-37624405D02*
X58048569Y-37624405D01*
X58048569Y-37624405D02*
X58048569Y-37862500D01*
X58048569Y-37862500D02*
X58096188Y-38005357D01*
X58096188Y-38005357D02*
X58191426Y-38100595D01*
X58191426Y-38100595D02*
X58286664Y-38148214D01*
X58286664Y-38148214D02*
X58477140Y-38195833D01*
X58477140Y-38195833D02*
X58619997Y-38195833D01*
X58619997Y-38195833D02*
X58810473Y-38148214D01*
X58810473Y-38148214D02*
X58905711Y-38100595D01*
X58905711Y-38100595D02*
X59000950Y-38005357D01*
X59000950Y-38005357D02*
X59048569Y-37862500D01*
X59048569Y-37862500D02*
X59048569Y-37624405D01*
X59048569Y-39148214D02*
X59048569Y-38576786D01*
X59048569Y-38862500D02*
X58048569Y-38862500D01*
X58048569Y-38862500D02*
X58191426Y-38767262D01*
X58191426Y-38767262D02*
X58286664Y-38672024D01*
X58286664Y-38672024D02*
X58334283Y-38576786D01*
X97704819Y-51173214D02*
X96704819Y-51173214D01*
X96704819Y-51173214D02*
X96704819Y-51411309D01*
X96704819Y-51411309D02*
X96752438Y-51554166D01*
X96752438Y-51554166D02*
X96847676Y-51649404D01*
X96847676Y-51649404D02*
X96942914Y-51697023D01*
X96942914Y-51697023D02*
X97133390Y-51744642D01*
X97133390Y-51744642D02*
X97276247Y-51744642D01*
X97276247Y-51744642D02*
X97466723Y-51697023D01*
X97466723Y-51697023D02*
X97561961Y-51649404D01*
X97561961Y-51649404D02*
X97657200Y-51554166D01*
X97657200Y-51554166D02*
X97704819Y-51411309D01*
X97704819Y-51411309D02*
X97704819Y-51173214D01*
X96800057Y-52125595D02*
X96752438Y-52173214D01*
X96752438Y-52173214D02*
X96704819Y-52268452D01*
X96704819Y-52268452D02*
X96704819Y-52506547D01*
X96704819Y-52506547D02*
X96752438Y-52601785D01*
X96752438Y-52601785D02*
X96800057Y-52649404D01*
X96800057Y-52649404D02*
X96895295Y-52697023D01*
X96895295Y-52697023D02*
X96990533Y-52697023D01*
X96990533Y-52697023D02*
X97133390Y-52649404D01*
X97133390Y-52649404D02*
X97704819Y-52077976D01*
X97704819Y-52077976D02*
X97704819Y-52697023D01*
X96704819Y-53030357D02*
X96704819Y-53697023D01*
X96704819Y-53697023D02*
X97704819Y-53268452D01*
X108214285Y-82054819D02*
X108214285Y-81054819D01*
X108214285Y-81054819D02*
X107976190Y-81054819D01*
X107976190Y-81054819D02*
X107833333Y-81102438D01*
X107833333Y-81102438D02*
X107738095Y-81197676D01*
X107738095Y-81197676D02*
X107690476Y-81292914D01*
X107690476Y-81292914D02*
X107642857Y-81483390D01*
X107642857Y-81483390D02*
X107642857Y-81626247D01*
X107642857Y-81626247D02*
X107690476Y-81816723D01*
X107690476Y-81816723D02*
X107738095Y-81911961D01*
X107738095Y-81911961D02*
X107833333Y-82007200D01*
X107833333Y-82007200D02*
X107976190Y-82054819D01*
X107976190Y-82054819D02*
X108214285Y-82054819D01*
X106738095Y-81054819D02*
X107214285Y-81054819D01*
X107214285Y-81054819D02*
X107261904Y-81531009D01*
X107261904Y-81531009D02*
X107214285Y-81483390D01*
X107214285Y-81483390D02*
X107119047Y-81435771D01*
X107119047Y-81435771D02*
X106880952Y-81435771D01*
X106880952Y-81435771D02*
X106785714Y-81483390D01*
X106785714Y-81483390D02*
X106738095Y-81531009D01*
X106738095Y-81531009D02*
X106690476Y-81626247D01*
X106690476Y-81626247D02*
X106690476Y-81864342D01*
X106690476Y-81864342D02*
X106738095Y-81959580D01*
X106738095Y-81959580D02*
X106785714Y-82007200D01*
X106785714Y-82007200D02*
X106880952Y-82054819D01*
X106880952Y-82054819D02*
X107119047Y-82054819D01*
X107119047Y-82054819D02*
X107214285Y-82007200D01*
X107214285Y-82007200D02*
X107261904Y-81959580D01*
X106357142Y-81054819D02*
X105690476Y-81054819D01*
X105690476Y-81054819D02*
X106119047Y-82054819D01*
X193764285Y-63154819D02*
X193764285Y-62154819D01*
X193764285Y-62154819D02*
X193526190Y-62154819D01*
X193526190Y-62154819D02*
X193383333Y-62202438D01*
X193383333Y-62202438D02*
X193288095Y-62297676D01*
X193288095Y-62297676D02*
X193240476Y-62392914D01*
X193240476Y-62392914D02*
X193192857Y-62583390D01*
X193192857Y-62583390D02*
X193192857Y-62726247D01*
X193192857Y-62726247D02*
X193240476Y-62916723D01*
X193240476Y-62916723D02*
X193288095Y-63011961D01*
X193288095Y-63011961D02*
X193383333Y-63107200D01*
X193383333Y-63107200D02*
X193526190Y-63154819D01*
X193526190Y-63154819D02*
X193764285Y-63154819D01*
X192859523Y-62154819D02*
X192192857Y-62154819D01*
X192192857Y-62154819D02*
X192621428Y-63154819D01*
X191288095Y-63154819D02*
X191859523Y-63154819D01*
X191573809Y-63154819D02*
X191573809Y-62154819D01*
X191573809Y-62154819D02*
X191669047Y-62297676D01*
X191669047Y-62297676D02*
X191764285Y-62392914D01*
X191764285Y-62392914D02*
X191859523Y-62440533D01*
X250914285Y-63154819D02*
X250914285Y-62154819D01*
X250914285Y-62154819D02*
X250676190Y-62154819D01*
X250676190Y-62154819D02*
X250533333Y-62202438D01*
X250533333Y-62202438D02*
X250438095Y-62297676D01*
X250438095Y-62297676D02*
X250390476Y-62392914D01*
X250390476Y-62392914D02*
X250342857Y-62583390D01*
X250342857Y-62583390D02*
X250342857Y-62726247D01*
X250342857Y-62726247D02*
X250390476Y-62916723D01*
X250390476Y-62916723D02*
X250438095Y-63011961D01*
X250438095Y-63011961D02*
X250533333Y-63107200D01*
X250533333Y-63107200D02*
X250676190Y-63154819D01*
X250676190Y-63154819D02*
X250914285Y-63154819D01*
X250009523Y-62154819D02*
X249342857Y-62154819D01*
X249342857Y-62154819D02*
X249771428Y-63154819D01*
X248533333Y-62488152D02*
X248533333Y-63154819D01*
X248771428Y-62107200D02*
X249009523Y-62821485D01*
X249009523Y-62821485D02*
X248390476Y-62821485D01*
X70314285Y-41454819D02*
X70314285Y-40454819D01*
X70314285Y-40454819D02*
X70076190Y-40454819D01*
X70076190Y-40454819D02*
X69933333Y-40502438D01*
X69933333Y-40502438D02*
X69838095Y-40597676D01*
X69838095Y-40597676D02*
X69790476Y-40692914D01*
X69790476Y-40692914D02*
X69742857Y-40883390D01*
X69742857Y-40883390D02*
X69742857Y-41026247D01*
X69742857Y-41026247D02*
X69790476Y-41216723D01*
X69790476Y-41216723D02*
X69838095Y-41311961D01*
X69838095Y-41311961D02*
X69933333Y-41407200D01*
X69933333Y-41407200D02*
X70076190Y-41454819D01*
X70076190Y-41454819D02*
X70314285Y-41454819D01*
X69409523Y-40454819D02*
X68742857Y-40454819D01*
X68742857Y-40454819D02*
X69171428Y-41454819D01*
X68219047Y-40883390D02*
X68314285Y-40835771D01*
X68314285Y-40835771D02*
X68361904Y-40788152D01*
X68361904Y-40788152D02*
X68409523Y-40692914D01*
X68409523Y-40692914D02*
X68409523Y-40645295D01*
X68409523Y-40645295D02*
X68361904Y-40550057D01*
X68361904Y-40550057D02*
X68314285Y-40502438D01*
X68314285Y-40502438D02*
X68219047Y-40454819D01*
X68219047Y-40454819D02*
X68028571Y-40454819D01*
X68028571Y-40454819D02*
X67933333Y-40502438D01*
X67933333Y-40502438D02*
X67885714Y-40550057D01*
X67885714Y-40550057D02*
X67838095Y-40645295D01*
X67838095Y-40645295D02*
X67838095Y-40692914D01*
X67838095Y-40692914D02*
X67885714Y-40788152D01*
X67885714Y-40788152D02*
X67933333Y-40835771D01*
X67933333Y-40835771D02*
X68028571Y-40883390D01*
X68028571Y-40883390D02*
X68219047Y-40883390D01*
X68219047Y-40883390D02*
X68314285Y-40931009D01*
X68314285Y-40931009D02*
X68361904Y-40978628D01*
X68361904Y-40978628D02*
X68409523Y-41073866D01*
X68409523Y-41073866D02*
X68409523Y-41264342D01*
X68409523Y-41264342D02*
X68361904Y-41359580D01*
X68361904Y-41359580D02*
X68314285Y-41407200D01*
X68314285Y-41407200D02*
X68219047Y-41454819D01*
X68219047Y-41454819D02*
X68028571Y-41454819D01*
X68028571Y-41454819D02*
X67933333Y-41407200D01*
X67933333Y-41407200D02*
X67885714Y-41359580D01*
X67885714Y-41359580D02*
X67838095Y-41264342D01*
X67838095Y-41264342D02*
X67838095Y-41073866D01*
X67838095Y-41073866D02*
X67885714Y-40978628D01*
X67885714Y-40978628D02*
X67933333Y-40931009D01*
X67933333Y-40931009D02*
X68028571Y-40883390D01*
X127314285Y-48654819D02*
X127314285Y-47654819D01*
X127314285Y-47654819D02*
X127076190Y-47654819D01*
X127076190Y-47654819D02*
X126933333Y-47702438D01*
X126933333Y-47702438D02*
X126838095Y-47797676D01*
X126838095Y-47797676D02*
X126790476Y-47892914D01*
X126790476Y-47892914D02*
X126742857Y-48083390D01*
X126742857Y-48083390D02*
X126742857Y-48226247D01*
X126742857Y-48226247D02*
X126790476Y-48416723D01*
X126790476Y-48416723D02*
X126838095Y-48511961D01*
X126838095Y-48511961D02*
X126933333Y-48607200D01*
X126933333Y-48607200D02*
X127076190Y-48654819D01*
X127076190Y-48654819D02*
X127314285Y-48654819D01*
X126409523Y-47654819D02*
X125742857Y-47654819D01*
X125742857Y-47654819D02*
X126171428Y-48654819D01*
X124885714Y-47654819D02*
X125361904Y-47654819D01*
X125361904Y-47654819D02*
X125409523Y-48131009D01*
X125409523Y-48131009D02*
X125361904Y-48083390D01*
X125361904Y-48083390D02*
X125266666Y-48035771D01*
X125266666Y-48035771D02*
X125028571Y-48035771D01*
X125028571Y-48035771D02*
X124933333Y-48083390D01*
X124933333Y-48083390D02*
X124885714Y-48131009D01*
X124885714Y-48131009D02*
X124838095Y-48226247D01*
X124838095Y-48226247D02*
X124838095Y-48464342D01*
X124838095Y-48464342D02*
X124885714Y-48559580D01*
X124885714Y-48559580D02*
X124933333Y-48607200D01*
X124933333Y-48607200D02*
X125028571Y-48654819D01*
X125028571Y-48654819D02*
X125266666Y-48654819D01*
X125266666Y-48654819D02*
X125361904Y-48607200D01*
X125361904Y-48607200D02*
X125409523Y-48559580D01*
X183098569Y-60723214D02*
X182098569Y-60723214D01*
X182098569Y-60723214D02*
X182098569Y-60961309D01*
X182098569Y-60961309D02*
X182146188Y-61104166D01*
X182146188Y-61104166D02*
X182241426Y-61199404D01*
X182241426Y-61199404D02*
X182336664Y-61247023D01*
X182336664Y-61247023D02*
X182527140Y-61294642D01*
X182527140Y-61294642D02*
X182669997Y-61294642D01*
X182669997Y-61294642D02*
X182860473Y-61247023D01*
X182860473Y-61247023D02*
X182955711Y-61199404D01*
X182955711Y-61199404D02*
X183050950Y-61104166D01*
X183050950Y-61104166D02*
X183098569Y-60961309D01*
X183098569Y-60961309D02*
X183098569Y-60723214D01*
X182098569Y-61627976D02*
X182098569Y-62247023D01*
X182098569Y-62247023D02*
X182479521Y-61913690D01*
X182479521Y-61913690D02*
X182479521Y-62056547D01*
X182479521Y-62056547D02*
X182527140Y-62151785D01*
X182527140Y-62151785D02*
X182574759Y-62199404D01*
X182574759Y-62199404D02*
X182669997Y-62247023D01*
X182669997Y-62247023D02*
X182908092Y-62247023D01*
X182908092Y-62247023D02*
X183003330Y-62199404D01*
X183003330Y-62199404D02*
X183050950Y-62151785D01*
X183050950Y-62151785D02*
X183098569Y-62056547D01*
X183098569Y-62056547D02*
X183098569Y-61770833D01*
X183098569Y-61770833D02*
X183050950Y-61675595D01*
X183050950Y-61675595D02*
X183003330Y-61627976D01*
X182193807Y-62627976D02*
X182146188Y-62675595D01*
X182146188Y-62675595D02*
X182098569Y-62770833D01*
X182098569Y-62770833D02*
X182098569Y-63008928D01*
X182098569Y-63008928D02*
X182146188Y-63104166D01*
X182146188Y-63104166D02*
X182193807Y-63151785D01*
X182193807Y-63151785D02*
X182289045Y-63199404D01*
X182289045Y-63199404D02*
X182384283Y-63199404D01*
X182384283Y-63199404D02*
X182527140Y-63151785D01*
X182527140Y-63151785D02*
X183098569Y-62580357D01*
X183098569Y-62580357D02*
X183098569Y-63199404D01*
X212814285Y-58392319D02*
X212814285Y-57392319D01*
X212814285Y-57392319D02*
X212576190Y-57392319D01*
X212576190Y-57392319D02*
X212433333Y-57439938D01*
X212433333Y-57439938D02*
X212338095Y-57535176D01*
X212338095Y-57535176D02*
X212290476Y-57630414D01*
X212290476Y-57630414D02*
X212242857Y-57820890D01*
X212242857Y-57820890D02*
X212242857Y-57963747D01*
X212242857Y-57963747D02*
X212290476Y-58154223D01*
X212290476Y-58154223D02*
X212338095Y-58249461D01*
X212338095Y-58249461D02*
X212433333Y-58344700D01*
X212433333Y-58344700D02*
X212576190Y-58392319D01*
X212576190Y-58392319D02*
X212814285Y-58392319D01*
X211909523Y-57392319D02*
X211242857Y-57392319D01*
X211242857Y-57392319D02*
X211671428Y-58392319D01*
X210909523Y-57487557D02*
X210861904Y-57439938D01*
X210861904Y-57439938D02*
X210766666Y-57392319D01*
X210766666Y-57392319D02*
X210528571Y-57392319D01*
X210528571Y-57392319D02*
X210433333Y-57439938D01*
X210433333Y-57439938D02*
X210385714Y-57487557D01*
X210385714Y-57487557D02*
X210338095Y-57582795D01*
X210338095Y-57582795D02*
X210338095Y-57678033D01*
X210338095Y-57678033D02*
X210385714Y-57820890D01*
X210385714Y-57820890D02*
X210957142Y-58392319D01*
X210957142Y-58392319D02*
X210338095Y-58392319D01*
X193719174Y-101092319D02*
X193719174Y-100092319D01*
X193719174Y-100092319D02*
X193481079Y-100092319D01*
X193481079Y-100092319D02*
X193338222Y-100139938D01*
X193338222Y-100139938D02*
X193242984Y-100235176D01*
X193242984Y-100235176D02*
X193195365Y-100330414D01*
X193195365Y-100330414D02*
X193147746Y-100520890D01*
X193147746Y-100520890D02*
X193147746Y-100663747D01*
X193147746Y-100663747D02*
X193195365Y-100854223D01*
X193195365Y-100854223D02*
X193242984Y-100949461D01*
X193242984Y-100949461D02*
X193338222Y-101044700D01*
X193338222Y-101044700D02*
X193481079Y-101092319D01*
X193481079Y-101092319D02*
X193719174Y-101092319D01*
X192242984Y-100092319D02*
X192719174Y-100092319D01*
X192719174Y-100092319D02*
X192766793Y-100568509D01*
X192766793Y-100568509D02*
X192719174Y-100520890D01*
X192719174Y-100520890D02*
X192623936Y-100473271D01*
X192623936Y-100473271D02*
X192385841Y-100473271D01*
X192385841Y-100473271D02*
X192290603Y-100520890D01*
X192290603Y-100520890D02*
X192242984Y-100568509D01*
X192242984Y-100568509D02*
X192195365Y-100663747D01*
X192195365Y-100663747D02*
X192195365Y-100901842D01*
X192195365Y-100901842D02*
X192242984Y-100997080D01*
X192242984Y-100997080D02*
X192290603Y-101044700D01*
X192290603Y-101044700D02*
X192385841Y-101092319D01*
X192385841Y-101092319D02*
X192623936Y-101092319D01*
X192623936Y-101092319D02*
X192719174Y-101044700D01*
X192719174Y-101044700D02*
X192766793Y-100997080D01*
X191338222Y-100425652D02*
X191338222Y-101092319D01*
X191576317Y-100044700D02*
X191814412Y-100758985D01*
X191814412Y-100758985D02*
X191195365Y-100758985D01*
X272085498Y-115742699D02*
X272427518Y-114803006D01*
X272427518Y-114803006D02*
X272203781Y-114721573D01*
X272203781Y-114721573D02*
X272053253Y-114717460D01*
X272053253Y-114717460D02*
X271931185Y-114774381D01*
X271931185Y-114774381D02*
X271853864Y-114847589D01*
X271853864Y-114847589D02*
X271743970Y-115010291D01*
X271743970Y-115010291D02*
X271695110Y-115144533D01*
X271695110Y-115144533D02*
X271674711Y-115339809D01*
X271674711Y-115339809D02*
X271686885Y-115445590D01*
X271686885Y-115445590D02*
X271743806Y-115567658D01*
X271743806Y-115567658D02*
X271861761Y-115661265D01*
X271861761Y-115661265D02*
X272085498Y-115742699D01*
X270971093Y-114627637D02*
X270743080Y-115254099D01*
X271325123Y-114351092D02*
X271304559Y-115103734D01*
X271304559Y-115103734D02*
X270722844Y-114892008D01*
X270076148Y-114301903D02*
X269848134Y-114928365D01*
X270430177Y-114025359D02*
X270409614Y-114778001D01*
X270409614Y-114778001D02*
X269827899Y-114566274D01*
X124991964Y-104395180D02*
X124991964Y-105395180D01*
X124991964Y-105395180D02*
X125230059Y-105395180D01*
X125230059Y-105395180D02*
X125372916Y-105347561D01*
X125372916Y-105347561D02*
X125468154Y-105252323D01*
X125468154Y-105252323D02*
X125515773Y-105157085D01*
X125515773Y-105157085D02*
X125563392Y-104966609D01*
X125563392Y-104966609D02*
X125563392Y-104823752D01*
X125563392Y-104823752D02*
X125515773Y-104633276D01*
X125515773Y-104633276D02*
X125468154Y-104538038D01*
X125468154Y-104538038D02*
X125372916Y-104442800D01*
X125372916Y-104442800D02*
X125230059Y-104395180D01*
X125230059Y-104395180D02*
X124991964Y-104395180D01*
X126420535Y-105061847D02*
X126420535Y-104395180D01*
X126182440Y-105442800D02*
X125944345Y-104728514D01*
X125944345Y-104728514D02*
X126563392Y-104728514D01*
X127420535Y-105395180D02*
X126944345Y-105395180D01*
X126944345Y-105395180D02*
X126896726Y-104918990D01*
X126896726Y-104918990D02*
X126944345Y-104966609D01*
X126944345Y-104966609D02*
X127039583Y-105014228D01*
X127039583Y-105014228D02*
X127277678Y-105014228D01*
X127277678Y-105014228D02*
X127372916Y-104966609D01*
X127372916Y-104966609D02*
X127420535Y-104918990D01*
X127420535Y-104918990D02*
X127468154Y-104823752D01*
X127468154Y-104823752D02*
X127468154Y-104585657D01*
X127468154Y-104585657D02*
X127420535Y-104490419D01*
X127420535Y-104490419D02*
X127372916Y-104442800D01*
X127372916Y-104442800D02*
X127277678Y-104395180D01*
X127277678Y-104395180D02*
X127039583Y-104395180D01*
X127039583Y-104395180D02*
X126944345Y-104442800D01*
X126944345Y-104442800D02*
X126896726Y-104490419D01*
X135804819Y-79748214D02*
X134804819Y-79748214D01*
X134804819Y-79748214D02*
X134804819Y-79986309D01*
X134804819Y-79986309D02*
X134852438Y-80129166D01*
X134852438Y-80129166D02*
X134947676Y-80224404D01*
X134947676Y-80224404D02*
X135042914Y-80272023D01*
X135042914Y-80272023D02*
X135233390Y-80319642D01*
X135233390Y-80319642D02*
X135376247Y-80319642D01*
X135376247Y-80319642D02*
X135566723Y-80272023D01*
X135566723Y-80272023D02*
X135661961Y-80224404D01*
X135661961Y-80224404D02*
X135757200Y-80129166D01*
X135757200Y-80129166D02*
X135804819Y-79986309D01*
X135804819Y-79986309D02*
X135804819Y-79748214D01*
X134900057Y-80700595D02*
X134852438Y-80748214D01*
X134852438Y-80748214D02*
X134804819Y-80843452D01*
X134804819Y-80843452D02*
X134804819Y-81081547D01*
X134804819Y-81081547D02*
X134852438Y-81176785D01*
X134852438Y-81176785D02*
X134900057Y-81224404D01*
X134900057Y-81224404D02*
X134995295Y-81272023D01*
X134995295Y-81272023D02*
X135090533Y-81272023D01*
X135090533Y-81272023D02*
X135233390Y-81224404D01*
X135233390Y-81224404D02*
X135804819Y-80652976D01*
X135804819Y-80652976D02*
X135804819Y-81272023D01*
X134804819Y-81605357D02*
X134804819Y-82224404D01*
X134804819Y-82224404D02*
X135185771Y-81891071D01*
X135185771Y-81891071D02*
X135185771Y-82033928D01*
X135185771Y-82033928D02*
X135233390Y-82129166D01*
X135233390Y-82129166D02*
X135281009Y-82176785D01*
X135281009Y-82176785D02*
X135376247Y-82224404D01*
X135376247Y-82224404D02*
X135614342Y-82224404D01*
X135614342Y-82224404D02*
X135709580Y-82176785D01*
X135709580Y-82176785D02*
X135757200Y-82129166D01*
X135757200Y-82129166D02*
X135804819Y-82033928D01*
X135804819Y-82033928D02*
X135804819Y-81748214D01*
X135804819Y-81748214D02*
X135757200Y-81652976D01*
X135757200Y-81652976D02*
X135709580Y-81605357D01*
X59604819Y-56411905D02*
X58604819Y-56411905D01*
X58604819Y-56411905D02*
X58604819Y-56650000D01*
X58604819Y-56650000D02*
X58652438Y-56792857D01*
X58652438Y-56792857D02*
X58747676Y-56888095D01*
X58747676Y-56888095D02*
X58842914Y-56935714D01*
X58842914Y-56935714D02*
X59033390Y-56983333D01*
X59033390Y-56983333D02*
X59176247Y-56983333D01*
X59176247Y-56983333D02*
X59366723Y-56935714D01*
X59366723Y-56935714D02*
X59461961Y-56888095D01*
X59461961Y-56888095D02*
X59557200Y-56792857D01*
X59557200Y-56792857D02*
X59604819Y-56650000D01*
X59604819Y-56650000D02*
X59604819Y-56411905D01*
X58604819Y-57316667D02*
X58604819Y-57935714D01*
X58604819Y-57935714D02*
X58985771Y-57602381D01*
X58985771Y-57602381D02*
X58985771Y-57745238D01*
X58985771Y-57745238D02*
X59033390Y-57840476D01*
X59033390Y-57840476D02*
X59081009Y-57888095D01*
X59081009Y-57888095D02*
X59176247Y-57935714D01*
X59176247Y-57935714D02*
X59414342Y-57935714D01*
X59414342Y-57935714D02*
X59509580Y-57888095D01*
X59509580Y-57888095D02*
X59557200Y-57840476D01*
X59557200Y-57840476D02*
X59604819Y-57745238D01*
X59604819Y-57745238D02*
X59604819Y-57459524D01*
X59604819Y-57459524D02*
X59557200Y-57364286D01*
X59557200Y-57364286D02*
X59509580Y-57316667D01*
X86891964Y-56770180D02*
X86891964Y-57770180D01*
X86891964Y-57770180D02*
X87130059Y-57770180D01*
X87130059Y-57770180D02*
X87272916Y-57722561D01*
X87272916Y-57722561D02*
X87368154Y-57627323D01*
X87368154Y-57627323D02*
X87415773Y-57532085D01*
X87415773Y-57532085D02*
X87463392Y-57341609D01*
X87463392Y-57341609D02*
X87463392Y-57198752D01*
X87463392Y-57198752D02*
X87415773Y-57008276D01*
X87415773Y-57008276D02*
X87368154Y-56913038D01*
X87368154Y-56913038D02*
X87272916Y-56817800D01*
X87272916Y-56817800D02*
X87130059Y-56770180D01*
X87130059Y-56770180D02*
X86891964Y-56770180D01*
X88320535Y-57770180D02*
X88130059Y-57770180D01*
X88130059Y-57770180D02*
X88034821Y-57722561D01*
X88034821Y-57722561D02*
X87987202Y-57674942D01*
X87987202Y-57674942D02*
X87891964Y-57532085D01*
X87891964Y-57532085D02*
X87844345Y-57341609D01*
X87844345Y-57341609D02*
X87844345Y-56960657D01*
X87844345Y-56960657D02*
X87891964Y-56865419D01*
X87891964Y-56865419D02*
X87939583Y-56817800D01*
X87939583Y-56817800D02*
X88034821Y-56770180D01*
X88034821Y-56770180D02*
X88225297Y-56770180D01*
X88225297Y-56770180D02*
X88320535Y-56817800D01*
X88320535Y-56817800D02*
X88368154Y-56865419D01*
X88368154Y-56865419D02*
X88415773Y-56960657D01*
X88415773Y-56960657D02*
X88415773Y-57198752D01*
X88415773Y-57198752D02*
X88368154Y-57293990D01*
X88368154Y-57293990D02*
X88320535Y-57341609D01*
X88320535Y-57341609D02*
X88225297Y-57389228D01*
X88225297Y-57389228D02*
X88034821Y-57389228D01*
X88034821Y-57389228D02*
X87939583Y-57341609D01*
X87939583Y-57341609D02*
X87891964Y-57293990D01*
X87891964Y-57293990D02*
X87844345Y-57198752D01*
X88749107Y-57770180D02*
X89415773Y-57770180D01*
X89415773Y-57770180D02*
X88987202Y-56770180D01*
X272154819Y-91058333D02*
X271678628Y-90725000D01*
X272154819Y-90486905D02*
X271154819Y-90486905D01*
X271154819Y-90486905D02*
X271154819Y-90867857D01*
X271154819Y-90867857D02*
X271202438Y-90963095D01*
X271202438Y-90963095D02*
X271250057Y-91010714D01*
X271250057Y-91010714D02*
X271345295Y-91058333D01*
X271345295Y-91058333D02*
X271488152Y-91058333D01*
X271488152Y-91058333D02*
X271583390Y-91010714D01*
X271583390Y-91010714D02*
X271631009Y-90963095D01*
X271631009Y-90963095D02*
X271678628Y-90867857D01*
X271678628Y-90867857D02*
X271678628Y-90486905D01*
X271250057Y-91439286D02*
X271202438Y-91486905D01*
X271202438Y-91486905D02*
X271154819Y-91582143D01*
X271154819Y-91582143D02*
X271154819Y-91820238D01*
X271154819Y-91820238D02*
X271202438Y-91915476D01*
X271202438Y-91915476D02*
X271250057Y-91963095D01*
X271250057Y-91963095D02*
X271345295Y-92010714D01*
X271345295Y-92010714D02*
X271440533Y-92010714D01*
X271440533Y-92010714D02*
X271583390Y-91963095D01*
X271583390Y-91963095D02*
X272154819Y-91391667D01*
X272154819Y-91391667D02*
X272154819Y-92010714D01*
X116611069Y-36973214D02*
X115611069Y-36973214D01*
X115611069Y-36973214D02*
X115611069Y-37211309D01*
X115611069Y-37211309D02*
X115658688Y-37354166D01*
X115658688Y-37354166D02*
X115753926Y-37449404D01*
X115753926Y-37449404D02*
X115849164Y-37497023D01*
X115849164Y-37497023D02*
X116039640Y-37544642D01*
X116039640Y-37544642D02*
X116182497Y-37544642D01*
X116182497Y-37544642D02*
X116372973Y-37497023D01*
X116372973Y-37497023D02*
X116468211Y-37449404D01*
X116468211Y-37449404D02*
X116563450Y-37354166D01*
X116563450Y-37354166D02*
X116611069Y-37211309D01*
X116611069Y-37211309D02*
X116611069Y-36973214D01*
X115611069Y-37877976D02*
X115611069Y-38497023D01*
X115611069Y-38497023D02*
X115992021Y-38163690D01*
X115992021Y-38163690D02*
X115992021Y-38306547D01*
X115992021Y-38306547D02*
X116039640Y-38401785D01*
X116039640Y-38401785D02*
X116087259Y-38449404D01*
X116087259Y-38449404D02*
X116182497Y-38497023D01*
X116182497Y-38497023D02*
X116420592Y-38497023D01*
X116420592Y-38497023D02*
X116515830Y-38449404D01*
X116515830Y-38449404D02*
X116563450Y-38401785D01*
X116563450Y-38401785D02*
X116611069Y-38306547D01*
X116611069Y-38306547D02*
X116611069Y-38020833D01*
X116611069Y-38020833D02*
X116563450Y-37925595D01*
X116563450Y-37925595D02*
X116515830Y-37877976D01*
X115611069Y-38830357D02*
X115611069Y-39497023D01*
X115611069Y-39497023D02*
X116611069Y-39068452D01*
X116754819Y-94035714D02*
X115754819Y-94035714D01*
X115754819Y-94035714D02*
X115754819Y-94273809D01*
X115754819Y-94273809D02*
X115802438Y-94416666D01*
X115802438Y-94416666D02*
X115897676Y-94511904D01*
X115897676Y-94511904D02*
X115992914Y-94559523D01*
X115992914Y-94559523D02*
X116183390Y-94607142D01*
X116183390Y-94607142D02*
X116326247Y-94607142D01*
X116326247Y-94607142D02*
X116516723Y-94559523D01*
X116516723Y-94559523D02*
X116611961Y-94511904D01*
X116611961Y-94511904D02*
X116707200Y-94416666D01*
X116707200Y-94416666D02*
X116754819Y-94273809D01*
X116754819Y-94273809D02*
X116754819Y-94035714D01*
X116754819Y-95559523D02*
X116754819Y-94988095D01*
X116754819Y-95273809D02*
X115754819Y-95273809D01*
X115754819Y-95273809D02*
X115897676Y-95178571D01*
X115897676Y-95178571D02*
X115992914Y-95083333D01*
X115992914Y-95083333D02*
X116040533Y-94988095D01*
X115754819Y-95892857D02*
X115754819Y-96511904D01*
X115754819Y-96511904D02*
X116135771Y-96178571D01*
X116135771Y-96178571D02*
X116135771Y-96321428D01*
X116135771Y-96321428D02*
X116183390Y-96416666D01*
X116183390Y-96416666D02*
X116231009Y-96464285D01*
X116231009Y-96464285D02*
X116326247Y-96511904D01*
X116326247Y-96511904D02*
X116564342Y-96511904D01*
X116564342Y-96511904D02*
X116659580Y-96464285D01*
X116659580Y-96464285D02*
X116707200Y-96416666D01*
X116707200Y-96416666D02*
X116754819Y-96321428D01*
X116754819Y-96321428D02*
X116754819Y-96035714D01*
X116754819Y-96035714D02*
X116707200Y-95940476D01*
X116707200Y-95940476D02*
X116659580Y-95892857D01*
X210385714Y-75845180D02*
X210385714Y-76845180D01*
X210385714Y-76845180D02*
X210623809Y-76845180D01*
X210623809Y-76845180D02*
X210766666Y-76797561D01*
X210766666Y-76797561D02*
X210861904Y-76702323D01*
X210861904Y-76702323D02*
X210909523Y-76607085D01*
X210909523Y-76607085D02*
X210957142Y-76416609D01*
X210957142Y-76416609D02*
X210957142Y-76273752D01*
X210957142Y-76273752D02*
X210909523Y-76083276D01*
X210909523Y-76083276D02*
X210861904Y-75988038D01*
X210861904Y-75988038D02*
X210766666Y-75892800D01*
X210766666Y-75892800D02*
X210623809Y-75845180D01*
X210623809Y-75845180D02*
X210385714Y-75845180D01*
X211814285Y-76845180D02*
X211623809Y-76845180D01*
X211623809Y-76845180D02*
X211528571Y-76797561D01*
X211528571Y-76797561D02*
X211480952Y-76749942D01*
X211480952Y-76749942D02*
X211385714Y-76607085D01*
X211385714Y-76607085D02*
X211338095Y-76416609D01*
X211338095Y-76416609D02*
X211338095Y-76035657D01*
X211338095Y-76035657D02*
X211385714Y-75940419D01*
X211385714Y-75940419D02*
X211433333Y-75892800D01*
X211433333Y-75892800D02*
X211528571Y-75845180D01*
X211528571Y-75845180D02*
X211719047Y-75845180D01*
X211719047Y-75845180D02*
X211814285Y-75892800D01*
X211814285Y-75892800D02*
X211861904Y-75940419D01*
X211861904Y-75940419D02*
X211909523Y-76035657D01*
X211909523Y-76035657D02*
X211909523Y-76273752D01*
X211909523Y-76273752D02*
X211861904Y-76368990D01*
X211861904Y-76368990D02*
X211814285Y-76416609D01*
X211814285Y-76416609D02*
X211719047Y-76464228D01*
X211719047Y-76464228D02*
X211528571Y-76464228D01*
X211528571Y-76464228D02*
X211433333Y-76416609D01*
X211433333Y-76416609D02*
X211385714Y-76368990D01*
X211385714Y-76368990D02*
X211338095Y-76273752D01*
X212528571Y-76845180D02*
X212623809Y-76845180D01*
X212623809Y-76845180D02*
X212719047Y-76797561D01*
X212719047Y-76797561D02*
X212766666Y-76749942D01*
X212766666Y-76749942D02*
X212814285Y-76654704D01*
X212814285Y-76654704D02*
X212861904Y-76464228D01*
X212861904Y-76464228D02*
X212861904Y-76226133D01*
X212861904Y-76226133D02*
X212814285Y-76035657D01*
X212814285Y-76035657D02*
X212766666Y-75940419D01*
X212766666Y-75940419D02*
X212719047Y-75892800D01*
X212719047Y-75892800D02*
X212623809Y-75845180D01*
X212623809Y-75845180D02*
X212528571Y-75845180D01*
X212528571Y-75845180D02*
X212433333Y-75892800D01*
X212433333Y-75892800D02*
X212385714Y-75940419D01*
X212385714Y-75940419D02*
X212338095Y-76035657D01*
X212338095Y-76035657D02*
X212290476Y-76226133D01*
X212290476Y-76226133D02*
X212290476Y-76464228D01*
X212290476Y-76464228D02*
X212338095Y-76654704D01*
X212338095Y-76654704D02*
X212385714Y-76749942D01*
X212385714Y-76749942D02*
X212433333Y-76797561D01*
X212433333Y-76797561D02*
X212528571Y-76845180D01*
X108314285Y-44154819D02*
X108314285Y-43154819D01*
X108314285Y-43154819D02*
X108076190Y-43154819D01*
X108076190Y-43154819D02*
X107933333Y-43202438D01*
X107933333Y-43202438D02*
X107838095Y-43297676D01*
X107838095Y-43297676D02*
X107790476Y-43392914D01*
X107790476Y-43392914D02*
X107742857Y-43583390D01*
X107742857Y-43583390D02*
X107742857Y-43726247D01*
X107742857Y-43726247D02*
X107790476Y-43916723D01*
X107790476Y-43916723D02*
X107838095Y-44011961D01*
X107838095Y-44011961D02*
X107933333Y-44107200D01*
X107933333Y-44107200D02*
X108076190Y-44154819D01*
X108076190Y-44154819D02*
X108314285Y-44154819D01*
X107409523Y-43154819D02*
X106742857Y-43154819D01*
X106742857Y-43154819D02*
X107171428Y-44154819D01*
X105933333Y-43154819D02*
X106123809Y-43154819D01*
X106123809Y-43154819D02*
X106219047Y-43202438D01*
X106219047Y-43202438D02*
X106266666Y-43250057D01*
X106266666Y-43250057D02*
X106361904Y-43392914D01*
X106361904Y-43392914D02*
X106409523Y-43583390D01*
X106409523Y-43583390D02*
X106409523Y-43964342D01*
X106409523Y-43964342D02*
X106361904Y-44059580D01*
X106361904Y-44059580D02*
X106314285Y-44107200D01*
X106314285Y-44107200D02*
X106219047Y-44154819D01*
X106219047Y-44154819D02*
X106028571Y-44154819D01*
X106028571Y-44154819D02*
X105933333Y-44107200D01*
X105933333Y-44107200D02*
X105885714Y-44059580D01*
X105885714Y-44059580D02*
X105838095Y-43964342D01*
X105838095Y-43964342D02*
X105838095Y-43726247D01*
X105838095Y-43726247D02*
X105885714Y-43631009D01*
X105885714Y-43631009D02*
X105933333Y-43583390D01*
X105933333Y-43583390D02*
X106028571Y-43535771D01*
X106028571Y-43535771D02*
X106219047Y-43535771D01*
X106219047Y-43535771D02*
X106314285Y-43583390D01*
X106314285Y-43583390D02*
X106361904Y-43631009D01*
X106361904Y-43631009D02*
X106409523Y-43726247D01*
X59604819Y-94511905D02*
X58604819Y-94511905D01*
X58604819Y-94511905D02*
X58604819Y-94750000D01*
X58604819Y-94750000D02*
X58652438Y-94892857D01*
X58652438Y-94892857D02*
X58747676Y-94988095D01*
X58747676Y-94988095D02*
X58842914Y-95035714D01*
X58842914Y-95035714D02*
X59033390Y-95083333D01*
X59033390Y-95083333D02*
X59176247Y-95083333D01*
X59176247Y-95083333D02*
X59366723Y-95035714D01*
X59366723Y-95035714D02*
X59461961Y-94988095D01*
X59461961Y-94988095D02*
X59557200Y-94892857D01*
X59557200Y-94892857D02*
X59604819Y-94750000D01*
X59604819Y-94750000D02*
X59604819Y-94511905D01*
X58604819Y-95416667D02*
X58604819Y-96083333D01*
X58604819Y-96083333D02*
X59604819Y-95654762D01*
X27203387Y-114187920D02*
X27545407Y-115127612D01*
X27545407Y-115127612D02*
X27769143Y-115046179D01*
X27769143Y-115046179D02*
X27887098Y-114952572D01*
X27887098Y-114952572D02*
X27944020Y-114830504D01*
X27944020Y-114830504D02*
X27956194Y-114724722D01*
X27956194Y-114724722D02*
X27935794Y-114529447D01*
X27935794Y-114529447D02*
X27886934Y-114395205D01*
X27886934Y-114395205D02*
X27777040Y-114232503D01*
X27777040Y-114232503D02*
X27699720Y-114159295D01*
X27699720Y-114159295D02*
X27577652Y-114102373D01*
X27577652Y-114102373D02*
X27427123Y-114106486D01*
X27427123Y-114106486D02*
X27203387Y-114187920D01*
X28773818Y-114325781D02*
X28545805Y-113699319D01*
X28680375Y-114765193D02*
X28212339Y-114175417D01*
X28212339Y-114175417D02*
X28794053Y-113963690D01*
X29290550Y-114492432D02*
X29872265Y-114280705D01*
X29872265Y-114280705D02*
X29428741Y-114036734D01*
X29428741Y-114036734D02*
X29562983Y-113987874D01*
X29562983Y-113987874D02*
X29636190Y-113910553D01*
X29636190Y-113910553D02*
X29664651Y-113849519D01*
X29664651Y-113849519D02*
X29676825Y-113743738D01*
X29676825Y-113743738D02*
X29595392Y-113520002D01*
X29595392Y-113520002D02*
X29518071Y-113446794D01*
X29518071Y-113446794D02*
X29457037Y-113418333D01*
X29457037Y-113418333D02*
X29351256Y-113406159D01*
X29351256Y-113406159D02*
X29082772Y-113503879D01*
X29082772Y-113503879D02*
X29009564Y-113581200D01*
X29009564Y-113581200D02*
X28981104Y-113642234D01*
X221198569Y-89298214D02*
X220198569Y-89298214D01*
X220198569Y-89298214D02*
X220198569Y-89536309D01*
X220198569Y-89536309D02*
X220246188Y-89679166D01*
X220246188Y-89679166D02*
X220341426Y-89774404D01*
X220341426Y-89774404D02*
X220436664Y-89822023D01*
X220436664Y-89822023D02*
X220627140Y-89869642D01*
X220627140Y-89869642D02*
X220769997Y-89869642D01*
X220769997Y-89869642D02*
X220960473Y-89822023D01*
X220960473Y-89822023D02*
X221055711Y-89774404D01*
X221055711Y-89774404D02*
X221150950Y-89679166D01*
X221150950Y-89679166D02*
X221198569Y-89536309D01*
X221198569Y-89536309D02*
X221198569Y-89298214D01*
X221198569Y-90822023D02*
X221198569Y-90250595D01*
X221198569Y-90536309D02*
X220198569Y-90536309D01*
X220198569Y-90536309D02*
X220341426Y-90441071D01*
X220341426Y-90441071D02*
X220436664Y-90345833D01*
X220436664Y-90345833D02*
X220484283Y-90250595D01*
X220293807Y-91202976D02*
X220246188Y-91250595D01*
X220246188Y-91250595D02*
X220198569Y-91345833D01*
X220198569Y-91345833D02*
X220198569Y-91583928D01*
X220198569Y-91583928D02*
X220246188Y-91679166D01*
X220246188Y-91679166D02*
X220293807Y-91726785D01*
X220293807Y-91726785D02*
X220389045Y-91774404D01*
X220389045Y-91774404D02*
X220484283Y-91774404D01*
X220484283Y-91774404D02*
X220627140Y-91726785D01*
X220627140Y-91726785D02*
X221198569Y-91155357D01*
X221198569Y-91155357D02*
X221198569Y-91774404D01*
X231819174Y-98711069D02*
X231819174Y-97711069D01*
X231819174Y-97711069D02*
X231581079Y-97711069D01*
X231581079Y-97711069D02*
X231438222Y-97758688D01*
X231438222Y-97758688D02*
X231342984Y-97853926D01*
X231342984Y-97853926D02*
X231295365Y-97949164D01*
X231295365Y-97949164D02*
X231247746Y-98139640D01*
X231247746Y-98139640D02*
X231247746Y-98282497D01*
X231247746Y-98282497D02*
X231295365Y-98472973D01*
X231295365Y-98472973D02*
X231342984Y-98568211D01*
X231342984Y-98568211D02*
X231438222Y-98663450D01*
X231438222Y-98663450D02*
X231581079Y-98711069D01*
X231581079Y-98711069D02*
X231819174Y-98711069D01*
X230342984Y-97711069D02*
X230819174Y-97711069D01*
X230819174Y-97711069D02*
X230866793Y-98187259D01*
X230866793Y-98187259D02*
X230819174Y-98139640D01*
X230819174Y-98139640D02*
X230723936Y-98092021D01*
X230723936Y-98092021D02*
X230485841Y-98092021D01*
X230485841Y-98092021D02*
X230390603Y-98139640D01*
X230390603Y-98139640D02*
X230342984Y-98187259D01*
X230342984Y-98187259D02*
X230295365Y-98282497D01*
X230295365Y-98282497D02*
X230295365Y-98520592D01*
X230295365Y-98520592D02*
X230342984Y-98615830D01*
X230342984Y-98615830D02*
X230390603Y-98663450D01*
X230390603Y-98663450D02*
X230485841Y-98711069D01*
X230485841Y-98711069D02*
X230723936Y-98711069D01*
X230723936Y-98711069D02*
X230819174Y-98663450D01*
X230819174Y-98663450D02*
X230866793Y-98615830D01*
X229676317Y-97711069D02*
X229581079Y-97711069D01*
X229581079Y-97711069D02*
X229485841Y-97758688D01*
X229485841Y-97758688D02*
X229438222Y-97806307D01*
X229438222Y-97806307D02*
X229390603Y-97901545D01*
X229390603Y-97901545D02*
X229342984Y-98092021D01*
X229342984Y-98092021D02*
X229342984Y-98330116D01*
X229342984Y-98330116D02*
X229390603Y-98520592D01*
X229390603Y-98520592D02*
X229438222Y-98615830D01*
X229438222Y-98615830D02*
X229485841Y-98663450D01*
X229485841Y-98663450D02*
X229581079Y-98711069D01*
X229581079Y-98711069D02*
X229676317Y-98711069D01*
X229676317Y-98711069D02*
X229771555Y-98663450D01*
X229771555Y-98663450D02*
X229819174Y-98615830D01*
X229819174Y-98615830D02*
X229866793Y-98520592D01*
X229866793Y-98520592D02*
X229914412Y-98330116D01*
X229914412Y-98330116D02*
X229914412Y-98092021D01*
X229914412Y-98092021D02*
X229866793Y-97901545D01*
X229866793Y-97901545D02*
X229819174Y-97806307D01*
X229819174Y-97806307D02*
X229771555Y-97758688D01*
X229771555Y-97758688D02*
X229676317Y-97711069D01*
X202148569Y-55960714D02*
X201148569Y-55960714D01*
X201148569Y-55960714D02*
X201148569Y-56198809D01*
X201148569Y-56198809D02*
X201196188Y-56341666D01*
X201196188Y-56341666D02*
X201291426Y-56436904D01*
X201291426Y-56436904D02*
X201386664Y-56484523D01*
X201386664Y-56484523D02*
X201577140Y-56532142D01*
X201577140Y-56532142D02*
X201719997Y-56532142D01*
X201719997Y-56532142D02*
X201910473Y-56484523D01*
X201910473Y-56484523D02*
X202005711Y-56436904D01*
X202005711Y-56436904D02*
X202100950Y-56341666D01*
X202100950Y-56341666D02*
X202148569Y-56198809D01*
X202148569Y-56198809D02*
X202148569Y-55960714D01*
X201148569Y-56865476D02*
X201148569Y-57484523D01*
X201148569Y-57484523D02*
X201529521Y-57151190D01*
X201529521Y-57151190D02*
X201529521Y-57294047D01*
X201529521Y-57294047D02*
X201577140Y-57389285D01*
X201577140Y-57389285D02*
X201624759Y-57436904D01*
X201624759Y-57436904D02*
X201719997Y-57484523D01*
X201719997Y-57484523D02*
X201958092Y-57484523D01*
X201958092Y-57484523D02*
X202053330Y-57436904D01*
X202053330Y-57436904D02*
X202100950Y-57389285D01*
X202100950Y-57389285D02*
X202148569Y-57294047D01*
X202148569Y-57294047D02*
X202148569Y-57008333D01*
X202148569Y-57008333D02*
X202100950Y-56913095D01*
X202100950Y-56913095D02*
X202053330Y-56865476D01*
X201148569Y-58103571D02*
X201148569Y-58198809D01*
X201148569Y-58198809D02*
X201196188Y-58294047D01*
X201196188Y-58294047D02*
X201243807Y-58341666D01*
X201243807Y-58341666D02*
X201339045Y-58389285D01*
X201339045Y-58389285D02*
X201529521Y-58436904D01*
X201529521Y-58436904D02*
X201767616Y-58436904D01*
X201767616Y-58436904D02*
X201958092Y-58389285D01*
X201958092Y-58389285D02*
X202053330Y-58341666D01*
X202053330Y-58341666D02*
X202100950Y-58294047D01*
X202100950Y-58294047D02*
X202148569Y-58198809D01*
X202148569Y-58198809D02*
X202148569Y-58103571D01*
X202148569Y-58103571D02*
X202100950Y-58008333D01*
X202100950Y-58008333D02*
X202053330Y-57960714D01*
X202053330Y-57960714D02*
X201958092Y-57913095D01*
X201958092Y-57913095D02*
X201767616Y-57865476D01*
X201767616Y-57865476D02*
X201529521Y-57865476D01*
X201529521Y-57865476D02*
X201339045Y-57913095D01*
X201339045Y-57913095D02*
X201243807Y-57960714D01*
X201243807Y-57960714D02*
X201196188Y-58008333D01*
X201196188Y-58008333D02*
X201148569Y-58103571D01*
X172285714Y-47270180D02*
X172285714Y-48270180D01*
X172285714Y-48270180D02*
X172523809Y-48270180D01*
X172523809Y-48270180D02*
X172666666Y-48222561D01*
X172666666Y-48222561D02*
X172761904Y-48127323D01*
X172761904Y-48127323D02*
X172809523Y-48032085D01*
X172809523Y-48032085D02*
X172857142Y-47841609D01*
X172857142Y-47841609D02*
X172857142Y-47698752D01*
X172857142Y-47698752D02*
X172809523Y-47508276D01*
X172809523Y-47508276D02*
X172761904Y-47413038D01*
X172761904Y-47413038D02*
X172666666Y-47317800D01*
X172666666Y-47317800D02*
X172523809Y-47270180D01*
X172523809Y-47270180D02*
X172285714Y-47270180D01*
X173428571Y-47841609D02*
X173333333Y-47889228D01*
X173333333Y-47889228D02*
X173285714Y-47936847D01*
X173285714Y-47936847D02*
X173238095Y-48032085D01*
X173238095Y-48032085D02*
X173238095Y-48079704D01*
X173238095Y-48079704D02*
X173285714Y-48174942D01*
X173285714Y-48174942D02*
X173333333Y-48222561D01*
X173333333Y-48222561D02*
X173428571Y-48270180D01*
X173428571Y-48270180D02*
X173619047Y-48270180D01*
X173619047Y-48270180D02*
X173714285Y-48222561D01*
X173714285Y-48222561D02*
X173761904Y-48174942D01*
X173761904Y-48174942D02*
X173809523Y-48079704D01*
X173809523Y-48079704D02*
X173809523Y-48032085D01*
X173809523Y-48032085D02*
X173761904Y-47936847D01*
X173761904Y-47936847D02*
X173714285Y-47889228D01*
X173714285Y-47889228D02*
X173619047Y-47841609D01*
X173619047Y-47841609D02*
X173428571Y-47841609D01*
X173428571Y-47841609D02*
X173333333Y-47793990D01*
X173333333Y-47793990D02*
X173285714Y-47746371D01*
X173285714Y-47746371D02*
X173238095Y-47651133D01*
X173238095Y-47651133D02*
X173238095Y-47460657D01*
X173238095Y-47460657D02*
X173285714Y-47365419D01*
X173285714Y-47365419D02*
X173333333Y-47317800D01*
X173333333Y-47317800D02*
X173428571Y-47270180D01*
X173428571Y-47270180D02*
X173619047Y-47270180D01*
X173619047Y-47270180D02*
X173714285Y-47317800D01*
X173714285Y-47317800D02*
X173761904Y-47365419D01*
X173761904Y-47365419D02*
X173809523Y-47460657D01*
X173809523Y-47460657D02*
X173809523Y-47651133D01*
X173809523Y-47651133D02*
X173761904Y-47746371D01*
X173761904Y-47746371D02*
X173714285Y-47793990D01*
X173714285Y-47793990D02*
X173619047Y-47841609D01*
X174428571Y-48270180D02*
X174523809Y-48270180D01*
X174523809Y-48270180D02*
X174619047Y-48222561D01*
X174619047Y-48222561D02*
X174666666Y-48174942D01*
X174666666Y-48174942D02*
X174714285Y-48079704D01*
X174714285Y-48079704D02*
X174761904Y-47889228D01*
X174761904Y-47889228D02*
X174761904Y-47651133D01*
X174761904Y-47651133D02*
X174714285Y-47460657D01*
X174714285Y-47460657D02*
X174666666Y-47365419D01*
X174666666Y-47365419D02*
X174619047Y-47317800D01*
X174619047Y-47317800D02*
X174523809Y-47270180D01*
X174523809Y-47270180D02*
X174428571Y-47270180D01*
X174428571Y-47270180D02*
X174333333Y-47317800D01*
X174333333Y-47317800D02*
X174285714Y-47365419D01*
X174285714Y-47365419D02*
X174238095Y-47460657D01*
X174238095Y-47460657D02*
X174190476Y-47651133D01*
X174190476Y-47651133D02*
X174190476Y-47889228D01*
X174190476Y-47889228D02*
X174238095Y-48079704D01*
X174238095Y-48079704D02*
X174285714Y-48174942D01*
X174285714Y-48174942D02*
X174333333Y-48222561D01*
X174333333Y-48222561D02*
X174428571Y-48270180D01*
X18466666Y-89954819D02*
X18799999Y-89478628D01*
X19038094Y-89954819D02*
X19038094Y-88954819D01*
X19038094Y-88954819D02*
X18657142Y-88954819D01*
X18657142Y-88954819D02*
X18561904Y-89002438D01*
X18561904Y-89002438D02*
X18514285Y-89050057D01*
X18514285Y-89050057D02*
X18466666Y-89145295D01*
X18466666Y-89145295D02*
X18466666Y-89288152D01*
X18466666Y-89288152D02*
X18514285Y-89383390D01*
X18514285Y-89383390D02*
X18561904Y-89431009D01*
X18561904Y-89431009D02*
X18657142Y-89478628D01*
X18657142Y-89478628D02*
X19038094Y-89478628D01*
X17514285Y-89954819D02*
X18085713Y-89954819D01*
X17799999Y-89954819D02*
X17799999Y-88954819D01*
X17799999Y-88954819D02*
X17895237Y-89097676D01*
X17895237Y-89097676D02*
X17990475Y-89192914D01*
X17990475Y-89192914D02*
X18085713Y-89240533D01*
X259298569Y-75486905D02*
X258298569Y-75486905D01*
X258298569Y-75486905D02*
X258298569Y-75725000D01*
X258298569Y-75725000D02*
X258346188Y-75867857D01*
X258346188Y-75867857D02*
X258441426Y-75963095D01*
X258441426Y-75963095D02*
X258536664Y-76010714D01*
X258536664Y-76010714D02*
X258727140Y-76058333D01*
X258727140Y-76058333D02*
X258869997Y-76058333D01*
X258869997Y-76058333D02*
X259060473Y-76010714D01*
X259060473Y-76010714D02*
X259155711Y-75963095D01*
X259155711Y-75963095D02*
X259250950Y-75867857D01*
X259250950Y-75867857D02*
X259298569Y-75725000D01*
X259298569Y-75725000D02*
X259298569Y-75486905D01*
X258298569Y-76915476D02*
X258298569Y-76725000D01*
X258298569Y-76725000D02*
X258346188Y-76629762D01*
X258346188Y-76629762D02*
X258393807Y-76582143D01*
X258393807Y-76582143D02*
X258536664Y-76486905D01*
X258536664Y-76486905D02*
X258727140Y-76439286D01*
X258727140Y-76439286D02*
X259108092Y-76439286D01*
X259108092Y-76439286D02*
X259203330Y-76486905D01*
X259203330Y-76486905D02*
X259250950Y-76534524D01*
X259250950Y-76534524D02*
X259298569Y-76629762D01*
X259298569Y-76629762D02*
X259298569Y-76820238D01*
X259298569Y-76820238D02*
X259250950Y-76915476D01*
X259250950Y-76915476D02*
X259203330Y-76963095D01*
X259203330Y-76963095D02*
X259108092Y-77010714D01*
X259108092Y-77010714D02*
X258869997Y-77010714D01*
X258869997Y-77010714D02*
X258774759Y-76963095D01*
X258774759Y-76963095D02*
X258727140Y-76915476D01*
X258727140Y-76915476D02*
X258679521Y-76820238D01*
X258679521Y-76820238D02*
X258679521Y-76629762D01*
X258679521Y-76629762D02*
X258727140Y-76534524D01*
X258727140Y-76534524D02*
X258774759Y-76486905D01*
X258774759Y-76486905D02*
X258869997Y-76439286D01*
X183098569Y-79773214D02*
X182098569Y-79773214D01*
X182098569Y-79773214D02*
X182098569Y-80011309D01*
X182098569Y-80011309D02*
X182146188Y-80154166D01*
X182146188Y-80154166D02*
X182241426Y-80249404D01*
X182241426Y-80249404D02*
X182336664Y-80297023D01*
X182336664Y-80297023D02*
X182527140Y-80344642D01*
X182527140Y-80344642D02*
X182669997Y-80344642D01*
X182669997Y-80344642D02*
X182860473Y-80297023D01*
X182860473Y-80297023D02*
X182955711Y-80249404D01*
X182955711Y-80249404D02*
X183050950Y-80154166D01*
X183050950Y-80154166D02*
X183098569Y-80011309D01*
X183098569Y-80011309D02*
X183098569Y-79773214D01*
X182193807Y-80725595D02*
X182146188Y-80773214D01*
X182146188Y-80773214D02*
X182098569Y-80868452D01*
X182098569Y-80868452D02*
X182098569Y-81106547D01*
X182098569Y-81106547D02*
X182146188Y-81201785D01*
X182146188Y-81201785D02*
X182193807Y-81249404D01*
X182193807Y-81249404D02*
X182289045Y-81297023D01*
X182289045Y-81297023D02*
X182384283Y-81297023D01*
X182384283Y-81297023D02*
X182527140Y-81249404D01*
X182527140Y-81249404D02*
X183098569Y-80677976D01*
X183098569Y-80677976D02*
X183098569Y-81297023D01*
X182431902Y-82154166D02*
X183098569Y-82154166D01*
X182050950Y-81916071D02*
X182765235Y-81677976D01*
X182765235Y-81677976D02*
X182765235Y-82297023D01*
X78654819Y-92130655D02*
X77654819Y-92130655D01*
X77654819Y-92130655D02*
X77654819Y-92368750D01*
X77654819Y-92368750D02*
X77702438Y-92511607D01*
X77702438Y-92511607D02*
X77797676Y-92606845D01*
X77797676Y-92606845D02*
X77892914Y-92654464D01*
X77892914Y-92654464D02*
X78083390Y-92702083D01*
X78083390Y-92702083D02*
X78226247Y-92702083D01*
X78226247Y-92702083D02*
X78416723Y-92654464D01*
X78416723Y-92654464D02*
X78511961Y-92606845D01*
X78511961Y-92606845D02*
X78607200Y-92511607D01*
X78607200Y-92511607D02*
X78654819Y-92368750D01*
X78654819Y-92368750D02*
X78654819Y-92130655D01*
X78654819Y-93178274D02*
X78654819Y-93368750D01*
X78654819Y-93368750D02*
X78607200Y-93463988D01*
X78607200Y-93463988D02*
X78559580Y-93511607D01*
X78559580Y-93511607D02*
X78416723Y-93606845D01*
X78416723Y-93606845D02*
X78226247Y-93654464D01*
X78226247Y-93654464D02*
X77845295Y-93654464D01*
X77845295Y-93654464D02*
X77750057Y-93606845D01*
X77750057Y-93606845D02*
X77702438Y-93559226D01*
X77702438Y-93559226D02*
X77654819Y-93463988D01*
X77654819Y-93463988D02*
X77654819Y-93273512D01*
X77654819Y-93273512D02*
X77702438Y-93178274D01*
X77702438Y-93178274D02*
X77750057Y-93130655D01*
X77750057Y-93130655D02*
X77845295Y-93083036D01*
X77845295Y-93083036D02*
X78083390Y-93083036D01*
X78083390Y-93083036D02*
X78178628Y-93130655D01*
X78178628Y-93130655D02*
X78226247Y-93178274D01*
X78226247Y-93178274D02*
X78273866Y-93273512D01*
X78273866Y-93273512D02*
X78273866Y-93463988D01*
X78273866Y-93463988D02*
X78226247Y-93559226D01*
X78226247Y-93559226D02*
X78178628Y-93606845D01*
X78178628Y-93606845D02*
X78083390Y-93654464D01*
X116754819Y-74985714D02*
X115754819Y-74985714D01*
X115754819Y-74985714D02*
X115754819Y-75223809D01*
X115754819Y-75223809D02*
X115802438Y-75366666D01*
X115802438Y-75366666D02*
X115897676Y-75461904D01*
X115897676Y-75461904D02*
X115992914Y-75509523D01*
X115992914Y-75509523D02*
X116183390Y-75557142D01*
X116183390Y-75557142D02*
X116326247Y-75557142D01*
X116326247Y-75557142D02*
X116516723Y-75509523D01*
X116516723Y-75509523D02*
X116611961Y-75461904D01*
X116611961Y-75461904D02*
X116707200Y-75366666D01*
X116707200Y-75366666D02*
X116754819Y-75223809D01*
X116754819Y-75223809D02*
X116754819Y-74985714D01*
X115850057Y-75938095D02*
X115802438Y-75985714D01*
X115802438Y-75985714D02*
X115754819Y-76080952D01*
X115754819Y-76080952D02*
X115754819Y-76319047D01*
X115754819Y-76319047D02*
X115802438Y-76414285D01*
X115802438Y-76414285D02*
X115850057Y-76461904D01*
X115850057Y-76461904D02*
X115945295Y-76509523D01*
X115945295Y-76509523D02*
X116040533Y-76509523D01*
X116040533Y-76509523D02*
X116183390Y-76461904D01*
X116183390Y-76461904D02*
X116754819Y-75890476D01*
X116754819Y-75890476D02*
X116754819Y-76509523D01*
X116754819Y-77461904D02*
X116754819Y-76890476D01*
X116754819Y-77176190D02*
X115754819Y-77176190D01*
X115754819Y-77176190D02*
X115897676Y-77080952D01*
X115897676Y-77080952D02*
X115992914Y-76985714D01*
X115992914Y-76985714D02*
X116040533Y-76890476D01*
X212769174Y-96329819D02*
X212769174Y-95329819D01*
X212769174Y-95329819D02*
X212531079Y-95329819D01*
X212531079Y-95329819D02*
X212388222Y-95377438D01*
X212388222Y-95377438D02*
X212292984Y-95472676D01*
X212292984Y-95472676D02*
X212245365Y-95567914D01*
X212245365Y-95567914D02*
X212197746Y-95758390D01*
X212197746Y-95758390D02*
X212197746Y-95901247D01*
X212197746Y-95901247D02*
X212245365Y-96091723D01*
X212245365Y-96091723D02*
X212292984Y-96186961D01*
X212292984Y-96186961D02*
X212388222Y-96282200D01*
X212388222Y-96282200D02*
X212531079Y-96329819D01*
X212531079Y-96329819D02*
X212769174Y-96329819D01*
X211292984Y-95329819D02*
X211769174Y-95329819D01*
X211769174Y-95329819D02*
X211816793Y-95806009D01*
X211816793Y-95806009D02*
X211769174Y-95758390D01*
X211769174Y-95758390D02*
X211673936Y-95710771D01*
X211673936Y-95710771D02*
X211435841Y-95710771D01*
X211435841Y-95710771D02*
X211340603Y-95758390D01*
X211340603Y-95758390D02*
X211292984Y-95806009D01*
X211292984Y-95806009D02*
X211245365Y-95901247D01*
X211245365Y-95901247D02*
X211245365Y-96139342D01*
X211245365Y-96139342D02*
X211292984Y-96234580D01*
X211292984Y-96234580D02*
X211340603Y-96282200D01*
X211340603Y-96282200D02*
X211435841Y-96329819D01*
X211435841Y-96329819D02*
X211673936Y-96329819D01*
X211673936Y-96329819D02*
X211769174Y-96282200D01*
X211769174Y-96282200D02*
X211816793Y-96234580D01*
X210864412Y-95425057D02*
X210816793Y-95377438D01*
X210816793Y-95377438D02*
X210721555Y-95329819D01*
X210721555Y-95329819D02*
X210483460Y-95329819D01*
X210483460Y-95329819D02*
X210388222Y-95377438D01*
X210388222Y-95377438D02*
X210340603Y-95425057D01*
X210340603Y-95425057D02*
X210292984Y-95520295D01*
X210292984Y-95520295D02*
X210292984Y-95615533D01*
X210292984Y-95615533D02*
X210340603Y-95758390D01*
X210340603Y-95758390D02*
X210912031Y-96329819D01*
X210912031Y-96329819D02*
X210292984Y-96329819D01*
X29055654Y-91219319D02*
X28484226Y-91219319D01*
X28769940Y-92219319D02*
X28769940Y-91219319D01*
X28150892Y-92219319D02*
X28150892Y-91219319D01*
X28150892Y-91219319D02*
X27769940Y-91219319D01*
X27769940Y-91219319D02*
X27674702Y-91266938D01*
X27674702Y-91266938D02*
X27627083Y-91314557D01*
X27627083Y-91314557D02*
X27579464Y-91409795D01*
X27579464Y-91409795D02*
X27579464Y-91552652D01*
X27579464Y-91552652D02*
X27627083Y-91647890D01*
X27627083Y-91647890D02*
X27674702Y-91695509D01*
X27674702Y-91695509D02*
X27769940Y-91743128D01*
X27769940Y-91743128D02*
X28150892Y-91743128D01*
X27246130Y-91219319D02*
X26627083Y-91219319D01*
X26627083Y-91219319D02*
X26960416Y-91600271D01*
X26960416Y-91600271D02*
X26817559Y-91600271D01*
X26817559Y-91600271D02*
X26722321Y-91647890D01*
X26722321Y-91647890D02*
X26674702Y-91695509D01*
X26674702Y-91695509D02*
X26627083Y-91790747D01*
X26627083Y-91790747D02*
X26627083Y-92028842D01*
X26627083Y-92028842D02*
X26674702Y-92124080D01*
X26674702Y-92124080D02*
X26722321Y-92171700D01*
X26722321Y-92171700D02*
X26817559Y-92219319D01*
X26817559Y-92219319D02*
X27103273Y-92219319D01*
X27103273Y-92219319D02*
X27198511Y-92171700D01*
X27198511Y-92171700D02*
X27246130Y-92124080D01*
X124991964Y-66295180D02*
X124991964Y-67295180D01*
X124991964Y-67295180D02*
X125230059Y-67295180D01*
X125230059Y-67295180D02*
X125372916Y-67247561D01*
X125372916Y-67247561D02*
X125468154Y-67152323D01*
X125468154Y-67152323D02*
X125515773Y-67057085D01*
X125515773Y-67057085D02*
X125563392Y-66866609D01*
X125563392Y-66866609D02*
X125563392Y-66723752D01*
X125563392Y-66723752D02*
X125515773Y-66533276D01*
X125515773Y-66533276D02*
X125468154Y-66438038D01*
X125468154Y-66438038D02*
X125372916Y-66342800D01*
X125372916Y-66342800D02*
X125230059Y-66295180D01*
X125230059Y-66295180D02*
X124991964Y-66295180D01*
X126420535Y-67295180D02*
X126230059Y-67295180D01*
X126230059Y-67295180D02*
X126134821Y-67247561D01*
X126134821Y-67247561D02*
X126087202Y-67199942D01*
X126087202Y-67199942D02*
X125991964Y-67057085D01*
X125991964Y-67057085D02*
X125944345Y-66866609D01*
X125944345Y-66866609D02*
X125944345Y-66485657D01*
X125944345Y-66485657D02*
X125991964Y-66390419D01*
X125991964Y-66390419D02*
X126039583Y-66342800D01*
X126039583Y-66342800D02*
X126134821Y-66295180D01*
X126134821Y-66295180D02*
X126325297Y-66295180D01*
X126325297Y-66295180D02*
X126420535Y-66342800D01*
X126420535Y-66342800D02*
X126468154Y-66390419D01*
X126468154Y-66390419D02*
X126515773Y-66485657D01*
X126515773Y-66485657D02*
X126515773Y-66723752D01*
X126515773Y-66723752D02*
X126468154Y-66818990D01*
X126468154Y-66818990D02*
X126420535Y-66866609D01*
X126420535Y-66866609D02*
X126325297Y-66914228D01*
X126325297Y-66914228D02*
X126134821Y-66914228D01*
X126134821Y-66914228D02*
X126039583Y-66866609D01*
X126039583Y-66866609D02*
X125991964Y-66818990D01*
X125991964Y-66818990D02*
X125944345Y-66723752D01*
X127420535Y-67295180D02*
X126944345Y-67295180D01*
X126944345Y-67295180D02*
X126896726Y-66818990D01*
X126896726Y-66818990D02*
X126944345Y-66866609D01*
X126944345Y-66866609D02*
X127039583Y-66914228D01*
X127039583Y-66914228D02*
X127277678Y-66914228D01*
X127277678Y-66914228D02*
X127372916Y-66866609D01*
X127372916Y-66866609D02*
X127420535Y-66818990D01*
X127420535Y-66818990D02*
X127468154Y-66723752D01*
X127468154Y-66723752D02*
X127468154Y-66485657D01*
X127468154Y-66485657D02*
X127420535Y-66390419D01*
X127420535Y-66390419D02*
X127372916Y-66342800D01*
X127372916Y-66342800D02*
X127277678Y-66295180D01*
X127277678Y-66295180D02*
X127039583Y-66295180D01*
X127039583Y-66295180D02*
X126944345Y-66342800D01*
X126944345Y-66342800D02*
X126896726Y-66390419D01*
X183098569Y-98823214D02*
X182098569Y-98823214D01*
X182098569Y-98823214D02*
X182098569Y-99061309D01*
X182098569Y-99061309D02*
X182146188Y-99204166D01*
X182146188Y-99204166D02*
X182241426Y-99299404D01*
X182241426Y-99299404D02*
X182336664Y-99347023D01*
X182336664Y-99347023D02*
X182527140Y-99394642D01*
X182527140Y-99394642D02*
X182669997Y-99394642D01*
X182669997Y-99394642D02*
X182860473Y-99347023D01*
X182860473Y-99347023D02*
X182955711Y-99299404D01*
X182955711Y-99299404D02*
X183050950Y-99204166D01*
X183050950Y-99204166D02*
X183098569Y-99061309D01*
X183098569Y-99061309D02*
X183098569Y-98823214D01*
X183098569Y-100347023D02*
X183098569Y-99775595D01*
X183098569Y-100061309D02*
X182098569Y-100061309D01*
X182098569Y-100061309D02*
X182241426Y-99966071D01*
X182241426Y-99966071D02*
X182336664Y-99870833D01*
X182336664Y-99870833D02*
X182384283Y-99775595D01*
X182098569Y-101204166D02*
X182098569Y-101013690D01*
X182098569Y-101013690D02*
X182146188Y-100918452D01*
X182146188Y-100918452D02*
X182193807Y-100870833D01*
X182193807Y-100870833D02*
X182336664Y-100775595D01*
X182336664Y-100775595D02*
X182527140Y-100727976D01*
X182527140Y-100727976D02*
X182908092Y-100727976D01*
X182908092Y-100727976D02*
X183003330Y-100775595D01*
X183003330Y-100775595D02*
X183050950Y-100823214D01*
X183050950Y-100823214D02*
X183098569Y-100918452D01*
X183098569Y-100918452D02*
X183098569Y-101108928D01*
X183098569Y-101108928D02*
X183050950Y-101204166D01*
X183050950Y-101204166D02*
X183003330Y-101251785D01*
X183003330Y-101251785D02*
X182908092Y-101299404D01*
X182908092Y-101299404D02*
X182669997Y-101299404D01*
X182669997Y-101299404D02*
X182574759Y-101251785D01*
X182574759Y-101251785D02*
X182527140Y-101204166D01*
X182527140Y-101204166D02*
X182479521Y-101108928D01*
X182479521Y-101108928D02*
X182479521Y-100918452D01*
X182479521Y-100918452D02*
X182527140Y-100823214D01*
X182527140Y-100823214D02*
X182574759Y-100775595D01*
X182574759Y-100775595D02*
X182669997Y-100727976D01*
X67841964Y-97251430D02*
X67841964Y-98251430D01*
X67841964Y-98251430D02*
X68080059Y-98251430D01*
X68080059Y-98251430D02*
X68222916Y-98203811D01*
X68222916Y-98203811D02*
X68318154Y-98108573D01*
X68318154Y-98108573D02*
X68365773Y-98013335D01*
X68365773Y-98013335D02*
X68413392Y-97822859D01*
X68413392Y-97822859D02*
X68413392Y-97680002D01*
X68413392Y-97680002D02*
X68365773Y-97489526D01*
X68365773Y-97489526D02*
X68318154Y-97394288D01*
X68318154Y-97394288D02*
X68222916Y-97299050D01*
X68222916Y-97299050D02*
X68080059Y-97251430D01*
X68080059Y-97251430D02*
X67841964Y-97251430D01*
X69270535Y-97918097D02*
X69270535Y-97251430D01*
X69032440Y-98299050D02*
X68794345Y-97584764D01*
X68794345Y-97584764D02*
X69413392Y-97584764D01*
X69841964Y-97251430D02*
X70032440Y-97251430D01*
X70032440Y-97251430D02*
X70127678Y-97299050D01*
X70127678Y-97299050D02*
X70175297Y-97346669D01*
X70175297Y-97346669D02*
X70270535Y-97489526D01*
X70270535Y-97489526D02*
X70318154Y-97680002D01*
X70318154Y-97680002D02*
X70318154Y-98060954D01*
X70318154Y-98060954D02*
X70270535Y-98156192D01*
X70270535Y-98156192D02*
X70222916Y-98203811D01*
X70222916Y-98203811D02*
X70127678Y-98251430D01*
X70127678Y-98251430D02*
X69937202Y-98251430D01*
X69937202Y-98251430D02*
X69841964Y-98203811D01*
X69841964Y-98203811D02*
X69794345Y-98156192D01*
X69794345Y-98156192D02*
X69746726Y-98060954D01*
X69746726Y-98060954D02*
X69746726Y-97822859D01*
X69746726Y-97822859D02*
X69794345Y-97727621D01*
X69794345Y-97727621D02*
X69841964Y-97680002D01*
X69841964Y-97680002D02*
X69937202Y-97632383D01*
X69937202Y-97632383D02*
X70127678Y-97632383D01*
X70127678Y-97632383D02*
X70222916Y-97680002D01*
X70222916Y-97680002D02*
X70270535Y-97727621D01*
X70270535Y-97727621D02*
X70318154Y-97822859D01*
X229435714Y-40126430D02*
X229435714Y-41126430D01*
X229435714Y-41126430D02*
X229673809Y-41126430D01*
X229673809Y-41126430D02*
X229816666Y-41078811D01*
X229816666Y-41078811D02*
X229911904Y-40983573D01*
X229911904Y-40983573D02*
X229959523Y-40888335D01*
X229959523Y-40888335D02*
X230007142Y-40697859D01*
X230007142Y-40697859D02*
X230007142Y-40555002D01*
X230007142Y-40555002D02*
X229959523Y-40364526D01*
X229959523Y-40364526D02*
X229911904Y-40269288D01*
X229911904Y-40269288D02*
X229816666Y-40174050D01*
X229816666Y-40174050D02*
X229673809Y-40126430D01*
X229673809Y-40126430D02*
X229435714Y-40126430D01*
X230578571Y-40697859D02*
X230483333Y-40745478D01*
X230483333Y-40745478D02*
X230435714Y-40793097D01*
X230435714Y-40793097D02*
X230388095Y-40888335D01*
X230388095Y-40888335D02*
X230388095Y-40935954D01*
X230388095Y-40935954D02*
X230435714Y-41031192D01*
X230435714Y-41031192D02*
X230483333Y-41078811D01*
X230483333Y-41078811D02*
X230578571Y-41126430D01*
X230578571Y-41126430D02*
X230769047Y-41126430D01*
X230769047Y-41126430D02*
X230864285Y-41078811D01*
X230864285Y-41078811D02*
X230911904Y-41031192D01*
X230911904Y-41031192D02*
X230959523Y-40935954D01*
X230959523Y-40935954D02*
X230959523Y-40888335D01*
X230959523Y-40888335D02*
X230911904Y-40793097D01*
X230911904Y-40793097D02*
X230864285Y-40745478D01*
X230864285Y-40745478D02*
X230769047Y-40697859D01*
X230769047Y-40697859D02*
X230578571Y-40697859D01*
X230578571Y-40697859D02*
X230483333Y-40650240D01*
X230483333Y-40650240D02*
X230435714Y-40602621D01*
X230435714Y-40602621D02*
X230388095Y-40507383D01*
X230388095Y-40507383D02*
X230388095Y-40316907D01*
X230388095Y-40316907D02*
X230435714Y-40221669D01*
X230435714Y-40221669D02*
X230483333Y-40174050D01*
X230483333Y-40174050D02*
X230578571Y-40126430D01*
X230578571Y-40126430D02*
X230769047Y-40126430D01*
X230769047Y-40126430D02*
X230864285Y-40174050D01*
X230864285Y-40174050D02*
X230911904Y-40221669D01*
X230911904Y-40221669D02*
X230959523Y-40316907D01*
X230959523Y-40316907D02*
X230959523Y-40507383D01*
X230959523Y-40507383D02*
X230911904Y-40602621D01*
X230911904Y-40602621D02*
X230864285Y-40650240D01*
X230864285Y-40650240D02*
X230769047Y-40697859D01*
X231292857Y-41126430D02*
X231911904Y-41126430D01*
X231911904Y-41126430D02*
X231578571Y-40745478D01*
X231578571Y-40745478D02*
X231721428Y-40745478D01*
X231721428Y-40745478D02*
X231816666Y-40697859D01*
X231816666Y-40697859D02*
X231864285Y-40650240D01*
X231864285Y-40650240D02*
X231911904Y-40555002D01*
X231911904Y-40555002D02*
X231911904Y-40316907D01*
X231911904Y-40316907D02*
X231864285Y-40221669D01*
X231864285Y-40221669D02*
X231816666Y-40174050D01*
X231816666Y-40174050D02*
X231721428Y-40126430D01*
X231721428Y-40126430D02*
X231435714Y-40126430D01*
X231435714Y-40126430D02*
X231340476Y-40174050D01*
X231340476Y-40174050D02*
X231292857Y-40221669D01*
X250869174Y-101092319D02*
X250869174Y-100092319D01*
X250869174Y-100092319D02*
X250631079Y-100092319D01*
X250631079Y-100092319D02*
X250488222Y-100139938D01*
X250488222Y-100139938D02*
X250392984Y-100235176D01*
X250392984Y-100235176D02*
X250345365Y-100330414D01*
X250345365Y-100330414D02*
X250297746Y-100520890D01*
X250297746Y-100520890D02*
X250297746Y-100663747D01*
X250297746Y-100663747D02*
X250345365Y-100854223D01*
X250345365Y-100854223D02*
X250392984Y-100949461D01*
X250392984Y-100949461D02*
X250488222Y-101044700D01*
X250488222Y-101044700D02*
X250631079Y-101092319D01*
X250631079Y-101092319D02*
X250869174Y-101092319D01*
X249440603Y-100425652D02*
X249440603Y-101092319D01*
X249678698Y-100044700D02*
X249916793Y-100758985D01*
X249916793Y-100758985D02*
X249297746Y-100758985D01*
X248773936Y-100520890D02*
X248869174Y-100473271D01*
X248869174Y-100473271D02*
X248916793Y-100425652D01*
X248916793Y-100425652D02*
X248964412Y-100330414D01*
X248964412Y-100330414D02*
X248964412Y-100282795D01*
X248964412Y-100282795D02*
X248916793Y-100187557D01*
X248916793Y-100187557D02*
X248869174Y-100139938D01*
X248869174Y-100139938D02*
X248773936Y-100092319D01*
X248773936Y-100092319D02*
X248583460Y-100092319D01*
X248583460Y-100092319D02*
X248488222Y-100139938D01*
X248488222Y-100139938D02*
X248440603Y-100187557D01*
X248440603Y-100187557D02*
X248392984Y-100282795D01*
X248392984Y-100282795D02*
X248392984Y-100330414D01*
X248392984Y-100330414D02*
X248440603Y-100425652D01*
X248440603Y-100425652D02*
X248488222Y-100473271D01*
X248488222Y-100473271D02*
X248583460Y-100520890D01*
X248583460Y-100520890D02*
X248773936Y-100520890D01*
X248773936Y-100520890D02*
X248869174Y-100568509D01*
X248869174Y-100568509D02*
X248916793Y-100616128D01*
X248916793Y-100616128D02*
X248964412Y-100711366D01*
X248964412Y-100711366D02*
X248964412Y-100901842D01*
X248964412Y-100901842D02*
X248916793Y-100997080D01*
X248916793Y-100997080D02*
X248869174Y-101044700D01*
X248869174Y-101044700D02*
X248773936Y-101092319D01*
X248773936Y-101092319D02*
X248583460Y-101092319D01*
X248583460Y-101092319D02*
X248488222Y-101044700D01*
X248488222Y-101044700D02*
X248440603Y-100997080D01*
X248440603Y-100997080D02*
X248392984Y-100901842D01*
X248392984Y-100901842D02*
X248392984Y-100711366D01*
X248392984Y-100711366D02*
X248440603Y-100616128D01*
X248440603Y-100616128D02*
X248488222Y-100568509D01*
X248488222Y-100568509D02*
X248583460Y-100520890D01*
X229435714Y-78226430D02*
X229435714Y-79226430D01*
X229435714Y-79226430D02*
X229673809Y-79226430D01*
X229673809Y-79226430D02*
X229816666Y-79178811D01*
X229816666Y-79178811D02*
X229911904Y-79083573D01*
X229911904Y-79083573D02*
X229959523Y-78988335D01*
X229959523Y-78988335D02*
X230007142Y-78797859D01*
X230007142Y-78797859D02*
X230007142Y-78655002D01*
X230007142Y-78655002D02*
X229959523Y-78464526D01*
X229959523Y-78464526D02*
X229911904Y-78369288D01*
X229911904Y-78369288D02*
X229816666Y-78274050D01*
X229816666Y-78274050D02*
X229673809Y-78226430D01*
X229673809Y-78226430D02*
X229435714Y-78226430D01*
X230864285Y-79226430D02*
X230673809Y-79226430D01*
X230673809Y-79226430D02*
X230578571Y-79178811D01*
X230578571Y-79178811D02*
X230530952Y-79131192D01*
X230530952Y-79131192D02*
X230435714Y-78988335D01*
X230435714Y-78988335D02*
X230388095Y-78797859D01*
X230388095Y-78797859D02*
X230388095Y-78416907D01*
X230388095Y-78416907D02*
X230435714Y-78321669D01*
X230435714Y-78321669D02*
X230483333Y-78274050D01*
X230483333Y-78274050D02*
X230578571Y-78226430D01*
X230578571Y-78226430D02*
X230769047Y-78226430D01*
X230769047Y-78226430D02*
X230864285Y-78274050D01*
X230864285Y-78274050D02*
X230911904Y-78321669D01*
X230911904Y-78321669D02*
X230959523Y-78416907D01*
X230959523Y-78416907D02*
X230959523Y-78655002D01*
X230959523Y-78655002D02*
X230911904Y-78750240D01*
X230911904Y-78750240D02*
X230864285Y-78797859D01*
X230864285Y-78797859D02*
X230769047Y-78845478D01*
X230769047Y-78845478D02*
X230578571Y-78845478D01*
X230578571Y-78845478D02*
X230483333Y-78797859D01*
X230483333Y-78797859D02*
X230435714Y-78750240D01*
X230435714Y-78750240D02*
X230388095Y-78655002D01*
X231340476Y-79131192D02*
X231388095Y-79178811D01*
X231388095Y-79178811D02*
X231483333Y-79226430D01*
X231483333Y-79226430D02*
X231721428Y-79226430D01*
X231721428Y-79226430D02*
X231816666Y-79178811D01*
X231816666Y-79178811D02*
X231864285Y-79131192D01*
X231864285Y-79131192D02*
X231911904Y-79035954D01*
X231911904Y-79035954D02*
X231911904Y-78940716D01*
X231911904Y-78940716D02*
X231864285Y-78797859D01*
X231864285Y-78797859D02*
X231292857Y-78226430D01*
X231292857Y-78226430D02*
X231911904Y-78226430D01*
X48791964Y-99632680D02*
X48791964Y-100632680D01*
X48791964Y-100632680D02*
X49030059Y-100632680D01*
X49030059Y-100632680D02*
X49172916Y-100585061D01*
X49172916Y-100585061D02*
X49268154Y-100489823D01*
X49268154Y-100489823D02*
X49315773Y-100394585D01*
X49315773Y-100394585D02*
X49363392Y-100204109D01*
X49363392Y-100204109D02*
X49363392Y-100061252D01*
X49363392Y-100061252D02*
X49315773Y-99870776D01*
X49315773Y-99870776D02*
X49268154Y-99775538D01*
X49268154Y-99775538D02*
X49172916Y-99680300D01*
X49172916Y-99680300D02*
X49030059Y-99632680D01*
X49030059Y-99632680D02*
X48791964Y-99632680D01*
X50220535Y-100299347D02*
X50220535Y-99632680D01*
X49982440Y-100680300D02*
X49744345Y-99966014D01*
X49744345Y-99966014D02*
X50363392Y-99966014D01*
X50649107Y-100632680D02*
X51315773Y-100632680D01*
X51315773Y-100632680D02*
X50887202Y-99632680D01*
X67841964Y-59151430D02*
X67841964Y-60151430D01*
X67841964Y-60151430D02*
X68080059Y-60151430D01*
X68080059Y-60151430D02*
X68222916Y-60103811D01*
X68222916Y-60103811D02*
X68318154Y-60008573D01*
X68318154Y-60008573D02*
X68365773Y-59913335D01*
X68365773Y-59913335D02*
X68413392Y-59722859D01*
X68413392Y-59722859D02*
X68413392Y-59580002D01*
X68413392Y-59580002D02*
X68365773Y-59389526D01*
X68365773Y-59389526D02*
X68318154Y-59294288D01*
X68318154Y-59294288D02*
X68222916Y-59199050D01*
X68222916Y-59199050D02*
X68080059Y-59151430D01*
X68080059Y-59151430D02*
X67841964Y-59151430D01*
X69270535Y-60151430D02*
X69080059Y-60151430D01*
X69080059Y-60151430D02*
X68984821Y-60103811D01*
X68984821Y-60103811D02*
X68937202Y-60056192D01*
X68937202Y-60056192D02*
X68841964Y-59913335D01*
X68841964Y-59913335D02*
X68794345Y-59722859D01*
X68794345Y-59722859D02*
X68794345Y-59341907D01*
X68794345Y-59341907D02*
X68841964Y-59246669D01*
X68841964Y-59246669D02*
X68889583Y-59199050D01*
X68889583Y-59199050D02*
X68984821Y-59151430D01*
X68984821Y-59151430D02*
X69175297Y-59151430D01*
X69175297Y-59151430D02*
X69270535Y-59199050D01*
X69270535Y-59199050D02*
X69318154Y-59246669D01*
X69318154Y-59246669D02*
X69365773Y-59341907D01*
X69365773Y-59341907D02*
X69365773Y-59580002D01*
X69365773Y-59580002D02*
X69318154Y-59675240D01*
X69318154Y-59675240D02*
X69270535Y-59722859D01*
X69270535Y-59722859D02*
X69175297Y-59770478D01*
X69175297Y-59770478D02*
X68984821Y-59770478D01*
X68984821Y-59770478D02*
X68889583Y-59722859D01*
X68889583Y-59722859D02*
X68841964Y-59675240D01*
X68841964Y-59675240D02*
X68794345Y-59580002D01*
X69937202Y-59722859D02*
X69841964Y-59770478D01*
X69841964Y-59770478D02*
X69794345Y-59818097D01*
X69794345Y-59818097D02*
X69746726Y-59913335D01*
X69746726Y-59913335D02*
X69746726Y-59960954D01*
X69746726Y-59960954D02*
X69794345Y-60056192D01*
X69794345Y-60056192D02*
X69841964Y-60103811D01*
X69841964Y-60103811D02*
X69937202Y-60151430D01*
X69937202Y-60151430D02*
X70127678Y-60151430D01*
X70127678Y-60151430D02*
X70222916Y-60103811D01*
X70222916Y-60103811D02*
X70270535Y-60056192D01*
X70270535Y-60056192D02*
X70318154Y-59960954D01*
X70318154Y-59960954D02*
X70318154Y-59913335D01*
X70318154Y-59913335D02*
X70270535Y-59818097D01*
X70270535Y-59818097D02*
X70222916Y-59770478D01*
X70222916Y-59770478D02*
X70127678Y-59722859D01*
X70127678Y-59722859D02*
X69937202Y-59722859D01*
X69937202Y-59722859D02*
X69841964Y-59675240D01*
X69841964Y-59675240D02*
X69794345Y-59627621D01*
X69794345Y-59627621D02*
X69746726Y-59532383D01*
X69746726Y-59532383D02*
X69746726Y-59341907D01*
X69746726Y-59341907D02*
X69794345Y-59246669D01*
X69794345Y-59246669D02*
X69841964Y-59199050D01*
X69841964Y-59199050D02*
X69937202Y-59151430D01*
X69937202Y-59151430D02*
X70127678Y-59151430D01*
X70127678Y-59151430D02*
X70222916Y-59199050D01*
X70222916Y-59199050D02*
X70270535Y-59246669D01*
X70270535Y-59246669D02*
X70318154Y-59341907D01*
X70318154Y-59341907D02*
X70318154Y-59532383D01*
X70318154Y-59532383D02*
X70270535Y-59627621D01*
X70270535Y-59627621D02*
X70222916Y-59675240D01*
X70222916Y-59675240D02*
X70127678Y-59722859D01*
X97704819Y-89273214D02*
X96704819Y-89273214D01*
X96704819Y-89273214D02*
X96704819Y-89511309D01*
X96704819Y-89511309D02*
X96752438Y-89654166D01*
X96752438Y-89654166D02*
X96847676Y-89749404D01*
X96847676Y-89749404D02*
X96942914Y-89797023D01*
X96942914Y-89797023D02*
X97133390Y-89844642D01*
X97133390Y-89844642D02*
X97276247Y-89844642D01*
X97276247Y-89844642D02*
X97466723Y-89797023D01*
X97466723Y-89797023D02*
X97561961Y-89749404D01*
X97561961Y-89749404D02*
X97657200Y-89654166D01*
X97657200Y-89654166D02*
X97704819Y-89511309D01*
X97704819Y-89511309D02*
X97704819Y-89273214D01*
X97704819Y-90797023D02*
X97704819Y-90225595D01*
X97704819Y-90511309D02*
X96704819Y-90511309D01*
X96704819Y-90511309D02*
X96847676Y-90416071D01*
X96847676Y-90416071D02*
X96942914Y-90320833D01*
X96942914Y-90320833D02*
X96990533Y-90225595D01*
X97704819Y-91749404D02*
X97704819Y-91177976D01*
X97704819Y-91463690D02*
X96704819Y-91463690D01*
X96704819Y-91463690D02*
X96847676Y-91368452D01*
X96847676Y-91368452D02*
X96942914Y-91273214D01*
X96942914Y-91273214D02*
X96990533Y-91177976D01*
X276661904Y-96054819D02*
X276090476Y-96054819D01*
X276376190Y-97054819D02*
X276376190Y-96054819D01*
X275757142Y-97054819D02*
X275757142Y-96054819D01*
X275757142Y-96054819D02*
X275376190Y-96054819D01*
X275376190Y-96054819D02*
X275280952Y-96102438D01*
X275280952Y-96102438D02*
X275233333Y-96150057D01*
X275233333Y-96150057D02*
X275185714Y-96245295D01*
X275185714Y-96245295D02*
X275185714Y-96388152D01*
X275185714Y-96388152D02*
X275233333Y-96483390D01*
X275233333Y-96483390D02*
X275280952Y-96531009D01*
X275280952Y-96531009D02*
X275376190Y-96578628D01*
X275376190Y-96578628D02*
X275757142Y-96578628D01*
X274804761Y-96150057D02*
X274757142Y-96102438D01*
X274757142Y-96102438D02*
X274661904Y-96054819D01*
X274661904Y-96054819D02*
X274423809Y-96054819D01*
X274423809Y-96054819D02*
X274328571Y-96102438D01*
X274328571Y-96102438D02*
X274280952Y-96150057D01*
X274280952Y-96150057D02*
X274233333Y-96245295D01*
X274233333Y-96245295D02*
X274233333Y-96340533D01*
X274233333Y-96340533D02*
X274280952Y-96483390D01*
X274280952Y-96483390D02*
X274852380Y-97054819D01*
X274852380Y-97054819D02*
X274233333Y-97054819D01*
X240248569Y-72629464D02*
X239248569Y-72629464D01*
X239248569Y-72629464D02*
X239248569Y-72867559D01*
X239248569Y-72867559D02*
X239296188Y-73010416D01*
X239296188Y-73010416D02*
X239391426Y-73105654D01*
X239391426Y-73105654D02*
X239486664Y-73153273D01*
X239486664Y-73153273D02*
X239677140Y-73200892D01*
X239677140Y-73200892D02*
X239819997Y-73200892D01*
X239819997Y-73200892D02*
X240010473Y-73153273D01*
X240010473Y-73153273D02*
X240105711Y-73105654D01*
X240105711Y-73105654D02*
X240200950Y-73010416D01*
X240200950Y-73010416D02*
X240248569Y-72867559D01*
X240248569Y-72867559D02*
X240248569Y-72629464D01*
X240248569Y-74153273D02*
X240248569Y-73581845D01*
X240248569Y-73867559D02*
X239248569Y-73867559D01*
X239248569Y-73867559D02*
X239391426Y-73772321D01*
X239391426Y-73772321D02*
X239486664Y-73677083D01*
X239486664Y-73677083D02*
X239534283Y-73581845D01*
X239677140Y-74724702D02*
X239629521Y-74629464D01*
X239629521Y-74629464D02*
X239581902Y-74581845D01*
X239581902Y-74581845D02*
X239486664Y-74534226D01*
X239486664Y-74534226D02*
X239439045Y-74534226D01*
X239439045Y-74534226D02*
X239343807Y-74581845D01*
X239343807Y-74581845D02*
X239296188Y-74629464D01*
X239296188Y-74629464D02*
X239248569Y-74724702D01*
X239248569Y-74724702D02*
X239248569Y-74915178D01*
X239248569Y-74915178D02*
X239296188Y-75010416D01*
X239296188Y-75010416D02*
X239343807Y-75058035D01*
X239343807Y-75058035D02*
X239439045Y-75105654D01*
X239439045Y-75105654D02*
X239486664Y-75105654D01*
X239486664Y-75105654D02*
X239581902Y-75058035D01*
X239581902Y-75058035D02*
X239629521Y-75010416D01*
X239629521Y-75010416D02*
X239677140Y-74915178D01*
X239677140Y-74915178D02*
X239677140Y-74724702D01*
X239677140Y-74724702D02*
X239724759Y-74629464D01*
X239724759Y-74629464D02*
X239772378Y-74581845D01*
X239772378Y-74581845D02*
X239867616Y-74534226D01*
X239867616Y-74534226D02*
X240058092Y-74534226D01*
X240058092Y-74534226D02*
X240153330Y-74581845D01*
X240153330Y-74581845D02*
X240200950Y-74629464D01*
X240200950Y-74629464D02*
X240248569Y-74724702D01*
X240248569Y-74724702D02*
X240248569Y-74915178D01*
X240248569Y-74915178D02*
X240200950Y-75010416D01*
X240200950Y-75010416D02*
X240153330Y-75058035D01*
X240153330Y-75058035D02*
X240058092Y-75105654D01*
X240058092Y-75105654D02*
X239867616Y-75105654D01*
X239867616Y-75105654D02*
X239772378Y-75058035D01*
X239772378Y-75058035D02*
X239724759Y-75010416D01*
X239724759Y-75010416D02*
X239677140Y-74915178D01*
X42348555Y-107768822D02*
X43288247Y-107426802D01*
X43288247Y-107426802D02*
X43206814Y-107203066D01*
X43206814Y-107203066D02*
X43113207Y-107085111D01*
X43113207Y-107085111D02*
X42991139Y-107028189D01*
X42991139Y-107028189D02*
X42885357Y-107016015D01*
X42885357Y-107016015D02*
X42690082Y-107036415D01*
X42690082Y-107036415D02*
X42555840Y-107085275D01*
X42555840Y-107085275D02*
X42393138Y-107195169D01*
X42393138Y-107195169D02*
X42319930Y-107272489D01*
X42319930Y-107272489D02*
X42263008Y-107394557D01*
X42263008Y-107394557D02*
X42267121Y-107545086D01*
X42267121Y-107545086D02*
X42348555Y-107768822D01*
X42486416Y-106198391D02*
X41859954Y-106426404D01*
X42925828Y-106291834D02*
X42336052Y-106759870D01*
X42336052Y-106759870D02*
X42124325Y-106178156D01*
X41501648Y-105441964D02*
X41697088Y-105978931D01*
X41599368Y-105710448D02*
X42539060Y-105368428D01*
X42539060Y-105368428D02*
X42437392Y-105506782D01*
X42437392Y-105506782D02*
X42380471Y-105628850D01*
X42380471Y-105628850D02*
X42368297Y-105734631D01*
X135804819Y-60698214D02*
X134804819Y-60698214D01*
X134804819Y-60698214D02*
X134804819Y-60936309D01*
X134804819Y-60936309D02*
X134852438Y-61079166D01*
X134852438Y-61079166D02*
X134947676Y-61174404D01*
X134947676Y-61174404D02*
X135042914Y-61222023D01*
X135042914Y-61222023D02*
X135233390Y-61269642D01*
X135233390Y-61269642D02*
X135376247Y-61269642D01*
X135376247Y-61269642D02*
X135566723Y-61222023D01*
X135566723Y-61222023D02*
X135661961Y-61174404D01*
X135661961Y-61174404D02*
X135757200Y-61079166D01*
X135757200Y-61079166D02*
X135804819Y-60936309D01*
X135804819Y-60936309D02*
X135804819Y-60698214D01*
X134804819Y-61602976D02*
X134804819Y-62222023D01*
X134804819Y-62222023D02*
X135185771Y-61888690D01*
X135185771Y-61888690D02*
X135185771Y-62031547D01*
X135185771Y-62031547D02*
X135233390Y-62126785D01*
X135233390Y-62126785D02*
X135281009Y-62174404D01*
X135281009Y-62174404D02*
X135376247Y-62222023D01*
X135376247Y-62222023D02*
X135614342Y-62222023D01*
X135614342Y-62222023D02*
X135709580Y-62174404D01*
X135709580Y-62174404D02*
X135757200Y-62126785D01*
X135757200Y-62126785D02*
X135804819Y-62031547D01*
X135804819Y-62031547D02*
X135804819Y-61745833D01*
X135804819Y-61745833D02*
X135757200Y-61650595D01*
X135757200Y-61650595D02*
X135709580Y-61602976D01*
X135804819Y-63174404D02*
X135804819Y-62602976D01*
X135804819Y-62888690D02*
X134804819Y-62888690D01*
X134804819Y-62888690D02*
X134947676Y-62793452D01*
X134947676Y-62793452D02*
X135042914Y-62698214D01*
X135042914Y-62698214D02*
X135090533Y-62602976D01*
X86891964Y-94870180D02*
X86891964Y-95870180D01*
X86891964Y-95870180D02*
X87130059Y-95870180D01*
X87130059Y-95870180D02*
X87272916Y-95822561D01*
X87272916Y-95822561D02*
X87368154Y-95727323D01*
X87368154Y-95727323D02*
X87415773Y-95632085D01*
X87415773Y-95632085D02*
X87463392Y-95441609D01*
X87463392Y-95441609D02*
X87463392Y-95298752D01*
X87463392Y-95298752D02*
X87415773Y-95108276D01*
X87415773Y-95108276D02*
X87368154Y-95013038D01*
X87368154Y-95013038D02*
X87272916Y-94917800D01*
X87272916Y-94917800D02*
X87130059Y-94870180D01*
X87130059Y-94870180D02*
X86891964Y-94870180D01*
X88368154Y-95870180D02*
X87891964Y-95870180D01*
X87891964Y-95870180D02*
X87844345Y-95393990D01*
X87844345Y-95393990D02*
X87891964Y-95441609D01*
X87891964Y-95441609D02*
X87987202Y-95489228D01*
X87987202Y-95489228D02*
X88225297Y-95489228D01*
X88225297Y-95489228D02*
X88320535Y-95441609D01*
X88320535Y-95441609D02*
X88368154Y-95393990D01*
X88368154Y-95393990D02*
X88415773Y-95298752D01*
X88415773Y-95298752D02*
X88415773Y-95060657D01*
X88415773Y-95060657D02*
X88368154Y-94965419D01*
X88368154Y-94965419D02*
X88320535Y-94917800D01*
X88320535Y-94917800D02*
X88225297Y-94870180D01*
X88225297Y-94870180D02*
X87987202Y-94870180D01*
X87987202Y-94870180D02*
X87891964Y-94917800D01*
X87891964Y-94917800D02*
X87844345Y-94965419D01*
X89368154Y-94870180D02*
X88796726Y-94870180D01*
X89082440Y-94870180D02*
X89082440Y-95870180D01*
X89082440Y-95870180D02*
X88987202Y-95727323D01*
X88987202Y-95727323D02*
X88891964Y-95632085D01*
X88891964Y-95632085D02*
X88796726Y-95584466D01*
X116754819Y-55935714D02*
X115754819Y-55935714D01*
X115754819Y-55935714D02*
X115754819Y-56173809D01*
X115754819Y-56173809D02*
X115802438Y-56316666D01*
X115802438Y-56316666D02*
X115897676Y-56411904D01*
X115897676Y-56411904D02*
X115992914Y-56459523D01*
X115992914Y-56459523D02*
X116183390Y-56507142D01*
X116183390Y-56507142D02*
X116326247Y-56507142D01*
X116326247Y-56507142D02*
X116516723Y-56459523D01*
X116516723Y-56459523D02*
X116611961Y-56411904D01*
X116611961Y-56411904D02*
X116707200Y-56316666D01*
X116707200Y-56316666D02*
X116754819Y-56173809D01*
X116754819Y-56173809D02*
X116754819Y-55935714D01*
X115850057Y-56888095D02*
X115802438Y-56935714D01*
X115802438Y-56935714D02*
X115754819Y-57030952D01*
X115754819Y-57030952D02*
X115754819Y-57269047D01*
X115754819Y-57269047D02*
X115802438Y-57364285D01*
X115802438Y-57364285D02*
X115850057Y-57411904D01*
X115850057Y-57411904D02*
X115945295Y-57459523D01*
X115945295Y-57459523D02*
X116040533Y-57459523D01*
X116040533Y-57459523D02*
X116183390Y-57411904D01*
X116183390Y-57411904D02*
X116754819Y-56840476D01*
X116754819Y-56840476D02*
X116754819Y-57459523D01*
X116754819Y-57935714D02*
X116754819Y-58126190D01*
X116754819Y-58126190D02*
X116707200Y-58221428D01*
X116707200Y-58221428D02*
X116659580Y-58269047D01*
X116659580Y-58269047D02*
X116516723Y-58364285D01*
X116516723Y-58364285D02*
X116326247Y-58411904D01*
X116326247Y-58411904D02*
X115945295Y-58411904D01*
X115945295Y-58411904D02*
X115850057Y-58364285D01*
X115850057Y-58364285D02*
X115802438Y-58316666D01*
X115802438Y-58316666D02*
X115754819Y-58221428D01*
X115754819Y-58221428D02*
X115754819Y-58030952D01*
X115754819Y-58030952D02*
X115802438Y-57935714D01*
X115802438Y-57935714D02*
X115850057Y-57888095D01*
X115850057Y-57888095D02*
X115945295Y-57840476D01*
X115945295Y-57840476D02*
X116183390Y-57840476D01*
X116183390Y-57840476D02*
X116278628Y-57888095D01*
X116278628Y-57888095D02*
X116326247Y-57935714D01*
X116326247Y-57935714D02*
X116373866Y-58030952D01*
X116373866Y-58030952D02*
X116373866Y-58221428D01*
X116373866Y-58221428D02*
X116326247Y-58316666D01*
X116326247Y-58316666D02*
X116278628Y-58364285D01*
X116278628Y-58364285D02*
X116183390Y-58411904D01*
X97061069Y-70810714D02*
X96061069Y-70810714D01*
X96061069Y-70810714D02*
X96061069Y-71048809D01*
X96061069Y-71048809D02*
X96108688Y-71191666D01*
X96108688Y-71191666D02*
X96203926Y-71286904D01*
X96203926Y-71286904D02*
X96299164Y-71334523D01*
X96299164Y-71334523D02*
X96489640Y-71382142D01*
X96489640Y-71382142D02*
X96632497Y-71382142D01*
X96632497Y-71382142D02*
X96822973Y-71334523D01*
X96822973Y-71334523D02*
X96918211Y-71286904D01*
X96918211Y-71286904D02*
X97013450Y-71191666D01*
X97013450Y-71191666D02*
X97061069Y-71048809D01*
X97061069Y-71048809D02*
X97061069Y-70810714D01*
X97061069Y-72334523D02*
X97061069Y-71763095D01*
X97061069Y-72048809D02*
X96061069Y-72048809D01*
X96061069Y-72048809D02*
X96203926Y-71953571D01*
X96203926Y-71953571D02*
X96299164Y-71858333D01*
X96299164Y-71858333D02*
X96346783Y-71763095D01*
X97061069Y-72810714D02*
X97061069Y-73001190D01*
X97061069Y-73001190D02*
X97013450Y-73096428D01*
X97013450Y-73096428D02*
X96965830Y-73144047D01*
X96965830Y-73144047D02*
X96822973Y-73239285D01*
X96822973Y-73239285D02*
X96632497Y-73286904D01*
X96632497Y-73286904D02*
X96251545Y-73286904D01*
X96251545Y-73286904D02*
X96156307Y-73239285D01*
X96156307Y-73239285D02*
X96108688Y-73191666D01*
X96108688Y-73191666D02*
X96061069Y-73096428D01*
X96061069Y-73096428D02*
X96061069Y-72905952D01*
X96061069Y-72905952D02*
X96108688Y-72810714D01*
X96108688Y-72810714D02*
X96156307Y-72763095D01*
X96156307Y-72763095D02*
X96251545Y-72715476D01*
X96251545Y-72715476D02*
X96489640Y-72715476D01*
X96489640Y-72715476D02*
X96584878Y-72763095D01*
X96584878Y-72763095D02*
X96632497Y-72810714D01*
X96632497Y-72810714D02*
X96680116Y-72905952D01*
X96680116Y-72905952D02*
X96680116Y-73096428D01*
X96680116Y-73096428D02*
X96632497Y-73191666D01*
X96632497Y-73191666D02*
X96584878Y-73239285D01*
X96584878Y-73239285D02*
X96489640Y-73286904D01*
X280161904Y-95954819D02*
X279590476Y-95954819D01*
X279876190Y-96954819D02*
X279876190Y-95954819D01*
X279257142Y-96954819D02*
X279257142Y-95954819D01*
X279257142Y-95954819D02*
X278876190Y-95954819D01*
X278876190Y-95954819D02*
X278780952Y-96002438D01*
X278780952Y-96002438D02*
X278733333Y-96050057D01*
X278733333Y-96050057D02*
X278685714Y-96145295D01*
X278685714Y-96145295D02*
X278685714Y-96288152D01*
X278685714Y-96288152D02*
X278733333Y-96383390D01*
X278733333Y-96383390D02*
X278780952Y-96431009D01*
X278780952Y-96431009D02*
X278876190Y-96478628D01*
X278876190Y-96478628D02*
X279257142Y-96478628D01*
X277828571Y-96288152D02*
X277828571Y-96954819D01*
X278066666Y-95907200D02*
X278304761Y-96621485D01*
X278304761Y-96621485D02*
X277685714Y-96621485D01*
X89320535Y-39454819D02*
X89320535Y-38454819D01*
X89320535Y-38454819D02*
X89082440Y-38454819D01*
X89082440Y-38454819D02*
X88939583Y-38502438D01*
X88939583Y-38502438D02*
X88844345Y-38597676D01*
X88844345Y-38597676D02*
X88796726Y-38692914D01*
X88796726Y-38692914D02*
X88749107Y-38883390D01*
X88749107Y-38883390D02*
X88749107Y-39026247D01*
X88749107Y-39026247D02*
X88796726Y-39216723D01*
X88796726Y-39216723D02*
X88844345Y-39311961D01*
X88844345Y-39311961D02*
X88939583Y-39407200D01*
X88939583Y-39407200D02*
X89082440Y-39454819D01*
X89082440Y-39454819D02*
X89320535Y-39454819D01*
X88415773Y-38454819D02*
X87749107Y-38454819D01*
X87749107Y-38454819D02*
X88177678Y-39454819D01*
X87463392Y-38454819D02*
X86796726Y-38454819D01*
X86796726Y-38454819D02*
X87225297Y-39454819D01*
X210385714Y-37745180D02*
X210385714Y-38745180D01*
X210385714Y-38745180D02*
X210623809Y-38745180D01*
X210623809Y-38745180D02*
X210766666Y-38697561D01*
X210766666Y-38697561D02*
X210861904Y-38602323D01*
X210861904Y-38602323D02*
X210909523Y-38507085D01*
X210909523Y-38507085D02*
X210957142Y-38316609D01*
X210957142Y-38316609D02*
X210957142Y-38173752D01*
X210957142Y-38173752D02*
X210909523Y-37983276D01*
X210909523Y-37983276D02*
X210861904Y-37888038D01*
X210861904Y-37888038D02*
X210766666Y-37792800D01*
X210766666Y-37792800D02*
X210623809Y-37745180D01*
X210623809Y-37745180D02*
X210385714Y-37745180D01*
X211528571Y-38316609D02*
X211433333Y-38364228D01*
X211433333Y-38364228D02*
X211385714Y-38411847D01*
X211385714Y-38411847D02*
X211338095Y-38507085D01*
X211338095Y-38507085D02*
X211338095Y-38554704D01*
X211338095Y-38554704D02*
X211385714Y-38649942D01*
X211385714Y-38649942D02*
X211433333Y-38697561D01*
X211433333Y-38697561D02*
X211528571Y-38745180D01*
X211528571Y-38745180D02*
X211719047Y-38745180D01*
X211719047Y-38745180D02*
X211814285Y-38697561D01*
X211814285Y-38697561D02*
X211861904Y-38649942D01*
X211861904Y-38649942D02*
X211909523Y-38554704D01*
X211909523Y-38554704D02*
X211909523Y-38507085D01*
X211909523Y-38507085D02*
X211861904Y-38411847D01*
X211861904Y-38411847D02*
X211814285Y-38364228D01*
X211814285Y-38364228D02*
X211719047Y-38316609D01*
X211719047Y-38316609D02*
X211528571Y-38316609D01*
X211528571Y-38316609D02*
X211433333Y-38268990D01*
X211433333Y-38268990D02*
X211385714Y-38221371D01*
X211385714Y-38221371D02*
X211338095Y-38126133D01*
X211338095Y-38126133D02*
X211338095Y-37935657D01*
X211338095Y-37935657D02*
X211385714Y-37840419D01*
X211385714Y-37840419D02*
X211433333Y-37792800D01*
X211433333Y-37792800D02*
X211528571Y-37745180D01*
X211528571Y-37745180D02*
X211719047Y-37745180D01*
X211719047Y-37745180D02*
X211814285Y-37792800D01*
X211814285Y-37792800D02*
X211861904Y-37840419D01*
X211861904Y-37840419D02*
X211909523Y-37935657D01*
X211909523Y-37935657D02*
X211909523Y-38126133D01*
X211909523Y-38126133D02*
X211861904Y-38221371D01*
X211861904Y-38221371D02*
X211814285Y-38268990D01*
X211814285Y-38268990D02*
X211719047Y-38316609D01*
X212290476Y-38649942D02*
X212338095Y-38697561D01*
X212338095Y-38697561D02*
X212433333Y-38745180D01*
X212433333Y-38745180D02*
X212671428Y-38745180D01*
X212671428Y-38745180D02*
X212766666Y-38697561D01*
X212766666Y-38697561D02*
X212814285Y-38649942D01*
X212814285Y-38649942D02*
X212861904Y-38554704D01*
X212861904Y-38554704D02*
X212861904Y-38459466D01*
X212861904Y-38459466D02*
X212814285Y-38316609D01*
X212814285Y-38316609D02*
X212242857Y-37745180D01*
X212242857Y-37745180D02*
X212861904Y-37745180D01*
X279866666Y-90254819D02*
X280199999Y-89778628D01*
X280438094Y-90254819D02*
X280438094Y-89254819D01*
X280438094Y-89254819D02*
X280057142Y-89254819D01*
X280057142Y-89254819D02*
X279961904Y-89302438D01*
X279961904Y-89302438D02*
X279914285Y-89350057D01*
X279914285Y-89350057D02*
X279866666Y-89445295D01*
X279866666Y-89445295D02*
X279866666Y-89588152D01*
X279866666Y-89588152D02*
X279914285Y-89683390D01*
X279914285Y-89683390D02*
X279961904Y-89731009D01*
X279961904Y-89731009D02*
X280057142Y-89778628D01*
X280057142Y-89778628D02*
X280438094Y-89778628D01*
X279009523Y-89588152D02*
X279009523Y-90254819D01*
X279247618Y-89207200D02*
X279485713Y-89921485D01*
X279485713Y-89921485D02*
X278866666Y-89921485D01*
X18566666Y-95754819D02*
X18899999Y-95278628D01*
X19138094Y-95754819D02*
X19138094Y-94754819D01*
X19138094Y-94754819D02*
X18757142Y-94754819D01*
X18757142Y-94754819D02*
X18661904Y-94802438D01*
X18661904Y-94802438D02*
X18614285Y-94850057D01*
X18614285Y-94850057D02*
X18566666Y-94945295D01*
X18566666Y-94945295D02*
X18566666Y-95088152D01*
X18566666Y-95088152D02*
X18614285Y-95183390D01*
X18614285Y-95183390D02*
X18661904Y-95231009D01*
X18661904Y-95231009D02*
X18757142Y-95278628D01*
X18757142Y-95278628D02*
X19138094Y-95278628D01*
X18233332Y-94754819D02*
X17614285Y-94754819D01*
X17614285Y-94754819D02*
X17947618Y-95135771D01*
X17947618Y-95135771D02*
X17804761Y-95135771D01*
X17804761Y-95135771D02*
X17709523Y-95183390D01*
X17709523Y-95183390D02*
X17661904Y-95231009D01*
X17661904Y-95231009D02*
X17614285Y-95326247D01*
X17614285Y-95326247D02*
X17614285Y-95564342D01*
X17614285Y-95564342D02*
X17661904Y-95659580D01*
X17661904Y-95659580D02*
X17709523Y-95707200D01*
X17709523Y-95707200D02*
X17804761Y-95754819D01*
X17804761Y-95754819D02*
X18090475Y-95754819D01*
X18090475Y-95754819D02*
X18185713Y-95707200D01*
X18185713Y-95707200D02*
X18233332Y-95659580D01*
X78654819Y-34504464D02*
X77654819Y-34504464D01*
X77654819Y-34504464D02*
X77654819Y-34742559D01*
X77654819Y-34742559D02*
X77702438Y-34885416D01*
X77702438Y-34885416D02*
X77797676Y-34980654D01*
X77797676Y-34980654D02*
X77892914Y-35028273D01*
X77892914Y-35028273D02*
X78083390Y-35075892D01*
X78083390Y-35075892D02*
X78226247Y-35075892D01*
X78226247Y-35075892D02*
X78416723Y-35028273D01*
X78416723Y-35028273D02*
X78511961Y-34980654D01*
X78511961Y-34980654D02*
X78607200Y-34885416D01*
X78607200Y-34885416D02*
X78654819Y-34742559D01*
X78654819Y-34742559D02*
X78654819Y-34504464D01*
X77654819Y-35409226D02*
X77654819Y-36028273D01*
X77654819Y-36028273D02*
X78035771Y-35694940D01*
X78035771Y-35694940D02*
X78035771Y-35837797D01*
X78035771Y-35837797D02*
X78083390Y-35933035D01*
X78083390Y-35933035D02*
X78131009Y-35980654D01*
X78131009Y-35980654D02*
X78226247Y-36028273D01*
X78226247Y-36028273D02*
X78464342Y-36028273D01*
X78464342Y-36028273D02*
X78559580Y-35980654D01*
X78559580Y-35980654D02*
X78607200Y-35933035D01*
X78607200Y-35933035D02*
X78654819Y-35837797D01*
X78654819Y-35837797D02*
X78654819Y-35552083D01*
X78654819Y-35552083D02*
X78607200Y-35456845D01*
X78607200Y-35456845D02*
X78559580Y-35409226D01*
X77654819Y-36361607D02*
X77654819Y-36980654D01*
X77654819Y-36980654D02*
X78035771Y-36647321D01*
X78035771Y-36647321D02*
X78035771Y-36790178D01*
X78035771Y-36790178D02*
X78083390Y-36885416D01*
X78083390Y-36885416D02*
X78131009Y-36933035D01*
X78131009Y-36933035D02*
X78226247Y-36980654D01*
X78226247Y-36980654D02*
X78464342Y-36980654D01*
X78464342Y-36980654D02*
X78559580Y-36933035D01*
X78559580Y-36933035D02*
X78607200Y-36885416D01*
X78607200Y-36885416D02*
X78654819Y-36790178D01*
X78654819Y-36790178D02*
X78654819Y-36504464D01*
X78654819Y-36504464D02*
X78607200Y-36409226D01*
X78607200Y-36409226D02*
X78559580Y-36361607D01*
X172285714Y-85370180D02*
X172285714Y-86370180D01*
X172285714Y-86370180D02*
X172523809Y-86370180D01*
X172523809Y-86370180D02*
X172666666Y-86322561D01*
X172666666Y-86322561D02*
X172761904Y-86227323D01*
X172761904Y-86227323D02*
X172809523Y-86132085D01*
X172809523Y-86132085D02*
X172857142Y-85941609D01*
X172857142Y-85941609D02*
X172857142Y-85798752D01*
X172857142Y-85798752D02*
X172809523Y-85608276D01*
X172809523Y-85608276D02*
X172761904Y-85513038D01*
X172761904Y-85513038D02*
X172666666Y-85417800D01*
X172666666Y-85417800D02*
X172523809Y-85370180D01*
X172523809Y-85370180D02*
X172285714Y-85370180D01*
X173761904Y-86370180D02*
X173285714Y-86370180D01*
X173285714Y-86370180D02*
X173238095Y-85893990D01*
X173238095Y-85893990D02*
X173285714Y-85941609D01*
X173285714Y-85941609D02*
X173380952Y-85989228D01*
X173380952Y-85989228D02*
X173619047Y-85989228D01*
X173619047Y-85989228D02*
X173714285Y-85941609D01*
X173714285Y-85941609D02*
X173761904Y-85893990D01*
X173761904Y-85893990D02*
X173809523Y-85798752D01*
X173809523Y-85798752D02*
X173809523Y-85560657D01*
X173809523Y-85560657D02*
X173761904Y-85465419D01*
X173761904Y-85465419D02*
X173714285Y-85417800D01*
X173714285Y-85417800D02*
X173619047Y-85370180D01*
X173619047Y-85370180D02*
X173380952Y-85370180D01*
X173380952Y-85370180D02*
X173285714Y-85417800D01*
X173285714Y-85417800D02*
X173238095Y-85465419D01*
X174666666Y-86370180D02*
X174476190Y-86370180D01*
X174476190Y-86370180D02*
X174380952Y-86322561D01*
X174380952Y-86322561D02*
X174333333Y-86274942D01*
X174333333Y-86274942D02*
X174238095Y-86132085D01*
X174238095Y-86132085D02*
X174190476Y-85941609D01*
X174190476Y-85941609D02*
X174190476Y-85560657D01*
X174190476Y-85560657D02*
X174238095Y-85465419D01*
X174238095Y-85465419D02*
X174285714Y-85417800D01*
X174285714Y-85417800D02*
X174380952Y-85370180D01*
X174380952Y-85370180D02*
X174571428Y-85370180D01*
X174571428Y-85370180D02*
X174666666Y-85417800D01*
X174666666Y-85417800D02*
X174714285Y-85465419D01*
X174714285Y-85465419D02*
X174761904Y-85560657D01*
X174761904Y-85560657D02*
X174761904Y-85798752D01*
X174761904Y-85798752D02*
X174714285Y-85893990D01*
X174714285Y-85893990D02*
X174666666Y-85941609D01*
X174666666Y-85941609D02*
X174571428Y-85989228D01*
X174571428Y-85989228D02*
X174380952Y-85989228D01*
X174380952Y-85989228D02*
X174285714Y-85941609D01*
X174285714Y-85941609D02*
X174238095Y-85893990D01*
X174238095Y-85893990D02*
X174190476Y-85798752D01*
X78654819Y-72604464D02*
X77654819Y-72604464D01*
X77654819Y-72604464D02*
X77654819Y-72842559D01*
X77654819Y-72842559D02*
X77702438Y-72985416D01*
X77702438Y-72985416D02*
X77797676Y-73080654D01*
X77797676Y-73080654D02*
X77892914Y-73128273D01*
X77892914Y-73128273D02*
X78083390Y-73175892D01*
X78083390Y-73175892D02*
X78226247Y-73175892D01*
X78226247Y-73175892D02*
X78416723Y-73128273D01*
X78416723Y-73128273D02*
X78511961Y-73080654D01*
X78511961Y-73080654D02*
X78607200Y-72985416D01*
X78607200Y-72985416D02*
X78654819Y-72842559D01*
X78654819Y-72842559D02*
X78654819Y-72604464D01*
X78654819Y-74128273D02*
X78654819Y-73556845D01*
X78654819Y-73842559D02*
X77654819Y-73842559D01*
X77654819Y-73842559D02*
X77797676Y-73747321D01*
X77797676Y-73747321D02*
X77892914Y-73652083D01*
X77892914Y-73652083D02*
X77940533Y-73556845D01*
X77654819Y-74461607D02*
X77654819Y-75128273D01*
X77654819Y-75128273D02*
X78654819Y-74699702D01*
X231864285Y-60773569D02*
X231864285Y-59773569D01*
X231864285Y-59773569D02*
X231626190Y-59773569D01*
X231626190Y-59773569D02*
X231483333Y-59821188D01*
X231483333Y-59821188D02*
X231388095Y-59916426D01*
X231388095Y-59916426D02*
X231340476Y-60011664D01*
X231340476Y-60011664D02*
X231292857Y-60202140D01*
X231292857Y-60202140D02*
X231292857Y-60344997D01*
X231292857Y-60344997D02*
X231340476Y-60535473D01*
X231340476Y-60535473D02*
X231388095Y-60630711D01*
X231388095Y-60630711D02*
X231483333Y-60725950D01*
X231483333Y-60725950D02*
X231626190Y-60773569D01*
X231626190Y-60773569D02*
X231864285Y-60773569D01*
X230959523Y-59773569D02*
X230292857Y-59773569D01*
X230292857Y-59773569D02*
X230721428Y-60773569D01*
X230007142Y-59773569D02*
X229388095Y-59773569D01*
X229388095Y-59773569D02*
X229721428Y-60154521D01*
X229721428Y-60154521D02*
X229578571Y-60154521D01*
X229578571Y-60154521D02*
X229483333Y-60202140D01*
X229483333Y-60202140D02*
X229435714Y-60249759D01*
X229435714Y-60249759D02*
X229388095Y-60344997D01*
X229388095Y-60344997D02*
X229388095Y-60583092D01*
X229388095Y-60583092D02*
X229435714Y-60678330D01*
X229435714Y-60678330D02*
X229483333Y-60725950D01*
X229483333Y-60725950D02*
X229578571Y-60773569D01*
X229578571Y-60773569D02*
X229864285Y-60773569D01*
X229864285Y-60773569D02*
X229959523Y-60725950D01*
X229959523Y-60725950D02*
X230007142Y-60678330D01*
X221198569Y-70248214D02*
X220198569Y-70248214D01*
X220198569Y-70248214D02*
X220198569Y-70486309D01*
X220198569Y-70486309D02*
X220246188Y-70629166D01*
X220246188Y-70629166D02*
X220341426Y-70724404D01*
X220341426Y-70724404D02*
X220436664Y-70772023D01*
X220436664Y-70772023D02*
X220627140Y-70819642D01*
X220627140Y-70819642D02*
X220769997Y-70819642D01*
X220769997Y-70819642D02*
X220960473Y-70772023D01*
X220960473Y-70772023D02*
X221055711Y-70724404D01*
X221055711Y-70724404D02*
X221150950Y-70629166D01*
X221150950Y-70629166D02*
X221198569Y-70486309D01*
X221198569Y-70486309D02*
X221198569Y-70248214D01*
X220293807Y-71200595D02*
X220246188Y-71248214D01*
X220246188Y-71248214D02*
X220198569Y-71343452D01*
X220198569Y-71343452D02*
X220198569Y-71581547D01*
X220198569Y-71581547D02*
X220246188Y-71676785D01*
X220246188Y-71676785D02*
X220293807Y-71724404D01*
X220293807Y-71724404D02*
X220389045Y-71772023D01*
X220389045Y-71772023D02*
X220484283Y-71772023D01*
X220484283Y-71772023D02*
X220627140Y-71724404D01*
X220627140Y-71724404D02*
X221198569Y-71152976D01*
X221198569Y-71152976D02*
X221198569Y-71772023D01*
X220198569Y-72391071D02*
X220198569Y-72486309D01*
X220198569Y-72486309D02*
X220246188Y-72581547D01*
X220246188Y-72581547D02*
X220293807Y-72629166D01*
X220293807Y-72629166D02*
X220389045Y-72676785D01*
X220389045Y-72676785D02*
X220579521Y-72724404D01*
X220579521Y-72724404D02*
X220817616Y-72724404D01*
X220817616Y-72724404D02*
X221008092Y-72676785D01*
X221008092Y-72676785D02*
X221103330Y-72629166D01*
X221103330Y-72629166D02*
X221150950Y-72581547D01*
X221150950Y-72581547D02*
X221198569Y-72486309D01*
X221198569Y-72486309D02*
X221198569Y-72391071D01*
X221198569Y-72391071D02*
X221150950Y-72295833D01*
X221150950Y-72295833D02*
X221103330Y-72248214D01*
X221103330Y-72248214D02*
X221008092Y-72200595D01*
X221008092Y-72200595D02*
X220817616Y-72152976D01*
X220817616Y-72152976D02*
X220579521Y-72152976D01*
X220579521Y-72152976D02*
X220389045Y-72200595D01*
X220389045Y-72200595D02*
X220293807Y-72248214D01*
X220293807Y-72248214D02*
X220246188Y-72295833D01*
X220246188Y-72295833D02*
X220198569Y-72391071D01*
X105941964Y-99632680D02*
X105941964Y-100632680D01*
X105941964Y-100632680D02*
X106180059Y-100632680D01*
X106180059Y-100632680D02*
X106322916Y-100585061D01*
X106322916Y-100585061D02*
X106418154Y-100489823D01*
X106418154Y-100489823D02*
X106465773Y-100394585D01*
X106465773Y-100394585D02*
X106513392Y-100204109D01*
X106513392Y-100204109D02*
X106513392Y-100061252D01*
X106513392Y-100061252D02*
X106465773Y-99870776D01*
X106465773Y-99870776D02*
X106418154Y-99775538D01*
X106418154Y-99775538D02*
X106322916Y-99680300D01*
X106322916Y-99680300D02*
X106180059Y-99632680D01*
X106180059Y-99632680D02*
X105941964Y-99632680D01*
X107418154Y-100632680D02*
X106941964Y-100632680D01*
X106941964Y-100632680D02*
X106894345Y-100156490D01*
X106894345Y-100156490D02*
X106941964Y-100204109D01*
X106941964Y-100204109D02*
X107037202Y-100251728D01*
X107037202Y-100251728D02*
X107275297Y-100251728D01*
X107275297Y-100251728D02*
X107370535Y-100204109D01*
X107370535Y-100204109D02*
X107418154Y-100156490D01*
X107418154Y-100156490D02*
X107465773Y-100061252D01*
X107465773Y-100061252D02*
X107465773Y-99823157D01*
X107465773Y-99823157D02*
X107418154Y-99727919D01*
X107418154Y-99727919D02*
X107370535Y-99680300D01*
X107370535Y-99680300D02*
X107275297Y-99632680D01*
X107275297Y-99632680D02*
X107037202Y-99632680D01*
X107037202Y-99632680D02*
X106941964Y-99680300D01*
X106941964Y-99680300D02*
X106894345Y-99727919D01*
X107799107Y-100632680D02*
X108418154Y-100632680D01*
X108418154Y-100632680D02*
X108084821Y-100251728D01*
X108084821Y-100251728D02*
X108227678Y-100251728D01*
X108227678Y-100251728D02*
X108322916Y-100204109D01*
X108322916Y-100204109D02*
X108370535Y-100156490D01*
X108370535Y-100156490D02*
X108418154Y-100061252D01*
X108418154Y-100061252D02*
X108418154Y-99823157D01*
X108418154Y-99823157D02*
X108370535Y-99727919D01*
X108370535Y-99727919D02*
X108322916Y-99680300D01*
X108322916Y-99680300D02*
X108227678Y-99632680D01*
X108227678Y-99632680D02*
X107941964Y-99632680D01*
X107941964Y-99632680D02*
X107846726Y-99680300D01*
X107846726Y-99680300D02*
X107799107Y-99727919D01*
X135158269Y-41734614D02*
X134158269Y-41734614D01*
X134158269Y-41734614D02*
X134158269Y-41972709D01*
X134158269Y-41972709D02*
X134205888Y-42115566D01*
X134205888Y-42115566D02*
X134301126Y-42210804D01*
X134301126Y-42210804D02*
X134396364Y-42258423D01*
X134396364Y-42258423D02*
X134586840Y-42306042D01*
X134586840Y-42306042D02*
X134729697Y-42306042D01*
X134729697Y-42306042D02*
X134920173Y-42258423D01*
X134920173Y-42258423D02*
X135015411Y-42210804D01*
X135015411Y-42210804D02*
X135110650Y-42115566D01*
X135110650Y-42115566D02*
X135158269Y-41972709D01*
X135158269Y-41972709D02*
X135158269Y-41734614D01*
X134158269Y-42639376D02*
X134158269Y-43258423D01*
X134158269Y-43258423D02*
X134539221Y-42925090D01*
X134539221Y-42925090D02*
X134539221Y-43067947D01*
X134539221Y-43067947D02*
X134586840Y-43163185D01*
X134586840Y-43163185D02*
X134634459Y-43210804D01*
X134634459Y-43210804D02*
X134729697Y-43258423D01*
X134729697Y-43258423D02*
X134967792Y-43258423D01*
X134967792Y-43258423D02*
X135063030Y-43210804D01*
X135063030Y-43210804D02*
X135110650Y-43163185D01*
X135110650Y-43163185D02*
X135158269Y-43067947D01*
X135158269Y-43067947D02*
X135158269Y-42782233D01*
X135158269Y-42782233D02*
X135110650Y-42686995D01*
X135110650Y-42686995D02*
X135063030Y-42639376D01*
X135158269Y-43734614D02*
X135158269Y-43925090D01*
X135158269Y-43925090D02*
X135110650Y-44020328D01*
X135110650Y-44020328D02*
X135063030Y-44067947D01*
X135063030Y-44067947D02*
X134920173Y-44163185D01*
X134920173Y-44163185D02*
X134729697Y-44210804D01*
X134729697Y-44210804D02*
X134348745Y-44210804D01*
X134348745Y-44210804D02*
X134253507Y-44163185D01*
X134253507Y-44163185D02*
X134205888Y-44115566D01*
X134205888Y-44115566D02*
X134158269Y-44020328D01*
X134158269Y-44020328D02*
X134158269Y-43829852D01*
X134158269Y-43829852D02*
X134205888Y-43734614D01*
X134205888Y-43734614D02*
X134253507Y-43686995D01*
X134253507Y-43686995D02*
X134348745Y-43639376D01*
X134348745Y-43639376D02*
X134586840Y-43639376D01*
X134586840Y-43639376D02*
X134682078Y-43686995D01*
X134682078Y-43686995D02*
X134729697Y-43734614D01*
X134729697Y-43734614D02*
X134777316Y-43829852D01*
X134777316Y-43829852D02*
X134777316Y-44020328D01*
X134777316Y-44020328D02*
X134729697Y-44115566D01*
X134729697Y-44115566D02*
X134682078Y-44163185D01*
X134682078Y-44163185D02*
X134586840Y-44210804D01*
X25455654Y-91219319D02*
X24884226Y-91219319D01*
X25169940Y-92219319D02*
X25169940Y-91219319D01*
X24550892Y-92219319D02*
X24550892Y-91219319D01*
X24550892Y-91219319D02*
X24169940Y-91219319D01*
X24169940Y-91219319D02*
X24074702Y-91266938D01*
X24074702Y-91266938D02*
X24027083Y-91314557D01*
X24027083Y-91314557D02*
X23979464Y-91409795D01*
X23979464Y-91409795D02*
X23979464Y-91552652D01*
X23979464Y-91552652D02*
X24027083Y-91647890D01*
X24027083Y-91647890D02*
X24074702Y-91695509D01*
X24074702Y-91695509D02*
X24169940Y-91743128D01*
X24169940Y-91743128D02*
X24550892Y-91743128D01*
X23027083Y-92219319D02*
X23598511Y-92219319D01*
X23312797Y-92219319D02*
X23312797Y-91219319D01*
X23312797Y-91219319D02*
X23408035Y-91362176D01*
X23408035Y-91362176D02*
X23503273Y-91457414D01*
X23503273Y-91457414D02*
X23598511Y-91505033D01*
X78654819Y-53554464D02*
X77654819Y-53554464D01*
X77654819Y-53554464D02*
X77654819Y-53792559D01*
X77654819Y-53792559D02*
X77702438Y-53935416D01*
X77702438Y-53935416D02*
X77797676Y-54030654D01*
X77797676Y-54030654D02*
X77892914Y-54078273D01*
X77892914Y-54078273D02*
X78083390Y-54125892D01*
X78083390Y-54125892D02*
X78226247Y-54125892D01*
X78226247Y-54125892D02*
X78416723Y-54078273D01*
X78416723Y-54078273D02*
X78511961Y-54030654D01*
X78511961Y-54030654D02*
X78607200Y-53935416D01*
X78607200Y-53935416D02*
X78654819Y-53792559D01*
X78654819Y-53792559D02*
X78654819Y-53554464D01*
X77750057Y-54506845D02*
X77702438Y-54554464D01*
X77702438Y-54554464D02*
X77654819Y-54649702D01*
X77654819Y-54649702D02*
X77654819Y-54887797D01*
X77654819Y-54887797D02*
X77702438Y-54983035D01*
X77702438Y-54983035D02*
X77750057Y-55030654D01*
X77750057Y-55030654D02*
X77845295Y-55078273D01*
X77845295Y-55078273D02*
X77940533Y-55078273D01*
X77940533Y-55078273D02*
X78083390Y-55030654D01*
X78083390Y-55030654D02*
X78654819Y-54459226D01*
X78654819Y-54459226D02*
X78654819Y-55078273D01*
X77654819Y-55983035D02*
X77654819Y-55506845D01*
X77654819Y-55506845D02*
X78131009Y-55459226D01*
X78131009Y-55459226D02*
X78083390Y-55506845D01*
X78083390Y-55506845D02*
X78035771Y-55602083D01*
X78035771Y-55602083D02*
X78035771Y-55840178D01*
X78035771Y-55840178D02*
X78083390Y-55935416D01*
X78083390Y-55935416D02*
X78131009Y-55983035D01*
X78131009Y-55983035D02*
X78226247Y-56030654D01*
X78226247Y-56030654D02*
X78464342Y-56030654D01*
X78464342Y-56030654D02*
X78559580Y-55983035D01*
X78559580Y-55983035D02*
X78607200Y-55935416D01*
X78607200Y-55935416D02*
X78654819Y-55840178D01*
X78654819Y-55840178D02*
X78654819Y-55602083D01*
X78654819Y-55602083D02*
X78607200Y-55506845D01*
X78607200Y-55506845D02*
X78559580Y-55459226D01*
X240248569Y-91679464D02*
X239248569Y-91679464D01*
X239248569Y-91679464D02*
X239248569Y-91917559D01*
X239248569Y-91917559D02*
X239296188Y-92060416D01*
X239296188Y-92060416D02*
X239391426Y-92155654D01*
X239391426Y-92155654D02*
X239486664Y-92203273D01*
X239486664Y-92203273D02*
X239677140Y-92250892D01*
X239677140Y-92250892D02*
X239819997Y-92250892D01*
X239819997Y-92250892D02*
X240010473Y-92203273D01*
X240010473Y-92203273D02*
X240105711Y-92155654D01*
X240105711Y-92155654D02*
X240200950Y-92060416D01*
X240200950Y-92060416D02*
X240248569Y-91917559D01*
X240248569Y-91917559D02*
X240248569Y-91679464D01*
X240248569Y-93203273D02*
X240248569Y-92631845D01*
X240248569Y-92917559D02*
X239248569Y-92917559D01*
X239248569Y-92917559D02*
X239391426Y-92822321D01*
X239391426Y-92822321D02*
X239486664Y-92727083D01*
X239486664Y-92727083D02*
X239534283Y-92631845D01*
X239248569Y-93822321D02*
X239248569Y-93917559D01*
X239248569Y-93917559D02*
X239296188Y-94012797D01*
X239296188Y-94012797D02*
X239343807Y-94060416D01*
X239343807Y-94060416D02*
X239439045Y-94108035D01*
X239439045Y-94108035D02*
X239629521Y-94155654D01*
X239629521Y-94155654D02*
X239867616Y-94155654D01*
X239867616Y-94155654D02*
X240058092Y-94108035D01*
X240058092Y-94108035D02*
X240153330Y-94060416D01*
X240153330Y-94060416D02*
X240200950Y-94012797D01*
X240200950Y-94012797D02*
X240248569Y-93917559D01*
X240248569Y-93917559D02*
X240248569Y-93822321D01*
X240248569Y-93822321D02*
X240200950Y-93727083D01*
X240200950Y-93727083D02*
X240153330Y-93679464D01*
X240153330Y-93679464D02*
X240058092Y-93631845D01*
X240058092Y-93631845D02*
X239867616Y-93584226D01*
X239867616Y-93584226D02*
X239629521Y-93584226D01*
X239629521Y-93584226D02*
X239439045Y-93631845D01*
X239439045Y-93631845D02*
X239343807Y-93679464D01*
X239343807Y-93679464D02*
X239296188Y-93727083D01*
X239296188Y-93727083D02*
X239248569Y-93822321D01*
X259298569Y-94536905D02*
X258298569Y-94536905D01*
X258298569Y-94536905D02*
X258298569Y-94775000D01*
X258298569Y-94775000D02*
X258346188Y-94917857D01*
X258346188Y-94917857D02*
X258441426Y-95013095D01*
X258441426Y-95013095D02*
X258536664Y-95060714D01*
X258536664Y-95060714D02*
X258727140Y-95108333D01*
X258727140Y-95108333D02*
X258869997Y-95108333D01*
X258869997Y-95108333D02*
X259060473Y-95060714D01*
X259060473Y-95060714D02*
X259155711Y-95013095D01*
X259155711Y-95013095D02*
X259250950Y-94917857D01*
X259250950Y-94917857D02*
X259298569Y-94775000D01*
X259298569Y-94775000D02*
X259298569Y-94536905D01*
X258727140Y-95679762D02*
X258679521Y-95584524D01*
X258679521Y-95584524D02*
X258631902Y-95536905D01*
X258631902Y-95536905D02*
X258536664Y-95489286D01*
X258536664Y-95489286D02*
X258489045Y-95489286D01*
X258489045Y-95489286D02*
X258393807Y-95536905D01*
X258393807Y-95536905D02*
X258346188Y-95584524D01*
X258346188Y-95584524D02*
X258298569Y-95679762D01*
X258298569Y-95679762D02*
X258298569Y-95870238D01*
X258298569Y-95870238D02*
X258346188Y-95965476D01*
X258346188Y-95965476D02*
X258393807Y-96013095D01*
X258393807Y-96013095D02*
X258489045Y-96060714D01*
X258489045Y-96060714D02*
X258536664Y-96060714D01*
X258536664Y-96060714D02*
X258631902Y-96013095D01*
X258631902Y-96013095D02*
X258679521Y-95965476D01*
X258679521Y-95965476D02*
X258727140Y-95870238D01*
X258727140Y-95870238D02*
X258727140Y-95679762D01*
X258727140Y-95679762D02*
X258774759Y-95584524D01*
X258774759Y-95584524D02*
X258822378Y-95536905D01*
X258822378Y-95536905D02*
X258917616Y-95489286D01*
X258917616Y-95489286D02*
X259108092Y-95489286D01*
X259108092Y-95489286D02*
X259203330Y-95536905D01*
X259203330Y-95536905D02*
X259250950Y-95584524D01*
X259250950Y-95584524D02*
X259298569Y-95679762D01*
X259298569Y-95679762D02*
X259298569Y-95870238D01*
X259298569Y-95870238D02*
X259250950Y-95965476D01*
X259250950Y-95965476D02*
X259203330Y-96013095D01*
X259203330Y-96013095D02*
X259108092Y-96060714D01*
X259108092Y-96060714D02*
X258917616Y-96060714D01*
X258917616Y-96060714D02*
X258822378Y-96013095D01*
X258822378Y-96013095D02*
X258774759Y-95965476D01*
X258774759Y-95965476D02*
X258727140Y-95870238D01*
X135804819Y-98798214D02*
X134804819Y-98798214D01*
X134804819Y-98798214D02*
X134804819Y-99036309D01*
X134804819Y-99036309D02*
X134852438Y-99179166D01*
X134852438Y-99179166D02*
X134947676Y-99274404D01*
X134947676Y-99274404D02*
X135042914Y-99322023D01*
X135042914Y-99322023D02*
X135233390Y-99369642D01*
X135233390Y-99369642D02*
X135376247Y-99369642D01*
X135376247Y-99369642D02*
X135566723Y-99322023D01*
X135566723Y-99322023D02*
X135661961Y-99274404D01*
X135661961Y-99274404D02*
X135757200Y-99179166D01*
X135757200Y-99179166D02*
X135804819Y-99036309D01*
X135804819Y-99036309D02*
X135804819Y-98798214D01*
X135804819Y-100322023D02*
X135804819Y-99750595D01*
X135804819Y-100036309D02*
X134804819Y-100036309D01*
X134804819Y-100036309D02*
X134947676Y-99941071D01*
X134947676Y-99941071D02*
X135042914Y-99845833D01*
X135042914Y-99845833D02*
X135090533Y-99750595D01*
X134804819Y-101226785D02*
X134804819Y-100750595D01*
X134804819Y-100750595D02*
X135281009Y-100702976D01*
X135281009Y-100702976D02*
X135233390Y-100750595D01*
X135233390Y-100750595D02*
X135185771Y-100845833D01*
X135185771Y-100845833D02*
X135185771Y-101083928D01*
X135185771Y-101083928D02*
X135233390Y-101179166D01*
X135233390Y-101179166D02*
X135281009Y-101226785D01*
X135281009Y-101226785D02*
X135376247Y-101274404D01*
X135376247Y-101274404D02*
X135614342Y-101274404D01*
X135614342Y-101274404D02*
X135709580Y-101226785D01*
X135709580Y-101226785D02*
X135757200Y-101179166D01*
X135757200Y-101179166D02*
X135804819Y-101083928D01*
X135804819Y-101083928D02*
X135804819Y-100845833D01*
X135804819Y-100845833D02*
X135757200Y-100750595D01*
X135757200Y-100750595D02*
X135709580Y-100702976D01*
X221198569Y-51198214D02*
X220198569Y-51198214D01*
X220198569Y-51198214D02*
X220198569Y-51436309D01*
X220198569Y-51436309D02*
X220246188Y-51579166D01*
X220246188Y-51579166D02*
X220341426Y-51674404D01*
X220341426Y-51674404D02*
X220436664Y-51722023D01*
X220436664Y-51722023D02*
X220627140Y-51769642D01*
X220627140Y-51769642D02*
X220769997Y-51769642D01*
X220769997Y-51769642D02*
X220960473Y-51722023D01*
X220960473Y-51722023D02*
X221055711Y-51674404D01*
X221055711Y-51674404D02*
X221150950Y-51579166D01*
X221150950Y-51579166D02*
X221198569Y-51436309D01*
X221198569Y-51436309D02*
X221198569Y-51198214D01*
X220293807Y-52150595D02*
X220246188Y-52198214D01*
X220246188Y-52198214D02*
X220198569Y-52293452D01*
X220198569Y-52293452D02*
X220198569Y-52531547D01*
X220198569Y-52531547D02*
X220246188Y-52626785D01*
X220246188Y-52626785D02*
X220293807Y-52674404D01*
X220293807Y-52674404D02*
X220389045Y-52722023D01*
X220389045Y-52722023D02*
X220484283Y-52722023D01*
X220484283Y-52722023D02*
X220627140Y-52674404D01*
X220627140Y-52674404D02*
X221198569Y-52102976D01*
X221198569Y-52102976D02*
X221198569Y-52722023D01*
X220627140Y-53293452D02*
X220579521Y-53198214D01*
X220579521Y-53198214D02*
X220531902Y-53150595D01*
X220531902Y-53150595D02*
X220436664Y-53102976D01*
X220436664Y-53102976D02*
X220389045Y-53102976D01*
X220389045Y-53102976D02*
X220293807Y-53150595D01*
X220293807Y-53150595D02*
X220246188Y-53198214D01*
X220246188Y-53198214D02*
X220198569Y-53293452D01*
X220198569Y-53293452D02*
X220198569Y-53483928D01*
X220198569Y-53483928D02*
X220246188Y-53579166D01*
X220246188Y-53579166D02*
X220293807Y-53626785D01*
X220293807Y-53626785D02*
X220389045Y-53674404D01*
X220389045Y-53674404D02*
X220436664Y-53674404D01*
X220436664Y-53674404D02*
X220531902Y-53626785D01*
X220531902Y-53626785D02*
X220579521Y-53579166D01*
X220579521Y-53579166D02*
X220627140Y-53483928D01*
X220627140Y-53483928D02*
X220627140Y-53293452D01*
X220627140Y-53293452D02*
X220674759Y-53198214D01*
X220674759Y-53198214D02*
X220722378Y-53150595D01*
X220722378Y-53150595D02*
X220817616Y-53102976D01*
X220817616Y-53102976D02*
X221008092Y-53102976D01*
X221008092Y-53102976D02*
X221103330Y-53150595D01*
X221103330Y-53150595D02*
X221150950Y-53198214D01*
X221150950Y-53198214D02*
X221198569Y-53293452D01*
X221198569Y-53293452D02*
X221198569Y-53483928D01*
X221198569Y-53483928D02*
X221150950Y-53579166D01*
X221150950Y-53579166D02*
X221103330Y-53626785D01*
X221103330Y-53626785D02*
X221008092Y-53674404D01*
X221008092Y-53674404D02*
X220817616Y-53674404D01*
X220817616Y-53674404D02*
X220722378Y-53626785D01*
X220722378Y-53626785D02*
X220674759Y-53579166D01*
X220674759Y-53579166D02*
X220627140Y-53483928D01*
X174714285Y-67917319D02*
X174714285Y-66917319D01*
X174714285Y-66917319D02*
X174476190Y-66917319D01*
X174476190Y-66917319D02*
X174333333Y-66964938D01*
X174333333Y-66964938D02*
X174238095Y-67060176D01*
X174238095Y-67060176D02*
X174190476Y-67155414D01*
X174190476Y-67155414D02*
X174142857Y-67345890D01*
X174142857Y-67345890D02*
X174142857Y-67488747D01*
X174142857Y-67488747D02*
X174190476Y-67679223D01*
X174190476Y-67679223D02*
X174238095Y-67774461D01*
X174238095Y-67774461D02*
X174333333Y-67869700D01*
X174333333Y-67869700D02*
X174476190Y-67917319D01*
X174476190Y-67917319D02*
X174714285Y-67917319D01*
X173809523Y-66917319D02*
X173142857Y-66917319D01*
X173142857Y-66917319D02*
X173571428Y-67917319D01*
X172571428Y-66917319D02*
X172476190Y-66917319D01*
X172476190Y-66917319D02*
X172380952Y-66964938D01*
X172380952Y-66964938D02*
X172333333Y-67012557D01*
X172333333Y-67012557D02*
X172285714Y-67107795D01*
X172285714Y-67107795D02*
X172238095Y-67298271D01*
X172238095Y-67298271D02*
X172238095Y-67536366D01*
X172238095Y-67536366D02*
X172285714Y-67726842D01*
X172285714Y-67726842D02*
X172333333Y-67822080D01*
X172333333Y-67822080D02*
X172380952Y-67869700D01*
X172380952Y-67869700D02*
X172476190Y-67917319D01*
X172476190Y-67917319D02*
X172571428Y-67917319D01*
X172571428Y-67917319D02*
X172666666Y-67869700D01*
X172666666Y-67869700D02*
X172714285Y-67822080D01*
X172714285Y-67822080D02*
X172761904Y-67726842D01*
X172761904Y-67726842D02*
X172809523Y-67536366D01*
X172809523Y-67536366D02*
X172809523Y-67298271D01*
X172809523Y-67298271D02*
X172761904Y-67107795D01*
X172761904Y-67107795D02*
X172714285Y-67012557D01*
X172714285Y-67012557D02*
X172666666Y-66964938D01*
X172666666Y-66964938D02*
X172571428Y-66917319D01*
X191335714Y-80607680D02*
X191335714Y-81607680D01*
X191335714Y-81607680D02*
X191573809Y-81607680D01*
X191573809Y-81607680D02*
X191716666Y-81560061D01*
X191716666Y-81560061D02*
X191811904Y-81464823D01*
X191811904Y-81464823D02*
X191859523Y-81369585D01*
X191859523Y-81369585D02*
X191907142Y-81179109D01*
X191907142Y-81179109D02*
X191907142Y-81036252D01*
X191907142Y-81036252D02*
X191859523Y-80845776D01*
X191859523Y-80845776D02*
X191811904Y-80750538D01*
X191811904Y-80750538D02*
X191716666Y-80655300D01*
X191716666Y-80655300D02*
X191573809Y-80607680D01*
X191573809Y-80607680D02*
X191335714Y-80607680D01*
X192811904Y-81607680D02*
X192335714Y-81607680D01*
X192335714Y-81607680D02*
X192288095Y-81131490D01*
X192288095Y-81131490D02*
X192335714Y-81179109D01*
X192335714Y-81179109D02*
X192430952Y-81226728D01*
X192430952Y-81226728D02*
X192669047Y-81226728D01*
X192669047Y-81226728D02*
X192764285Y-81179109D01*
X192764285Y-81179109D02*
X192811904Y-81131490D01*
X192811904Y-81131490D02*
X192859523Y-81036252D01*
X192859523Y-81036252D02*
X192859523Y-80798157D01*
X192859523Y-80798157D02*
X192811904Y-80702919D01*
X192811904Y-80702919D02*
X192764285Y-80655300D01*
X192764285Y-80655300D02*
X192669047Y-80607680D01*
X192669047Y-80607680D02*
X192430952Y-80607680D01*
X192430952Y-80607680D02*
X192335714Y-80655300D01*
X192335714Y-80655300D02*
X192288095Y-80702919D01*
X193430952Y-81179109D02*
X193335714Y-81226728D01*
X193335714Y-81226728D02*
X193288095Y-81274347D01*
X193288095Y-81274347D02*
X193240476Y-81369585D01*
X193240476Y-81369585D02*
X193240476Y-81417204D01*
X193240476Y-81417204D02*
X193288095Y-81512442D01*
X193288095Y-81512442D02*
X193335714Y-81560061D01*
X193335714Y-81560061D02*
X193430952Y-81607680D01*
X193430952Y-81607680D02*
X193621428Y-81607680D01*
X193621428Y-81607680D02*
X193716666Y-81560061D01*
X193716666Y-81560061D02*
X193764285Y-81512442D01*
X193764285Y-81512442D02*
X193811904Y-81417204D01*
X193811904Y-81417204D02*
X193811904Y-81369585D01*
X193811904Y-81369585D02*
X193764285Y-81274347D01*
X193764285Y-81274347D02*
X193716666Y-81226728D01*
X193716666Y-81226728D02*
X193621428Y-81179109D01*
X193621428Y-81179109D02*
X193430952Y-81179109D01*
X193430952Y-81179109D02*
X193335714Y-81131490D01*
X193335714Y-81131490D02*
X193288095Y-81083871D01*
X193288095Y-81083871D02*
X193240476Y-80988633D01*
X193240476Y-80988633D02*
X193240476Y-80798157D01*
X193240476Y-80798157D02*
X193288095Y-80702919D01*
X193288095Y-80702919D02*
X193335714Y-80655300D01*
X193335714Y-80655300D02*
X193430952Y-80607680D01*
X193430952Y-80607680D02*
X193621428Y-80607680D01*
X193621428Y-80607680D02*
X193716666Y-80655300D01*
X193716666Y-80655300D02*
X193764285Y-80702919D01*
X193764285Y-80702919D02*
X193811904Y-80798157D01*
X193811904Y-80798157D02*
X193811904Y-80988633D01*
X193811904Y-80988633D02*
X193764285Y-81083871D01*
X193764285Y-81083871D02*
X193716666Y-81131490D01*
X193716666Y-81131490D02*
X193621428Y-81179109D01*
%TO.C,D42*%
D11*
X271765640Y-113819404D02*
X273137141Y-110051237D01*
X273645025Y-114503445D02*
X271765640Y-113819404D01*
X273645025Y-114503445D02*
X275016526Y-110735277D01*
%TO.C,D14*%
X198693750Y-97635000D02*
X198693750Y-93625000D01*
X200693750Y-97635000D02*
X198693750Y-97635000D01*
X200693750Y-97635000D02*
X200693750Y-93625000D01*
%TO.C,D35*%
X94250000Y-35697500D02*
X94250000Y-31687500D01*
X96250000Y-35697500D02*
X94250000Y-35697500D01*
X96250000Y-35697500D02*
X96250000Y-31687500D01*
%TO.C,D22*%
X198693750Y-78585000D02*
X198693750Y-74575000D01*
X200693750Y-78585000D02*
X198693750Y-78585000D01*
X200693750Y-78585000D02*
X200693750Y-74575000D01*
%TO.C,D46*%
X169850000Y-100400000D02*
X169850000Y-104150000D01*
X169850000Y-104150000D02*
X176425000Y-104150000D01*
X177150000Y-100400000D02*
X169850000Y-100400000D01*
X177150000Y-103425000D02*
X176425000Y-104150000D01*
X177150000Y-103425000D02*
X177150000Y-100400000D01*
X176375000Y-103925000D02*
X176075000Y-103925000D01*
X176225000Y-103725000D01*
X176375000Y-103925000D01*
G36*
X176375000Y-103925000D02*
G01*
X176075000Y-103925000D01*
X176225000Y-103725000D01*
X176375000Y-103925000D01*
G37*
%TO.C,D61*%
X65406250Y-74181250D02*
X65406250Y-77931250D01*
X65406250Y-77931250D02*
X71981250Y-77931250D01*
X72706250Y-74181250D02*
X65406250Y-74181250D01*
X72706250Y-77206250D02*
X71981250Y-77931250D01*
X72706250Y-77206250D02*
X72706250Y-74181250D01*
X71931250Y-77706250D02*
X71631250Y-77706250D01*
X71781250Y-77506250D01*
X71931250Y-77706250D01*
G36*
X71931250Y-77706250D02*
G01*
X71631250Y-77706250D01*
X71781250Y-77506250D01*
X71931250Y-77706250D01*
G37*
%TO.C,D4*%
X255843750Y-59535000D02*
X255843750Y-55525000D01*
X257843750Y-59535000D02*
X255843750Y-59535000D01*
X257843750Y-59535000D02*
X257843750Y-55525000D01*
%TO.C,D79*%
X46356250Y-38462500D02*
X46356250Y-42212500D01*
X46356250Y-42212500D02*
X52931250Y-42212500D01*
X53656250Y-38462500D02*
X46356250Y-38462500D01*
X53656250Y-41487500D02*
X52931250Y-42212500D01*
X53656250Y-41487500D02*
X53656250Y-38462500D01*
X52881250Y-41987500D02*
X52581250Y-41987500D01*
X52731250Y-41787500D01*
X52881250Y-41987500D01*
G36*
X52881250Y-41987500D02*
G01*
X52581250Y-41987500D01*
X52731250Y-41787500D01*
X52881250Y-41987500D01*
G37*
%TO.C,D66*%
X103506250Y-58237500D02*
X103506250Y-61262500D01*
X103506250Y-58237500D02*
X104231250Y-57512500D01*
X103506250Y-61262500D02*
X110806250Y-61262500D01*
X110806250Y-57512500D02*
X104231250Y-57512500D01*
X110806250Y-61262500D02*
X110806250Y-57512500D01*
X104431250Y-57937500D02*
X104281250Y-57737500D01*
X104581250Y-57737500D01*
X104431250Y-57937500D01*
G36*
X104431250Y-57937500D02*
G01*
X104281250Y-57737500D01*
X104581250Y-57737500D01*
X104431250Y-57937500D01*
G37*
%TO.C,D63*%
X46356250Y-76562500D02*
X46356250Y-80312500D01*
X46356250Y-80312500D02*
X52931250Y-80312500D01*
X53656250Y-76562500D02*
X46356250Y-76562500D01*
X53656250Y-79587500D02*
X52931250Y-80312500D01*
X53656250Y-79587500D02*
X53656250Y-76562500D01*
X52881250Y-80087500D02*
X52581250Y-80087500D01*
X52731250Y-79887500D01*
X52881250Y-80087500D01*
G36*
X52881250Y-80087500D02*
G01*
X52581250Y-80087500D01*
X52731250Y-79887500D01*
X52881250Y-80087500D01*
G37*
%TO.C,D64*%
X246050000Y-77312500D02*
X246050000Y-80337500D01*
X246050000Y-77312500D02*
X246775000Y-76587500D01*
X246050000Y-80337500D02*
X253350000Y-80337500D01*
X253350000Y-76587500D02*
X246775000Y-76587500D01*
X253350000Y-80337500D02*
X253350000Y-76587500D01*
X246975000Y-77012500D02*
X246825000Y-76812500D01*
X247125000Y-76812500D01*
X246975000Y-77012500D01*
G36*
X246975000Y-77012500D02*
G01*
X246825000Y-76812500D01*
X247125000Y-76812500D01*
X246975000Y-77012500D01*
G37*
%TO.C,D59*%
X84456250Y-71800000D02*
X84456250Y-75550000D01*
X84456250Y-75550000D02*
X91031250Y-75550000D01*
X91756250Y-71800000D02*
X84456250Y-71800000D01*
X91756250Y-74825000D02*
X91031250Y-75550000D01*
X91756250Y-74825000D02*
X91756250Y-71800000D01*
X90981250Y-75325000D02*
X90681250Y-75325000D01*
X90831250Y-75125000D01*
X90981250Y-75325000D01*
G36*
X90981250Y-75325000D02*
G01*
X90681250Y-75325000D01*
X90831250Y-75125000D01*
X90981250Y-75325000D01*
G37*
%TO.C,D84*%
X246050000Y-39175000D02*
X246050000Y-42200000D01*
X246050000Y-39175000D02*
X246775000Y-38450000D01*
X246050000Y-42200000D02*
X253350000Y-42200000D01*
X253350000Y-38450000D02*
X246775000Y-38450000D01*
X253350000Y-42200000D02*
X253350000Y-38450000D01*
X246975000Y-38875000D02*
X246825000Y-38675000D01*
X247125000Y-38675000D01*
X246975000Y-38875000D01*
G36*
X246975000Y-38875000D02*
G01*
X246825000Y-38675000D01*
X247125000Y-38675000D01*
X246975000Y-38875000D01*
G37*
%TO.C,D55*%
X122556250Y-81325000D02*
X122556250Y-85075000D01*
X122556250Y-85075000D02*
X129131250Y-85075000D01*
X129856250Y-81325000D02*
X122556250Y-81325000D01*
X129856250Y-84350000D02*
X129131250Y-85075000D01*
X129856250Y-84350000D02*
X129856250Y-81325000D01*
X129081250Y-84850000D02*
X128781250Y-84850000D01*
X128931250Y-84650000D01*
X129081250Y-84850000D01*
G36*
X129081250Y-84850000D02*
G01*
X128781250Y-84850000D01*
X128931250Y-84650000D01*
X129081250Y-84850000D01*
G37*
%TO.C,D69*%
X46356250Y-58237500D02*
X46356250Y-61262500D01*
X46356250Y-58237500D02*
X47081250Y-57512500D01*
X46356250Y-61262500D02*
X53656250Y-61262500D01*
X53656250Y-57512500D02*
X47081250Y-57512500D01*
X53656250Y-61262500D02*
X53656250Y-57512500D01*
X47281250Y-57937500D02*
X47131250Y-57737500D01*
X47431250Y-57737500D01*
X47281250Y-57937500D01*
G36*
X47281250Y-57937500D02*
G01*
X47131250Y-57737500D01*
X47431250Y-57737500D01*
X47281250Y-57937500D01*
G37*
%TO.C,D2*%
X255843750Y-40485000D02*
X255843750Y-36475000D01*
X257843750Y-40485000D02*
X255843750Y-40485000D01*
X257843750Y-40485000D02*
X257843750Y-36475000D01*
%TO.C,D26*%
X236650000Y-57241250D02*
X236650000Y-53231250D01*
X238650000Y-57241250D02*
X236650000Y-57241250D01*
X238650000Y-57241250D02*
X238650000Y-53231250D01*
%TO.C,D81*%
X188900000Y-39212500D02*
X188900000Y-42237500D01*
X188900000Y-39212500D02*
X189625000Y-38487500D01*
X188900000Y-42237500D02*
X196200000Y-42237500D01*
X196200000Y-38487500D02*
X189625000Y-38487500D01*
X196200000Y-42237500D02*
X196200000Y-38487500D01*
X189825000Y-38912500D02*
X189675000Y-38712500D01*
X189975000Y-38712500D01*
X189825000Y-38912500D01*
G36*
X189825000Y-38912500D02*
G01*
X189675000Y-38712500D01*
X189975000Y-38712500D01*
X189825000Y-38912500D01*
G37*
%TO.C,D5*%
X56150000Y-78560000D02*
X56150000Y-74550000D01*
X58150000Y-78560000D02*
X56150000Y-78560000D01*
X58150000Y-78560000D02*
X58150000Y-74550000D01*
%TO.C,D1*%
X55593750Y-40722500D02*
X55593750Y-36712500D01*
X57593750Y-40722500D02*
X55593750Y-40722500D01*
X57593750Y-40722500D02*
X57593750Y-36712500D01*
%TO.C,D27*%
X94250000Y-54747500D02*
X94250000Y-50737500D01*
X96250000Y-54747500D02*
X94250000Y-54747500D01*
X96250000Y-54747500D02*
X96250000Y-50737500D01*
%TO.C,D57*%
X103506250Y-76562500D02*
X103506250Y-80312500D01*
X103506250Y-80312500D02*
X110081250Y-80312500D01*
X110806250Y-76562500D02*
X103506250Y-76562500D01*
X110806250Y-79587500D02*
X110081250Y-80312500D01*
X110806250Y-79587500D02*
X110806250Y-76562500D01*
X110031250Y-80087500D02*
X109731250Y-80087500D01*
X109881250Y-79887500D01*
X110031250Y-80087500D01*
G36*
X110031250Y-80087500D02*
G01*
X109731250Y-80087500D01*
X109881250Y-79887500D01*
X110031250Y-80087500D01*
G37*
%TO.C,D71*%
X188900000Y-57537500D02*
X188900000Y-61287500D01*
X188900000Y-61287500D02*
X195475000Y-61287500D01*
X196200000Y-57537500D02*
X188900000Y-57537500D01*
X196200000Y-60562500D02*
X195475000Y-61287500D01*
X196200000Y-60562500D02*
X196200000Y-57537500D01*
X195425000Y-61062500D02*
X195125000Y-61062500D01*
X195275000Y-60862500D01*
X195425000Y-61062500D01*
G36*
X195425000Y-61062500D02*
G01*
X195125000Y-61062500D01*
X195275000Y-60862500D01*
X195425000Y-61062500D01*
G37*
%TO.C,D74*%
X246050000Y-57537500D02*
X246050000Y-61287500D01*
X246050000Y-61287500D02*
X252625000Y-61287500D01*
X253350000Y-57537500D02*
X246050000Y-57537500D01*
X253350000Y-60562500D02*
X252625000Y-61287500D01*
X253350000Y-60562500D02*
X253350000Y-57537500D01*
X252575000Y-61062500D02*
X252275000Y-61062500D01*
X252425000Y-60862500D01*
X252575000Y-61062500D01*
G36*
X252575000Y-61062500D02*
G01*
X252275000Y-61062500D01*
X252425000Y-60862500D01*
X252575000Y-61062500D01*
G37*
%TO.C,D78*%
X65406250Y-36081250D02*
X65406250Y-39831250D01*
X65406250Y-39831250D02*
X71981250Y-39831250D01*
X72706250Y-36081250D02*
X65406250Y-36081250D01*
X72706250Y-39106250D02*
X71981250Y-39831250D01*
X72706250Y-39106250D02*
X72706250Y-36081250D01*
X71931250Y-39606250D02*
X71631250Y-39606250D01*
X71781250Y-39406250D01*
X71931250Y-39606250D01*
G36*
X71931250Y-39606250D02*
G01*
X71631250Y-39606250D01*
X71781250Y-39406250D01*
X71931250Y-39606250D01*
G37*
%TO.C,D75*%
X122556250Y-43225000D02*
X122556250Y-46975000D01*
X122556250Y-46975000D02*
X129131250Y-46975000D01*
X129856250Y-43225000D02*
X122556250Y-43225000D01*
X129856250Y-46250000D02*
X129131250Y-46975000D01*
X129856250Y-46250000D02*
X129856250Y-43225000D01*
X129081250Y-46750000D02*
X128781250Y-46750000D01*
X128931250Y-46550000D01*
X129081250Y-46750000D01*
G36*
X129081250Y-46750000D02*
G01*
X128781250Y-46750000D01*
X128931250Y-46550000D01*
X129081250Y-46750000D01*
G37*
%TO.C,D32*%
X179643750Y-64297500D02*
X179643750Y-60287500D01*
X181643750Y-64297500D02*
X179643750Y-64297500D01*
X181643750Y-64297500D02*
X181643750Y-60287500D01*
%TO.C,D72*%
X207950000Y-52775000D02*
X207950000Y-56525000D01*
X207950000Y-56525000D02*
X214525000Y-56525000D01*
X215250000Y-52775000D02*
X207950000Y-52775000D01*
X215250000Y-55800000D02*
X214525000Y-56525000D01*
X215250000Y-55800000D02*
X215250000Y-52775000D01*
X214475000Y-56300000D02*
X214175000Y-56300000D01*
X214325000Y-56100000D01*
X214475000Y-56300000D01*
G36*
X214475000Y-56300000D02*
G01*
X214175000Y-56300000D01*
X214325000Y-56100000D01*
X214475000Y-56300000D01*
G37*
%TO.C,D54*%
X188900000Y-95637500D02*
X188900000Y-99387500D01*
X188900000Y-99387500D02*
X195475000Y-99387500D01*
X196200000Y-95637500D02*
X188900000Y-95637500D01*
X196200000Y-98662500D02*
X195475000Y-99387500D01*
X196200000Y-98662500D02*
X196200000Y-95637500D01*
X195425000Y-99162500D02*
X195125000Y-99162500D01*
X195275000Y-98962500D01*
X195425000Y-99162500D01*
G36*
X195425000Y-99162500D02*
G01*
X195125000Y-99162500D01*
X195275000Y-98962500D01*
X195425000Y-99162500D01*
G37*
%TO.C,D34*%
X236793750Y-38103750D02*
X236793750Y-34093750D01*
X238793750Y-38103750D02*
X236793750Y-38103750D01*
X238793750Y-38103750D02*
X238793750Y-34093750D01*
%TO.C,D44*%
X262284693Y-111891398D02*
X268463172Y-114140181D01*
X263567269Y-108367551D02*
X262284693Y-111891398D01*
X269392414Y-113706868D02*
X268463172Y-114140181D01*
X269392414Y-113706868D02*
X270427025Y-110864298D01*
X270427025Y-110864298D02*
X263567269Y-108367551D01*
X268493142Y-113911649D02*
X268211234Y-113809043D01*
X268420592Y-113672407D01*
X268493142Y-113911649D01*
G36*
X268493142Y-113911649D02*
G01*
X268211234Y-113809043D01*
X268420592Y-113672407D01*
X268493142Y-113911649D01*
G37*
%TO.C,D45*%
X122556250Y-101100000D02*
X122556250Y-104125000D01*
X122556250Y-101100000D02*
X123281250Y-100375000D01*
X122556250Y-104125000D02*
X129856250Y-104125000D01*
X129856250Y-100375000D02*
X123281250Y-100375000D01*
X129856250Y-104125000D02*
X129856250Y-100375000D01*
X123481250Y-100800000D02*
X123331250Y-100600000D01*
X123631250Y-100600000D01*
X123481250Y-100800000D01*
G36*
X123481250Y-100800000D02*
G01*
X123331250Y-100600000D01*
X123631250Y-100600000D01*
X123481250Y-100800000D01*
G37*
%TO.C,D23*%
X132350000Y-83322500D02*
X132350000Y-79312500D01*
X134350000Y-83322500D02*
X132350000Y-83322500D01*
X134350000Y-83322500D02*
X134350000Y-79312500D01*
%TO.C,D40*%
X178997200Y-45333900D02*
X178997200Y-41323900D01*
X180997200Y-45333900D02*
X178997200Y-45333900D01*
X180997200Y-45333900D02*
X180997200Y-41323900D01*
%TO.C,D3*%
X56150000Y-59510000D02*
X56150000Y-55500000D01*
X58150000Y-59510000D02*
X56150000Y-59510000D01*
X58150000Y-59510000D02*
X58150000Y-55500000D01*
%TO.C,D67*%
X84456250Y-53475000D02*
X84456250Y-56500000D01*
X84456250Y-53475000D02*
X85181250Y-52750000D01*
X84456250Y-56500000D02*
X91756250Y-56500000D01*
X91756250Y-52750000D02*
X85181250Y-52750000D01*
X91756250Y-56500000D02*
X91756250Y-52750000D01*
X85381250Y-53175000D02*
X85231250Y-52975000D01*
X85531250Y-52975000D01*
X85381250Y-53175000D01*
G36*
X85381250Y-53175000D02*
G01*
X85231250Y-52975000D01*
X85531250Y-52975000D01*
X85381250Y-53175000D01*
G37*
%TO.C,R2*%
X272733750Y-91452064D02*
X272733750Y-90997936D01*
X274203750Y-91452064D02*
X274203750Y-90997936D01*
%TO.C,D37*%
X113156250Y-40547500D02*
X113156250Y-36537500D01*
X115156250Y-40547500D02*
X113156250Y-40547500D01*
X115156250Y-40547500D02*
X115156250Y-36537500D01*
%TO.C,D13*%
X113300000Y-97610000D02*
X113300000Y-93600000D01*
X115300000Y-97610000D02*
X113300000Y-97610000D01*
X115300000Y-97610000D02*
X115300000Y-93600000D01*
%TO.C,D60*%
X207950000Y-72550000D02*
X207950000Y-75575000D01*
X207950000Y-72550000D02*
X208675000Y-71825000D01*
X207950000Y-75575000D02*
X215250000Y-75575000D01*
X215250000Y-71825000D02*
X208675000Y-71825000D01*
X215250000Y-75575000D02*
X215250000Y-71825000D01*
X208875000Y-72250000D02*
X208725000Y-72050000D01*
X209025000Y-72050000D01*
X208875000Y-72250000D01*
G36*
X208875000Y-72250000D02*
G01*
X208725000Y-72050000D01*
X209025000Y-72050000D01*
X208875000Y-72250000D01*
G37*
%TO.C,D76*%
X103506250Y-38462500D02*
X103506250Y-42212500D01*
X103506250Y-42212500D02*
X110081250Y-42212500D01*
X110806250Y-38462500D02*
X103506250Y-38462500D01*
X110806250Y-41487500D02*
X110081250Y-42212500D01*
X110806250Y-41487500D02*
X110806250Y-38462500D01*
X110031250Y-41987500D02*
X109731250Y-41987500D01*
X109881250Y-41787500D01*
X110031250Y-41987500D01*
G36*
X110031250Y-41987500D02*
G01*
X109731250Y-41987500D01*
X109881250Y-41787500D01*
X110031250Y-41987500D01*
G37*
%TO.C,D7*%
X56150000Y-97610000D02*
X56150000Y-93600000D01*
X58150000Y-97610000D02*
X56150000Y-97610000D01*
X58150000Y-97610000D02*
X58150000Y-93600000D01*
%TO.C,D43*%
X29527190Y-111520575D02*
X29960502Y-110591333D01*
X29527190Y-111520575D02*
X30561801Y-114363145D01*
X30561801Y-114363145D02*
X37421557Y-111866398D01*
X36138981Y-108342551D02*
X29960502Y-110591333D01*
X37421557Y-111866398D02*
X36138981Y-108342551D01*
X30293798Y-110922299D02*
X30084441Y-110785663D01*
X30366349Y-110683057D01*
X30293798Y-110922299D01*
G36*
X30293798Y-110922299D02*
G01*
X30084441Y-110785663D01*
X30366349Y-110683057D01*
X30293798Y-110922299D01*
G37*
%TO.C,D12*%
X217743750Y-92872500D02*
X217743750Y-88862500D01*
X219743750Y-92872500D02*
X217743750Y-92872500D01*
X219743750Y-92872500D02*
X219743750Y-88862500D01*
%TO.C,D50*%
X227000000Y-93256250D02*
X227000000Y-97006250D01*
X227000000Y-97006250D02*
X233575000Y-97006250D01*
X234300000Y-93256250D02*
X227000000Y-93256250D01*
X234300000Y-96281250D02*
X233575000Y-97006250D01*
X234300000Y-96281250D02*
X234300000Y-93256250D01*
X233525000Y-96781250D02*
X233225000Y-96781250D01*
X233375000Y-96581250D01*
X233525000Y-96781250D01*
G36*
X233525000Y-96781250D02*
G01*
X233225000Y-96781250D01*
X233375000Y-96581250D01*
X233525000Y-96781250D01*
G37*
%TO.C,D30*%
X198693750Y-59535000D02*
X198693750Y-55525000D01*
X200693750Y-59535000D02*
X198693750Y-59535000D01*
X200693750Y-59535000D02*
X200693750Y-55525000D01*
%TO.C,D80*%
X169850000Y-43975000D02*
X169850000Y-47000000D01*
X169850000Y-43975000D02*
X170575000Y-43250000D01*
X169850000Y-47000000D02*
X177150000Y-47000000D01*
X177150000Y-43250000D02*
X170575000Y-43250000D01*
X177150000Y-47000000D02*
X177150000Y-43250000D01*
X170775000Y-43675000D02*
X170625000Y-43475000D01*
X170925000Y-43475000D01*
X170775000Y-43675000D01*
G36*
X170775000Y-43675000D02*
G01*
X170625000Y-43475000D01*
X170925000Y-43475000D01*
X170775000Y-43675000D01*
G37*
%TO.C,R1*%
X20420814Y-92827500D02*
X19966686Y-92827500D01*
X20420814Y-94297500D02*
X19966686Y-94297500D01*
%TO.C,D6*%
X255843750Y-78585000D02*
X255843750Y-74575000D01*
X257843750Y-78585000D02*
X255843750Y-78585000D01*
X257843750Y-78585000D02*
X257843750Y-74575000D01*
%TO.C,D24*%
X179643750Y-83347500D02*
X179643750Y-79337500D01*
X181643750Y-83347500D02*
X179643750Y-83347500D01*
X181643750Y-83347500D02*
X181643750Y-79337500D01*
%TO.C,D9*%
X75200000Y-95228750D02*
X75200000Y-91218750D01*
X77200000Y-95228750D02*
X75200000Y-95228750D01*
X77200000Y-95228750D02*
X77200000Y-91218750D01*
%TO.C,D21*%
X113300000Y-78560000D02*
X113300000Y-74550000D01*
X115300000Y-78560000D02*
X113300000Y-78560000D01*
X115300000Y-78560000D02*
X115300000Y-74550000D01*
%TO.C,D52*%
X207950000Y-90875000D02*
X207950000Y-94625000D01*
X207950000Y-94625000D02*
X214525000Y-94625000D01*
X215250000Y-90875000D02*
X207950000Y-90875000D01*
X215250000Y-93900000D02*
X214525000Y-94625000D01*
X215250000Y-93900000D02*
X215250000Y-90875000D01*
X214475000Y-94400000D02*
X214175000Y-94400000D01*
X214325000Y-94200000D01*
X214475000Y-94400000D01*
G36*
X214475000Y-94400000D02*
G01*
X214175000Y-94400000D01*
X214325000Y-94200000D01*
X214475000Y-94400000D01*
G37*
%TO.C,TP3*%
X28993750Y-93762500D02*
G75*
G02*
X26593750Y-93762500I-1200000J0D01*
G01*
X26593750Y-93762500D02*
G75*
G02*
X28993750Y-93762500I1200000J0D01*
G01*
%TO.C,D65*%
X122556250Y-63000000D02*
X122556250Y-66025000D01*
X122556250Y-63000000D02*
X123281250Y-62275000D01*
X122556250Y-66025000D02*
X129856250Y-66025000D01*
X129856250Y-62275000D02*
X123281250Y-62275000D01*
X129856250Y-66025000D02*
X129856250Y-62275000D01*
X123481250Y-62700000D02*
X123331250Y-62500000D01*
X123631250Y-62500000D01*
X123481250Y-62700000D01*
G36*
X123481250Y-62700000D02*
G01*
X123331250Y-62500000D01*
X123631250Y-62500000D01*
X123481250Y-62700000D01*
G37*
%TO.C,D16*%
X179643750Y-102397500D02*
X179643750Y-98387500D01*
X181643750Y-102397500D02*
X179643750Y-102397500D01*
X181643750Y-102397500D02*
X181643750Y-98387500D01*
%TO.C,D49*%
X65406250Y-93956250D02*
X65406250Y-96981250D01*
X65406250Y-93956250D02*
X66131250Y-93231250D01*
X65406250Y-96981250D02*
X72706250Y-96981250D01*
X72706250Y-93231250D02*
X66131250Y-93231250D01*
X72706250Y-96981250D02*
X72706250Y-93231250D01*
X66331250Y-93656250D02*
X66181250Y-93456250D01*
X66481250Y-93456250D01*
X66331250Y-93656250D01*
G36*
X66331250Y-93656250D02*
G01*
X66181250Y-93456250D01*
X66481250Y-93456250D01*
X66331250Y-93656250D01*
G37*
%TO.C,D83*%
X227000000Y-36831250D02*
X227000000Y-39856250D01*
X227000000Y-36831250D02*
X227725000Y-36106250D01*
X227000000Y-39856250D02*
X234300000Y-39856250D01*
X234300000Y-36106250D02*
X227725000Y-36106250D01*
X234300000Y-39856250D02*
X234300000Y-36106250D01*
X227925000Y-36531250D02*
X227775000Y-36331250D01*
X228075000Y-36331250D01*
X227925000Y-36531250D01*
G36*
X227925000Y-36531250D02*
G01*
X227775000Y-36331250D01*
X228075000Y-36331250D01*
X227925000Y-36531250D01*
G37*
%TO.C,D48*%
X246050000Y-95637500D02*
X246050000Y-99387500D01*
X246050000Y-99387500D02*
X252625000Y-99387500D01*
X253350000Y-95637500D02*
X246050000Y-95637500D01*
X253350000Y-98662500D02*
X252625000Y-99387500D01*
X253350000Y-98662500D02*
X253350000Y-95637500D01*
X252575000Y-99162500D02*
X252275000Y-99162500D01*
X252425000Y-98962500D01*
X252575000Y-99162500D01*
G36*
X252575000Y-99162500D02*
G01*
X252275000Y-99162500D01*
X252425000Y-98962500D01*
X252575000Y-99162500D01*
G37*
%TO.C,D62*%
X227000000Y-74931250D02*
X227000000Y-77956250D01*
X227000000Y-74931250D02*
X227725000Y-74206250D01*
X227000000Y-77956250D02*
X234300000Y-77956250D01*
X234300000Y-74206250D02*
X227725000Y-74206250D01*
X234300000Y-77956250D02*
X234300000Y-74206250D01*
X227925000Y-74631250D02*
X227775000Y-74431250D01*
X228075000Y-74431250D01*
X227925000Y-74631250D01*
G36*
X227925000Y-74631250D02*
G01*
X227775000Y-74431250D01*
X228075000Y-74431250D01*
X227925000Y-74631250D01*
G37*
%TO.C,D38*%
X198047200Y-40571400D02*
X198047200Y-36561400D01*
X200047200Y-40571400D02*
X198047200Y-40571400D01*
X200047200Y-40571400D02*
X200047200Y-36561400D01*
%TO.C,D47*%
X46356250Y-96337500D02*
X46356250Y-99362500D01*
X46356250Y-96337500D02*
X47081250Y-95612500D01*
X46356250Y-99362500D02*
X53656250Y-99362500D01*
X53656250Y-95612500D02*
X47081250Y-95612500D01*
X53656250Y-99362500D02*
X53656250Y-95612500D01*
X47281250Y-96037500D02*
X47131250Y-95837500D01*
X47431250Y-95837500D01*
X47281250Y-96037500D01*
G36*
X47281250Y-96037500D02*
G01*
X47131250Y-95837500D01*
X47431250Y-95837500D01*
X47281250Y-96037500D01*
G37*
%TO.C,D68*%
X65406250Y-55856250D02*
X65406250Y-58881250D01*
X65406250Y-55856250D02*
X66131250Y-55131250D01*
X65406250Y-58881250D02*
X72706250Y-58881250D01*
X72706250Y-55131250D02*
X66131250Y-55131250D01*
X72706250Y-58881250D02*
X72706250Y-55131250D01*
X66331250Y-55556250D02*
X66181250Y-55356250D01*
X66481250Y-55356250D01*
X66331250Y-55556250D01*
G36*
X66331250Y-55556250D02*
G01*
X66181250Y-55356250D01*
X66481250Y-55356250D01*
X66331250Y-55556250D01*
G37*
%TO.C,D11*%
X94250000Y-92847500D02*
X94250000Y-88837500D01*
X96250000Y-92847500D02*
X94250000Y-92847500D01*
X96250000Y-92847500D02*
X96250000Y-88837500D01*
%TO.C,TP2*%
X276668750Y-94025000D02*
G75*
G02*
X274268750Y-94025000I-1200000J0D01*
G01*
X274268750Y-94025000D02*
G75*
G02*
X276668750Y-94025000I1200000J0D01*
G01*
%TO.C,D18*%
X236793750Y-76203750D02*
X236793750Y-72193750D01*
X238793750Y-76203750D02*
X236793750Y-76203750D01*
X238793750Y-76203750D02*
X238793750Y-72193750D01*
%TO.C,D41*%
X40348725Y-109715945D02*
X38977224Y-105947777D01*
X42228110Y-109031904D02*
X40348725Y-109715945D01*
X42228110Y-109031904D02*
X40856609Y-105263737D01*
%TO.C,D31*%
X132350000Y-64272500D02*
X132350000Y-60262500D01*
X134350000Y-64272500D02*
X132350000Y-64272500D01*
X134350000Y-64272500D02*
X134350000Y-60262500D01*
%TO.C,D51*%
X84456250Y-91575000D02*
X84456250Y-94600000D01*
X84456250Y-91575000D02*
X85181250Y-90850000D01*
X84456250Y-94600000D02*
X91756250Y-94600000D01*
X91756250Y-90850000D02*
X85181250Y-90850000D01*
X91756250Y-94600000D02*
X91756250Y-90850000D01*
X85381250Y-91275000D02*
X85231250Y-91075000D01*
X85531250Y-91075000D01*
X85381250Y-91275000D01*
G36*
X85381250Y-91275000D02*
G01*
X85231250Y-91075000D01*
X85531250Y-91075000D01*
X85381250Y-91275000D01*
G37*
%TO.C,D29*%
X113300000Y-59510000D02*
X113300000Y-55500000D01*
X115300000Y-59510000D02*
X113300000Y-59510000D01*
X115300000Y-59510000D02*
X115300000Y-55500000D01*
%TO.C,D19*%
X93606250Y-74385000D02*
X93606250Y-70375000D01*
X95606250Y-74385000D02*
X93606250Y-74385000D01*
X95606250Y-74385000D02*
X95606250Y-70375000D01*
%TO.C,TP4*%
X280068750Y-94025000D02*
G75*
G02*
X277668750Y-94025000I-1200000J0D01*
G01*
X277668750Y-94025000D02*
G75*
G02*
X280068750Y-94025000I1200000J0D01*
G01*
%TO.C,D77*%
X84456250Y-33700000D02*
X84456250Y-37450000D01*
X84456250Y-37450000D02*
X91031250Y-37450000D01*
X91756250Y-33700000D02*
X84456250Y-33700000D01*
X91756250Y-36725000D02*
X91031250Y-37450000D01*
X91756250Y-36725000D02*
X91756250Y-33700000D01*
X90981250Y-37225000D02*
X90681250Y-37225000D01*
X90831250Y-37025000D01*
X90981250Y-37225000D01*
G36*
X90981250Y-37225000D02*
G01*
X90681250Y-37225000D01*
X90831250Y-37025000D01*
X90981250Y-37225000D01*
G37*
%TO.C,D82*%
X207950000Y-34450000D02*
X207950000Y-37475000D01*
X207950000Y-34450000D02*
X208675000Y-33725000D01*
X207950000Y-37475000D02*
X215250000Y-37475000D01*
X215250000Y-33725000D02*
X208675000Y-33725000D01*
X215250000Y-37475000D02*
X215250000Y-33725000D01*
X208875000Y-34150000D02*
X208725000Y-33950000D01*
X209025000Y-33950000D01*
X208875000Y-34150000D01*
G36*
X208875000Y-34150000D02*
G01*
X208725000Y-33950000D01*
X209025000Y-33950000D01*
X208875000Y-34150000D01*
G37*
%TO.C,R4*%
X276641686Y-90090000D02*
X277095814Y-90090000D01*
X276641686Y-91560000D02*
X277095814Y-91560000D01*
%TO.C,R3*%
X19966686Y-90427500D02*
X20420814Y-90427500D01*
X19966686Y-91897500D02*
X20420814Y-91897500D01*
%TO.C,D33*%
X75200000Y-38078750D02*
X75200000Y-34068750D01*
X77200000Y-38078750D02*
X75200000Y-38078750D01*
X77200000Y-38078750D02*
X77200000Y-34068750D01*
%TO.C,D56*%
X169850000Y-82075000D02*
X169850000Y-85100000D01*
X169850000Y-82075000D02*
X170575000Y-81350000D01*
X169850000Y-85100000D02*
X177150000Y-85100000D01*
X177150000Y-81350000D02*
X170575000Y-81350000D01*
X177150000Y-85100000D02*
X177150000Y-81350000D01*
X170775000Y-81775000D02*
X170625000Y-81575000D01*
X170925000Y-81575000D01*
X170775000Y-81775000D01*
G36*
X170775000Y-81775000D02*
G01*
X170625000Y-81575000D01*
X170925000Y-81575000D01*
X170775000Y-81775000D01*
G37*
%TO.C,D17*%
X75200000Y-76178750D02*
X75200000Y-72168750D01*
X77200000Y-76178750D02*
X75200000Y-76178750D01*
X77200000Y-76178750D02*
X77200000Y-72168750D01*
%TO.C,D73*%
X227000000Y-55156250D02*
X227000000Y-58906250D01*
X227000000Y-58906250D02*
X233575000Y-58906250D01*
X234300000Y-55156250D02*
X227000000Y-55156250D01*
X234300000Y-58181250D02*
X233575000Y-58906250D01*
X234300000Y-58181250D02*
X234300000Y-55156250D01*
X233525000Y-58681250D02*
X233225000Y-58681250D01*
X233375000Y-58481250D01*
X233525000Y-58681250D01*
G36*
X233525000Y-58681250D02*
G01*
X233225000Y-58681250D01*
X233375000Y-58481250D01*
X233525000Y-58681250D01*
G37*
%TO.C,D20*%
X217743750Y-73822500D02*
X217743750Y-69812500D01*
X219743750Y-73822500D02*
X217743750Y-73822500D01*
X219743750Y-73822500D02*
X219743750Y-69812500D01*
%TO.C,D53*%
X103506250Y-96337500D02*
X103506250Y-99362500D01*
X103506250Y-96337500D02*
X104231250Y-95612500D01*
X103506250Y-99362500D02*
X110806250Y-99362500D01*
X110806250Y-95612500D02*
X104231250Y-95612500D01*
X110806250Y-99362500D02*
X110806250Y-95612500D01*
X104431250Y-96037500D02*
X104281250Y-95837500D01*
X104581250Y-95837500D01*
X104431250Y-96037500D01*
G36*
X104431250Y-96037500D02*
G01*
X104281250Y-95837500D01*
X104581250Y-95837500D01*
X104431250Y-96037500D01*
G37*
%TO.C,D39*%
X131703450Y-45308900D02*
X131703450Y-41298900D01*
X133703450Y-45308900D02*
X131703450Y-45308900D01*
X133703450Y-45308900D02*
X133703450Y-41298900D01*
%TO.C,TP1*%
X25393750Y-93762500D02*
G75*
G02*
X22993750Y-93762500I-1200000J0D01*
G01*
X22993750Y-93762500D02*
G75*
G02*
X25393750Y-93762500I1200000J0D01*
G01*
%TO.C,D25*%
X75200000Y-57128750D02*
X75200000Y-53118750D01*
X77200000Y-57128750D02*
X75200000Y-57128750D01*
X77200000Y-57128750D02*
X77200000Y-53118750D01*
%TO.C,D10*%
X236793750Y-95253750D02*
X236793750Y-91243750D01*
X238793750Y-95253750D02*
X236793750Y-95253750D01*
X238793750Y-95253750D02*
X238793750Y-91243750D01*
%TO.C,D36*%
X217743750Y-35722500D02*
X217743750Y-31712500D01*
X219743750Y-35722500D02*
X217743750Y-35722500D01*
X219743750Y-35722500D02*
X219743750Y-31712500D01*
%TO.C,D8*%
X255843750Y-97635000D02*
X255843750Y-93625000D01*
X257843750Y-97635000D02*
X255843750Y-97635000D01*
X257843750Y-97635000D02*
X257843750Y-93625000D01*
%TO.C,D15*%
X132350000Y-102372500D02*
X132350000Y-98362500D01*
X134350000Y-102372500D02*
X132350000Y-102372500D01*
X134350000Y-102372500D02*
X134350000Y-98362500D01*
%TO.C,D28*%
X217743750Y-54772500D02*
X217743750Y-50762500D01*
X219743750Y-54772500D02*
X217743750Y-54772500D01*
X219743750Y-54772500D02*
X219743750Y-50762500D01*
%TO.C,D70*%
X169850000Y-62300000D02*
X169850000Y-66050000D01*
X169850000Y-66050000D02*
X176425000Y-66050000D01*
X177150000Y-62300000D02*
X169850000Y-62300000D01*
X177150000Y-65325000D02*
X176425000Y-66050000D01*
X177150000Y-65325000D02*
X177150000Y-62300000D01*
X176375000Y-65825000D02*
X176075000Y-65825000D01*
X176225000Y-65625000D01*
X176375000Y-65825000D01*
G36*
X176375000Y-65825000D02*
G01*
X176075000Y-65825000D01*
X176225000Y-65625000D01*
X176375000Y-65825000D01*
G37*
%TO.C,D58*%
X188900000Y-77312500D02*
X188900000Y-80337500D01*
X188900000Y-77312500D02*
X189625000Y-76587500D01*
X188900000Y-80337500D02*
X196200000Y-80337500D01*
X196200000Y-76587500D02*
X189625000Y-76587500D01*
X196200000Y-80337500D02*
X196200000Y-76587500D01*
X189825000Y-77012500D02*
X189675000Y-76812500D01*
X189975000Y-76812500D01*
X189825000Y-77012500D01*
G36*
X189825000Y-77012500D02*
G01*
X189675000Y-76812500D01*
X189975000Y-76812500D01*
X189825000Y-77012500D01*
G37*
%TD*%
M02*
