M48
; DRILL file KiCad 10.0.1 date 2026-04-27T12:31:08
; FORMAT={-:-/ absolute / metric / decimal}
; #@! TF.CreationDate,2026-04-27T12:31:08-05:00
; #@! TF.GenerationSoftware,Kicad,Pcbnew,10.0.1
; #@! TF.FileFunction,NonPlated,1,2,NPTH
FMAT,2
METRIC
; #@! TA.AperFunction,NonPlated,NPTH,ComponentDrill
T1C0.500
; #@! TA.AperFunction,NonPlated,NPTH,ComponentDrill
T2C1.750
; #@! TA.AperFunction,NonPlated,NPTH,ComponentDrill
T3C3.988
%
G90
G05
T1
X147.519Y-31.969
X147.519Y-32.719
X147.519Y-33.469
X147.519Y-34.219
X147.519Y-34.969
X147.519Y-35.719
X147.519Y-36.469
X147.519Y-37.219
X147.519Y-37.969
X147.519Y-38.719
X147.519Y-38.719
X147.519Y-39.469
X147.519Y-64.688
X147.519Y-65.438
X147.519Y-66.188
X147.519Y-66.938
X147.519Y-67.688
X147.519Y-68.438
X147.519Y-69.188
X147.519Y-69.938
X147.519Y-70.688
X147.519Y-71.438
X147.519Y-71.438
X147.519Y-72.188
X147.519Y-93.881
X147.519Y-94.631
X147.519Y-95.381
X147.519Y-96.131
X147.519Y-96.881
X147.519Y-97.631
X147.519Y-98.381
X147.519Y-99.131
X147.519Y-99.881
X147.519Y-100.631
X147.519Y-100.631
X147.519Y-101.381
X152.519Y-31.969
X152.519Y-32.719
X152.519Y-33.469
X152.519Y-34.219
X152.519Y-34.969
X152.519Y-35.719
X152.519Y-36.469
X152.519Y-37.219
X152.519Y-37.969
X152.519Y-38.719
X152.519Y-38.719
X152.519Y-39.469
X152.519Y-64.688
X152.519Y-65.438
X152.519Y-66.188
X152.519Y-66.938
X152.519Y-67.688
X152.519Y-68.438
X152.519Y-69.188
X152.519Y-69.938
X152.519Y-70.688
X152.519Y-71.438
X152.519Y-71.438
X152.519Y-72.188
X152.519Y-93.881
X152.519Y-94.631
X152.519Y-95.381
X152.519Y-96.131
X152.519Y-96.881
X152.519Y-97.631
X152.519Y-98.381
X152.519Y-99.131
X152.519Y-99.881
X152.519Y-100.631
X152.519Y-100.631
X152.519Y-101.381
T2
X26.183Y-106.512
X35.73Y-103.038
X44.926Y-33.337
X44.926Y-52.387
X44.926Y-71.438
X44.926Y-90.487
X55.086Y-33.337
X55.086Y-52.387
X55.086Y-71.438
X55.086Y-90.487
X63.976Y-30.956
X63.976Y-50.006
X63.976Y-69.056
X63.976Y-88.106
X74.136Y-30.956
X74.136Y-50.006
X74.136Y-69.056
X74.136Y-88.106
X83.026Y-28.575
X83.026Y-47.625
X83.026Y-66.675
X83.026Y-85.725
X93.186Y-28.575
X93.186Y-47.625
X93.186Y-66.675
X93.186Y-85.725
X102.076Y-33.337
X102.076Y-52.387
X102.076Y-71.438
X102.076Y-90.487
X112.236Y-33.337
X112.236Y-52.387
X112.236Y-71.438
X112.236Y-90.487
X121.126Y-38.1
X121.126Y-57.15
X121.126Y-76.2
X121.126Y-95.25
X131.286Y-38.1
X131.286Y-57.15
X131.286Y-76.2
X131.286Y-95.25
X168.42Y-38.125
X168.42Y-57.175
X168.42Y-76.225
X168.42Y-95.275
X178.58Y-38.125
X178.58Y-57.175
X178.58Y-76.225
X178.58Y-95.275
X187.47Y-33.362
X187.47Y-52.412
X187.47Y-71.462
X187.47Y-90.513
X197.63Y-33.362
X197.63Y-52.412
X197.63Y-71.462
X197.63Y-90.513
X206.52Y-28.6
X206.52Y-47.65
X206.52Y-66.7
X206.52Y-85.75
X216.68Y-28.6
X216.68Y-47.65
X216.68Y-66.7
X216.68Y-85.75
X225.57Y-30.981
X225.57Y-50.031
X225.57Y-69.081
X225.57Y-88.131
X235.73Y-30.981
X235.73Y-50.031
X235.73Y-69.081
X235.73Y-88.131
X244.62Y-33.325
X244.62Y-52.412
X244.62Y-71.462
X244.62Y-90.513
X254.78Y-33.325
X254.78Y-52.412
X254.78Y-71.462
X254.78Y-90.513
X263.976Y-103.063
X273.524Y-106.537
T3
X30.956Y-104.775
X50.006Y-33.337
X50.006Y-52.387
X50.006Y-71.438
X50.006Y-90.487
X69.056Y-30.956
X69.056Y-50.006
X69.056Y-69.056
X69.056Y-88.106
X88.106Y-28.575
X88.106Y-47.625
X88.106Y-66.675
X88.106Y-85.725
X107.156Y-33.337
X107.156Y-52.387
X107.156Y-71.438
X107.156Y-90.487
X126.206Y-38.1
X126.206Y-57.15
X126.206Y-76.2
X126.206Y-95.25
X173.5Y-38.125
X173.5Y-57.175
X173.5Y-76.225
X173.5Y-95.275
X192.55Y-33.362
X192.55Y-52.412
X192.55Y-71.462
X192.55Y-90.513
X211.6Y-28.6
X211.6Y-47.65
X211.6Y-66.7
X211.6Y-85.75
X230.65Y-30.981
X230.65Y-50.031
X230.65Y-69.081
X230.65Y-88.131
X249.7Y-33.325
X249.7Y-52.412
X249.7Y-71.462
X249.7Y-90.513
X268.75Y-104.8
M30
