%TF.GenerationSoftware,KiCad,Pcbnew,10.0.1*%
%TF.CreationDate,2026-04-27T12:30:42-05:00*%
%TF.ProjectId,The Dichotomy Split,54686520-4469-4636-986f-746f6d792053,rev?*%
%TF.SameCoordinates,Original*%
%TF.FileFunction,Paste,Bot*%
%TF.FilePolarity,Positive*%
%FSLAX46Y46*%
G04 Gerber Fmt 4.6, Leading zero omitted, Abs format (unit mm)*
G04 Created by KiCad (PCBNEW 10.0.1) date 2026-04-27 12:30:42*
%MOMM*%
%LPD*%
G01*
G04 APERTURE LIST*
G04 Aperture macros list*
%AMRoundRect*
0 Rectangle with rounded corners*
0 $1 Rounding radius*
0 $2 $3 $4 $5 $6 $7 $8 $9 X,Y pos of 4 corners*
0 Add a 4 corners polygon primitive as box body*
4,1,4,$2,$3,$4,$5,$6,$7,$8,$9,$2,$3,0*
0 Add four circle primitives for the rounded corners*
1,1,$1+$1,$2,$3*
1,1,$1+$1,$4,$5*
1,1,$1+$1,$6,$7*
1,1,$1+$1,$8,$9*
0 Add four rect primitives between the rounded corners*
20,1,$1+$1,$2,$3,$4,$5,0*
20,1,$1+$1,$4,$5,$6,$7,0*
20,1,$1+$1,$6,$7,$8,$9,0*
20,1,$1+$1,$8,$9,$2,$3,0*%
G04 Aperture macros list end*
%ADD10RoundRect,0.225000X0.275430X-0.339688X0.429339X0.083173X-0.275430X0.339688X-0.429339X-0.083173X0*%
%ADD11RoundRect,0.225000X0.375000X-0.225000X0.375000X0.225000X-0.375000X0.225000X-0.375000X-0.225000X0*%
%ADD12RoundRect,0.205000X0.470000X0.205000X-0.470000X0.205000X-0.470000X-0.205000X0.470000X-0.205000X0*%
%ADD13RoundRect,0.205000X-0.470000X-0.205000X0.470000X-0.205000X0.470000X0.205000X-0.470000X0.205000X0*%
%ADD14RoundRect,0.205000X0.511770X0.031888X-0.371541X0.353386X-0.511770X-0.031888X0.371541X-0.353386X0*%
%ADD15RoundRect,0.250000X0.450000X-0.262500X0.450000X0.262500X-0.450000X0.262500X-0.450000X-0.262500X0*%
%ADD16RoundRect,0.205000X-0.371541X-0.353386X0.511770X-0.031888X0.371541X0.353386X-0.511770X0.031888X0*%
%ADD17RoundRect,0.250000X0.262500X0.450000X-0.262500X0.450000X-0.262500X-0.450000X0.262500X-0.450000X0*%
%ADD18RoundRect,0.225000X0.429339X-0.083173X0.275430X0.339688X-0.429339X0.083173X-0.275430X-0.339688X0*%
%ADD19RoundRect,0.250000X-0.262500X-0.450000X0.262500X-0.450000X0.262500X0.450000X-0.262500X0.450000X0*%
G04 APERTURE END LIST*
D10*
%TO.C,D42*%
X272948167Y-113494243D03*
X274076833Y-110393257D03*
%TD*%
D11*
%TO.C,D14*%
X199693750Y-96925000D03*
X199693750Y-93625000D03*
%TD*%
%TO.C,D35*%
X95250000Y-34987500D03*
X95250000Y-31687500D03*
%TD*%
%TO.C,D22*%
X199693750Y-77875000D03*
X199693750Y-74575000D03*
%TD*%
D12*
%TO.C,D46*%
X176225000Y-103025000D03*
X176225000Y-101525000D03*
X170775000Y-101525000D03*
X170775000Y-103025000D03*
%TD*%
%TO.C,D61*%
X71781250Y-76806250D03*
X71781250Y-75306250D03*
X66331250Y-75306250D03*
X66331250Y-76806250D03*
%TD*%
D11*
%TO.C,D4*%
X256843750Y-58825000D03*
X256843750Y-55525000D03*
%TD*%
D12*
%TO.C,D79*%
X52731250Y-41087500D03*
X52731250Y-39587500D03*
X47281250Y-39587500D03*
X47281250Y-41087500D03*
%TD*%
D13*
%TO.C,D66*%
X104431250Y-58637500D03*
X104431250Y-60137500D03*
X109881250Y-60137500D03*
X109881250Y-58637500D03*
%TD*%
D12*
%TO.C,D63*%
X52731250Y-79187500D03*
X52731250Y-77687500D03*
X47281250Y-77687500D03*
X47281250Y-79187500D03*
%TD*%
D13*
%TO.C,D64*%
X246975000Y-77712500D03*
X246975000Y-79212500D03*
X252425000Y-79212500D03*
X252425000Y-77712500D03*
%TD*%
D12*
%TO.C,D59*%
X90831250Y-74425000D03*
X90831250Y-72925000D03*
X85381250Y-72925000D03*
X85381250Y-74425000D03*
%TD*%
D13*
%TO.C,D84*%
X246975000Y-39575000D03*
X246975000Y-41075000D03*
X252425000Y-41075000D03*
X252425000Y-39575000D03*
%TD*%
D12*
%TO.C,D55*%
X128931250Y-83950000D03*
X128931250Y-82450000D03*
X123481250Y-82450000D03*
X123481250Y-83950000D03*
%TD*%
D13*
%TO.C,D69*%
X47281250Y-58637500D03*
X47281250Y-60137500D03*
X52731250Y-60137500D03*
X52731250Y-58637500D03*
%TD*%
D11*
%TO.C,D2*%
X256843750Y-39775000D03*
X256843750Y-36475000D03*
%TD*%
%TO.C,D26*%
X237650000Y-56531250D03*
X237650000Y-53231250D03*
%TD*%
D13*
%TO.C,D81*%
X189825000Y-39612500D03*
X189825000Y-41112500D03*
X195275000Y-41112500D03*
X195275000Y-39612500D03*
%TD*%
D11*
%TO.C,D5*%
X57150000Y-77850000D03*
X57150000Y-74550000D03*
%TD*%
%TO.C,D1*%
X56593750Y-40012500D03*
X56593750Y-36712500D03*
%TD*%
%TO.C,D27*%
X95250000Y-54037500D03*
X95250000Y-50737500D03*
%TD*%
D12*
%TO.C,D57*%
X109881250Y-79187500D03*
X109881250Y-77687500D03*
X104431250Y-77687500D03*
X104431250Y-79187500D03*
%TD*%
%TO.C,D71*%
X195275000Y-60162500D03*
X195275000Y-58662500D03*
X189825000Y-58662500D03*
X189825000Y-60162500D03*
%TD*%
%TO.C,D74*%
X252425000Y-60162500D03*
X252425000Y-58662500D03*
X246975000Y-58662500D03*
X246975000Y-60162500D03*
%TD*%
%TO.C,D78*%
X71781250Y-38706250D03*
X71781250Y-37206250D03*
X66331250Y-37206250D03*
X66331250Y-38706250D03*
%TD*%
%TO.C,D75*%
X128931250Y-45850000D03*
X128931250Y-44350000D03*
X123481250Y-44350000D03*
X123481250Y-45850000D03*
%TD*%
D11*
%TO.C,D32*%
X180643750Y-63587500D03*
X180643750Y-60287500D03*
%TD*%
D12*
%TO.C,D72*%
X214325000Y-55400000D03*
X214325000Y-53900000D03*
X208875000Y-53900000D03*
X208875000Y-55400000D03*
%TD*%
%TO.C,D54*%
X195275000Y-98262500D03*
X195275000Y-96762500D03*
X189825000Y-96762500D03*
X189825000Y-98262500D03*
%TD*%
D11*
%TO.C,D34*%
X237793750Y-37393750D03*
X237793750Y-34093750D03*
%TD*%
D14*
%TO.C,D44*%
X268660006Y-113014622D03*
X269173036Y-111605083D03*
X264051712Y-109741074D03*
X263538682Y-111150613D03*
%TD*%
D13*
%TO.C,D45*%
X123481250Y-101500000D03*
X123481250Y-103000000D03*
X128931250Y-103000000D03*
X128931250Y-101500000D03*
%TD*%
D11*
%TO.C,D23*%
X133350000Y-82612500D03*
X133350000Y-79312500D03*
%TD*%
%TO.C,D40*%
X179997200Y-44623900D03*
X179997200Y-41323900D03*
%TD*%
%TO.C,D3*%
X57150000Y-58800000D03*
X57150000Y-55500000D03*
%TD*%
D13*
%TO.C,D67*%
X85381250Y-53875000D03*
X85381250Y-55375000D03*
X90831250Y-55375000D03*
X90831250Y-53875000D03*
%TD*%
D15*
%TO.C,R2*%
X273468750Y-92137500D03*
X273468750Y-90312500D03*
%TD*%
D11*
%TO.C,D37*%
X114156250Y-39837500D03*
X114156250Y-36537500D03*
%TD*%
%TO.C,D13*%
X114300000Y-96900000D03*
X114300000Y-93600000D03*
%TD*%
D13*
%TO.C,D60*%
X208875000Y-72950000D03*
X208875000Y-74450000D03*
X214325000Y-74450000D03*
X214325000Y-72950000D03*
%TD*%
D12*
%TO.C,D76*%
X109881250Y-41087500D03*
X109881250Y-39587500D03*
X104431250Y-39587500D03*
X104431250Y-41087500D03*
%TD*%
D11*
%TO.C,D7*%
X57150000Y-96900000D03*
X57150000Y-93600000D03*
%TD*%
D16*
%TO.C,D43*%
X30533214Y-111580083D03*
X31046244Y-112989622D03*
X36167568Y-111125613D03*
X35654538Y-109716074D03*
%TD*%
D11*
%TO.C,D12*%
X218743750Y-92162500D03*
X218743750Y-88862500D03*
%TD*%
D12*
%TO.C,D50*%
X233375000Y-95881250D03*
X233375000Y-94381250D03*
X227925000Y-94381250D03*
X227925000Y-95881250D03*
%TD*%
D11*
%TO.C,D30*%
X199693750Y-58825000D03*
X199693750Y-55525000D03*
%TD*%
D13*
%TO.C,D80*%
X170775000Y-44375000D03*
X170775000Y-45875000D03*
X176225000Y-45875000D03*
X176225000Y-44375000D03*
%TD*%
D17*
%TO.C,R1*%
X21106250Y-93562500D03*
X19281250Y-93562500D03*
%TD*%
D11*
%TO.C,D6*%
X256843750Y-77875000D03*
X256843750Y-74575000D03*
%TD*%
%TO.C,D24*%
X180643750Y-82637500D03*
X180643750Y-79337500D03*
%TD*%
%TO.C,D9*%
X76200000Y-94518750D03*
X76200000Y-91218750D03*
%TD*%
%TO.C,D21*%
X114300000Y-77850000D03*
X114300000Y-74550000D03*
%TD*%
D12*
%TO.C,D52*%
X214325000Y-93500000D03*
X214325000Y-92000000D03*
X208875000Y-92000000D03*
X208875000Y-93500000D03*
%TD*%
D13*
%TO.C,D65*%
X123481250Y-63400000D03*
X123481250Y-64900000D03*
X128931250Y-64900000D03*
X128931250Y-63400000D03*
%TD*%
D11*
%TO.C,D16*%
X180643750Y-101687500D03*
X180643750Y-98387500D03*
%TD*%
D13*
%TO.C,D49*%
X66331250Y-94356250D03*
X66331250Y-95856250D03*
X71781250Y-95856250D03*
X71781250Y-94356250D03*
%TD*%
%TO.C,D83*%
X227925000Y-37231250D03*
X227925000Y-38731250D03*
X233375000Y-38731250D03*
X233375000Y-37231250D03*
%TD*%
D12*
%TO.C,D48*%
X252425000Y-98262500D03*
X252425000Y-96762500D03*
X246975000Y-96762500D03*
X246975000Y-98262500D03*
%TD*%
D13*
%TO.C,D62*%
X227925000Y-75331250D03*
X227925000Y-76831250D03*
X233375000Y-76831250D03*
X233375000Y-75331250D03*
%TD*%
D11*
%TO.C,D38*%
X199047200Y-39861400D03*
X199047200Y-36561400D03*
%TD*%
D13*
%TO.C,D47*%
X47281250Y-96737500D03*
X47281250Y-98237500D03*
X52731250Y-98237500D03*
X52731250Y-96737500D03*
%TD*%
%TO.C,D68*%
X66331250Y-56256250D03*
X66331250Y-57756250D03*
X71781250Y-57756250D03*
X71781250Y-56256250D03*
%TD*%
D11*
%TO.C,D11*%
X95250000Y-92137500D03*
X95250000Y-88837500D03*
%TD*%
%TO.C,D18*%
X237793750Y-75493750D03*
X237793750Y-72193750D03*
%TD*%
D18*
%TO.C,D41*%
X41045583Y-108706743D03*
X39916917Y-105605757D03*
%TD*%
D11*
%TO.C,D31*%
X133350000Y-63562500D03*
X133350000Y-60262500D03*
%TD*%
D13*
%TO.C,D51*%
X85381250Y-91975000D03*
X85381250Y-93475000D03*
X90831250Y-93475000D03*
X90831250Y-91975000D03*
%TD*%
D11*
%TO.C,D29*%
X114300000Y-58800000D03*
X114300000Y-55500000D03*
%TD*%
%TO.C,D19*%
X94606250Y-73675000D03*
X94606250Y-70375000D03*
%TD*%
D12*
%TO.C,D77*%
X90831250Y-36325000D03*
X90831250Y-34825000D03*
X85381250Y-34825000D03*
X85381250Y-36325000D03*
%TD*%
D13*
%TO.C,D82*%
X208875000Y-34850000D03*
X208875000Y-36350000D03*
X214325000Y-36350000D03*
X214325000Y-34850000D03*
%TD*%
D19*
%TO.C,R4*%
X275956250Y-90825000D03*
X277781250Y-90825000D03*
%TD*%
%TO.C,R3*%
X19281250Y-91162500D03*
X21106250Y-91162500D03*
%TD*%
D11*
%TO.C,D33*%
X76200000Y-37368750D03*
X76200000Y-34068750D03*
%TD*%
D13*
%TO.C,D56*%
X170775000Y-82475000D03*
X170775000Y-83975000D03*
X176225000Y-83975000D03*
X176225000Y-82475000D03*
%TD*%
D11*
%TO.C,D17*%
X76200000Y-75468750D03*
X76200000Y-72168750D03*
%TD*%
D12*
%TO.C,D73*%
X233375000Y-57781250D03*
X233375000Y-56281250D03*
X227925000Y-56281250D03*
X227925000Y-57781250D03*
%TD*%
D11*
%TO.C,D20*%
X218743750Y-73112500D03*
X218743750Y-69812500D03*
%TD*%
D13*
%TO.C,D53*%
X104431250Y-96737500D03*
X104431250Y-98237500D03*
X109881250Y-98237500D03*
X109881250Y-96737500D03*
%TD*%
D11*
%TO.C,D39*%
X132703450Y-44598900D03*
X132703450Y-41298900D03*
%TD*%
%TO.C,D25*%
X76200000Y-56418750D03*
X76200000Y-53118750D03*
%TD*%
%TO.C,D10*%
X237793750Y-94543750D03*
X237793750Y-91243750D03*
%TD*%
%TO.C,D36*%
X218743750Y-35012500D03*
X218743750Y-31712500D03*
%TD*%
%TO.C,D8*%
X256843750Y-96925000D03*
X256843750Y-93625000D03*
%TD*%
%TO.C,D15*%
X133350000Y-101662500D03*
X133350000Y-98362500D03*
%TD*%
%TO.C,D28*%
X218743750Y-54062500D03*
X218743750Y-50762500D03*
%TD*%
D12*
%TO.C,D70*%
X176225000Y-64925000D03*
X176225000Y-63425000D03*
X170775000Y-63425000D03*
X170775000Y-64925000D03*
%TD*%
D13*
%TO.C,D58*%
X189825000Y-77712500D03*
X189825000Y-79212500D03*
X195275000Y-79212500D03*
X195275000Y-77712500D03*
%TD*%
M02*
