M48
; DRILL file KiCad 10.0.1 date 2026-04-27T12:31:08
; FORMAT={-:-/ absolute / metric / decimal}
; #@! TF.CreationDate,2026-04-27T12:31:08-05:00
; #@! TF.GenerationSoftware,Kicad,Pcbnew,10.0.1
; #@! TF.FileFunction,Plated,1,2,PTH
FMAT,2
METRIC
; #@! TA.AperFunction,Plated,PTH,ViaDrill
T1C0.300
; #@! TA.AperFunction,Plated,PTH,ComponentDrill
T2C1.000
; #@! TA.AperFunction,Plated,PTH,ComponentDrill
T3C1.050
; #@! TA.AperFunction,Plated,PTH,ComponentDrill
T4C1.524
; #@! TA.AperFunction,Plated,PTH,ComponentDrill
T5C3.200
%
G90
G05
T1
X23.594Y-96.162
X26.5Y-114.9
X29.7Y-110.1
X30.7Y-93.2
X34.994Y-91.562
X36.687Y-66.55
X36.7Y-65.3
X38.497Y-63.362
X39.097Y-62.762
X39.994Y-75.2
X40.4Y-110.8
X40.994Y-102.362
X42.0Y-46.8
X43.194Y-105.562
X43.4Y-45.8
X43.599Y-65.806
X44.0Y-55.5
X48.194Y-100.962
X54.394Y-97.362
X73.194Y-96.962
X254.069Y-99.725
X256.869Y-69.825
X256.869Y-98.425
X259.469Y-84.925
X263.5Y-63.6
X268.669Y-90.025
X270.153Y-93.361
X270.269Y-94.325
X280.1Y-90.7
X281.8Y-73.6
T2
X20.955Y-71.279
X20.955Y-73.819
X20.955Y-76.359
X20.955Y-78.899
X20.955Y-81.439
X20.955Y-83.979
X20.955Y-86.519
X36.195Y-71.279
X36.195Y-73.819
X36.195Y-76.359
X36.195Y-78.899
X36.195Y-81.439
X36.195Y-83.979
X36.195Y-86.519
X263.511Y-70.986
X263.511Y-73.526
X263.511Y-76.066
X263.511Y-78.606
X263.511Y-81.146
X263.511Y-83.686
X263.511Y-86.226
X278.751Y-70.986
X278.751Y-73.526
X278.751Y-76.066
X278.751Y-78.606
X278.751Y-81.146
X278.751Y-83.686
X278.751Y-86.226
T3
X24.13Y-78.581
X24.13Y-76.676
X27.305Y-70.326
X27.305Y-72.866
X29.845Y-70.326
X29.845Y-72.866
X32.385Y-88.106
X34.29Y-88.106
X266.686Y-78.289
X266.686Y-76.384
X269.861Y-70.034
X269.861Y-72.574
X272.401Y-70.034
X272.401Y-72.574
X274.941Y-87.814
X276.846Y-87.814
T4
X26.507Y-103.691
X31.606Y-99.133
X46.196Y-30.797
X46.196Y-49.847
X46.196Y-68.897
X46.196Y-87.947
X52.546Y-28.258
X52.546Y-47.307
X52.546Y-66.358
X52.546Y-85.407
X65.246Y-28.416
X65.246Y-47.466
X65.246Y-66.516
X65.246Y-85.566
X71.596Y-25.876
X71.596Y-44.926
X71.596Y-63.976
X71.596Y-83.026
X84.296Y-26.035
X84.296Y-45.085
X84.296Y-64.135
X84.296Y-83.185
X90.646Y-23.495
X90.646Y-42.545
X90.646Y-61.595
X90.646Y-80.645
X103.346Y-30.797
X103.346Y-49.847
X103.346Y-68.897
X103.346Y-87.947
X109.696Y-28.258
X109.696Y-47.307
X109.696Y-66.358
X109.696Y-85.407
X122.396Y-35.56
X122.396Y-54.61
X122.396Y-73.66
X122.396Y-92.71
X128.746Y-33.02
X128.746Y-52.07
X128.746Y-71.12
X128.746Y-90.17
X169.69Y-35.585
X169.69Y-54.635
X169.69Y-73.685
X169.69Y-92.735
X176.04Y-33.045
X176.04Y-52.095
X176.04Y-71.145
X176.04Y-90.195
X188.74Y-30.822
X188.74Y-49.872
X188.74Y-68.922
X188.74Y-87.972
X195.09Y-28.282
X195.09Y-47.332
X195.09Y-66.382
X195.09Y-85.432
X207.79Y-26.06
X207.79Y-45.11
X207.79Y-64.16
X207.79Y-83.21
X214.14Y-23.52
X214.14Y-42.57
X214.14Y-61.62
X214.14Y-80.67
X226.84Y-28.441
X226.84Y-47.491
X226.84Y-66.541
X226.84Y-85.591
X233.19Y-25.901
X233.19Y-44.951
X233.19Y-64.001
X233.19Y-83.051
X245.89Y-30.785
X245.89Y-49.872
X245.89Y-68.922
X245.89Y-87.972
X252.24Y-28.245
X252.24Y-47.332
X252.24Y-66.382
X252.24Y-85.432
X266.039Y-101.11
X272.874Y-100.895
T5
X69.056Y-104.775
X107.156Y-104.775
X140.494Y-47.625
X140.494Y-66.675
X140.494Y-85.725
X158.444Y-47.625
X158.444Y-66.675
X158.444Y-85.725
X193.1Y-104.8
X231.2Y-104.8
M30
